G04 #@! TF.GenerationSoftware,KiCad,Pcbnew,(5.1.0)-1*
G04 #@! TF.CreationDate,2020-12-16T18:10:22+01:00*
G04 #@! TF.ProjectId,ECG Patient simulator,45434720-5061-4746-9965-6e742073696d,1.0*
G04 #@! TF.SameCoordinates,Original*
G04 #@! TF.FileFunction,Soldermask,Top*
G04 #@! TF.FilePolarity,Negative*
%FSLAX46Y46*%
G04 Gerber Fmt 4.6, Leading zero omitted, Abs format (unit mm)*
G04 Created by KiCad (PCBNEW (5.1.0)-1) date 2020-12-16 18:10:22*
%MOMM*%
%LPD*%
G04 APERTURE LIST*
%ADD10C,0.100000*%
G04 APERTURE END LIST*
D10*
G36*
X129171000Y-122821000D02*
G01*
X127369000Y-122821000D01*
X127369000Y-121019000D01*
X129171000Y-121019000D01*
X129171000Y-122821000D01*
X129171000Y-122821000D01*
G37*
G36*
X136000442Y-121025518D02*
G01*
X136066627Y-121032037D01*
X136236466Y-121083557D01*
X136236468Y-121083558D01*
X136260669Y-121096494D01*
X136392991Y-121167222D01*
X136423768Y-121192480D01*
X136530186Y-121279814D01*
X136613448Y-121381271D01*
X136642778Y-121417009D01*
X136726443Y-121573534D01*
X136777963Y-121743373D01*
X136795359Y-121920000D01*
X136777963Y-122096627D01*
X136726443Y-122266466D01*
X136642778Y-122422991D01*
X136613448Y-122458729D01*
X136530186Y-122560186D01*
X136428729Y-122643448D01*
X136392991Y-122672778D01*
X136236466Y-122756443D01*
X136066627Y-122807963D01*
X136000443Y-122814481D01*
X135934260Y-122821000D01*
X135845740Y-122821000D01*
X135779557Y-122814481D01*
X135713373Y-122807963D01*
X135543534Y-122756443D01*
X135387009Y-122672778D01*
X135351271Y-122643448D01*
X135249814Y-122560186D01*
X135166552Y-122458729D01*
X135137222Y-122422991D01*
X135053557Y-122266466D01*
X135002037Y-122096627D01*
X134984641Y-121920000D01*
X135002037Y-121743373D01*
X135053557Y-121573534D01*
X135137222Y-121417009D01*
X135166552Y-121381271D01*
X135249814Y-121279814D01*
X135356232Y-121192480D01*
X135387009Y-121167222D01*
X135519331Y-121096494D01*
X135543532Y-121083558D01*
X135543534Y-121083557D01*
X135713373Y-121032037D01*
X135779558Y-121025518D01*
X135845740Y-121019000D01*
X135934260Y-121019000D01*
X136000442Y-121025518D01*
X136000442Y-121025518D01*
G37*
G36*
X138540442Y-121025518D02*
G01*
X138606627Y-121032037D01*
X138776466Y-121083557D01*
X138776468Y-121083558D01*
X138800669Y-121096494D01*
X138932991Y-121167222D01*
X138963768Y-121192480D01*
X139070186Y-121279814D01*
X139153448Y-121381271D01*
X139182778Y-121417009D01*
X139266443Y-121573534D01*
X139317963Y-121743373D01*
X139335359Y-121920000D01*
X139317963Y-122096627D01*
X139266443Y-122266466D01*
X139182778Y-122422991D01*
X139153448Y-122458729D01*
X139070186Y-122560186D01*
X138968729Y-122643448D01*
X138932991Y-122672778D01*
X138776466Y-122756443D01*
X138606627Y-122807963D01*
X138540443Y-122814481D01*
X138474260Y-122821000D01*
X138385740Y-122821000D01*
X138319557Y-122814481D01*
X138253373Y-122807963D01*
X138083534Y-122756443D01*
X137927009Y-122672778D01*
X137891271Y-122643448D01*
X137789814Y-122560186D01*
X137706552Y-122458729D01*
X137677222Y-122422991D01*
X137593557Y-122266466D01*
X137542037Y-122096627D01*
X137524641Y-121920000D01*
X137542037Y-121743373D01*
X137593557Y-121573534D01*
X137677222Y-121417009D01*
X137706552Y-121381271D01*
X137789814Y-121279814D01*
X137896232Y-121192480D01*
X137927009Y-121167222D01*
X138059331Y-121096494D01*
X138083532Y-121083558D01*
X138083534Y-121083557D01*
X138253373Y-121032037D01*
X138319558Y-121025518D01*
X138385740Y-121019000D01*
X138474260Y-121019000D01*
X138540442Y-121025518D01*
X138540442Y-121025518D01*
G37*
G36*
X130920442Y-121025518D02*
G01*
X130986627Y-121032037D01*
X131156466Y-121083557D01*
X131156468Y-121083558D01*
X131180669Y-121096494D01*
X131312991Y-121167222D01*
X131343768Y-121192480D01*
X131450186Y-121279814D01*
X131533448Y-121381271D01*
X131562778Y-121417009D01*
X131646443Y-121573534D01*
X131697963Y-121743373D01*
X131715359Y-121920000D01*
X131697963Y-122096627D01*
X131646443Y-122266466D01*
X131562778Y-122422991D01*
X131533448Y-122458729D01*
X131450186Y-122560186D01*
X131348729Y-122643448D01*
X131312991Y-122672778D01*
X131156466Y-122756443D01*
X130986627Y-122807963D01*
X130920443Y-122814481D01*
X130854260Y-122821000D01*
X130765740Y-122821000D01*
X130699557Y-122814481D01*
X130633373Y-122807963D01*
X130463534Y-122756443D01*
X130307009Y-122672778D01*
X130271271Y-122643448D01*
X130169814Y-122560186D01*
X130086552Y-122458729D01*
X130057222Y-122422991D01*
X129973557Y-122266466D01*
X129922037Y-122096627D01*
X129904641Y-121920000D01*
X129922037Y-121743373D01*
X129973557Y-121573534D01*
X130057222Y-121417009D01*
X130086552Y-121381271D01*
X130169814Y-121279814D01*
X130276232Y-121192480D01*
X130307009Y-121167222D01*
X130439331Y-121096494D01*
X130463532Y-121083558D01*
X130463534Y-121083557D01*
X130633373Y-121032037D01*
X130699558Y-121025518D01*
X130765740Y-121019000D01*
X130854260Y-121019000D01*
X130920442Y-121025518D01*
X130920442Y-121025518D01*
G37*
G36*
X133460442Y-121025518D02*
G01*
X133526627Y-121032037D01*
X133696466Y-121083557D01*
X133696468Y-121083558D01*
X133720669Y-121096494D01*
X133852991Y-121167222D01*
X133883768Y-121192480D01*
X133990186Y-121279814D01*
X134073448Y-121381271D01*
X134102778Y-121417009D01*
X134186443Y-121573534D01*
X134237963Y-121743373D01*
X134255359Y-121920000D01*
X134237963Y-122096627D01*
X134186443Y-122266466D01*
X134102778Y-122422991D01*
X134073448Y-122458729D01*
X133990186Y-122560186D01*
X133888729Y-122643448D01*
X133852991Y-122672778D01*
X133696466Y-122756443D01*
X133526627Y-122807963D01*
X133460443Y-122814481D01*
X133394260Y-122821000D01*
X133305740Y-122821000D01*
X133239557Y-122814481D01*
X133173373Y-122807963D01*
X133003534Y-122756443D01*
X132847009Y-122672778D01*
X132811271Y-122643448D01*
X132709814Y-122560186D01*
X132626552Y-122458729D01*
X132597222Y-122422991D01*
X132513557Y-122266466D01*
X132462037Y-122096627D01*
X132444641Y-121920000D01*
X132462037Y-121743373D01*
X132513557Y-121573534D01*
X132597222Y-121417009D01*
X132626552Y-121381271D01*
X132709814Y-121279814D01*
X132816232Y-121192480D01*
X132847009Y-121167222D01*
X132979331Y-121096494D01*
X133003532Y-121083558D01*
X133003534Y-121083557D01*
X133173373Y-121032037D01*
X133239558Y-121025518D01*
X133305740Y-121019000D01*
X133394260Y-121019000D01*
X133460442Y-121025518D01*
X133460442Y-121025518D01*
G37*
G36*
X113254549Y-119521116D02*
G01*
X113365734Y-119543232D01*
X113575203Y-119629997D01*
X113763720Y-119755960D01*
X113924040Y-119916280D01*
X114050003Y-120104797D01*
X114050004Y-120104799D01*
X114051131Y-120107520D01*
X114136768Y-120314266D01*
X114181000Y-120536636D01*
X114181000Y-120763364D01*
X114136768Y-120985734D01*
X114098782Y-121077440D01*
X114051131Y-121192481D01*
X114050003Y-121195203D01*
X113924040Y-121383720D01*
X113763720Y-121544040D01*
X113575203Y-121670003D01*
X113365734Y-121756768D01*
X113254549Y-121778884D01*
X113143365Y-121801000D01*
X112916635Y-121801000D01*
X112805451Y-121778884D01*
X112694266Y-121756768D01*
X112484797Y-121670003D01*
X112296280Y-121544040D01*
X112135960Y-121383720D01*
X112009997Y-121195203D01*
X112008870Y-121192481D01*
X111961218Y-121077440D01*
X111923232Y-120985734D01*
X111879000Y-120763364D01*
X111879000Y-120536636D01*
X111923232Y-120314266D01*
X112008869Y-120107520D01*
X112009996Y-120104799D01*
X112009997Y-120104797D01*
X112135960Y-119916280D01*
X112296280Y-119755960D01*
X112484797Y-119629997D01*
X112694266Y-119543232D01*
X112805451Y-119521116D01*
X112916635Y-119499000D01*
X113143365Y-119499000D01*
X113254549Y-119521116D01*
X113254549Y-119521116D01*
G37*
G36*
X172944549Y-119521116D02*
G01*
X173055734Y-119543232D01*
X173265203Y-119629997D01*
X173453720Y-119755960D01*
X173614040Y-119916280D01*
X173740003Y-120104797D01*
X173740004Y-120104799D01*
X173741131Y-120107520D01*
X173826768Y-120314266D01*
X173871000Y-120536636D01*
X173871000Y-120763364D01*
X173826768Y-120985734D01*
X173788782Y-121077440D01*
X173741131Y-121192481D01*
X173740003Y-121195203D01*
X173614040Y-121383720D01*
X173453720Y-121544040D01*
X173265203Y-121670003D01*
X173055734Y-121756768D01*
X172944549Y-121778884D01*
X172833365Y-121801000D01*
X172606635Y-121801000D01*
X172495451Y-121778884D01*
X172384266Y-121756768D01*
X172174797Y-121670003D01*
X171986280Y-121544040D01*
X171825960Y-121383720D01*
X171699997Y-121195203D01*
X171698870Y-121192481D01*
X171651218Y-121077440D01*
X171613232Y-120985734D01*
X171569000Y-120763364D01*
X171569000Y-120536636D01*
X171613232Y-120314266D01*
X171698869Y-120107520D01*
X171699996Y-120104799D01*
X171699997Y-120104797D01*
X171825960Y-119916280D01*
X171986280Y-119755960D01*
X172174797Y-119629997D01*
X172384266Y-119543232D01*
X172495451Y-119521116D01*
X172606635Y-119499000D01*
X172833365Y-119499000D01*
X172944549Y-119521116D01*
X172944549Y-119521116D01*
G37*
G36*
X151458228Y-119831703D02*
G01*
X151613100Y-119895853D01*
X151752481Y-119988985D01*
X151871015Y-120107519D01*
X151964147Y-120246900D01*
X152028297Y-120401772D01*
X152061000Y-120566184D01*
X152061000Y-120733816D01*
X152028297Y-120898228D01*
X151964147Y-121053100D01*
X151871015Y-121192481D01*
X151752481Y-121311015D01*
X151613100Y-121404147D01*
X151458228Y-121468297D01*
X151293816Y-121501000D01*
X151126184Y-121501000D01*
X150961772Y-121468297D01*
X150806900Y-121404147D01*
X150667519Y-121311015D01*
X150548985Y-121192481D01*
X150455853Y-121053100D01*
X150391703Y-120898228D01*
X150359000Y-120733816D01*
X150359000Y-120566184D01*
X150391703Y-120401772D01*
X150455853Y-120246900D01*
X150548985Y-120107519D01*
X150667519Y-119988985D01*
X150806900Y-119895853D01*
X150961772Y-119831703D01*
X151126184Y-119799000D01*
X151293816Y-119799000D01*
X151458228Y-119831703D01*
X151458228Y-119831703D01*
G37*
G36*
X156458228Y-119831703D02*
G01*
X156613100Y-119895853D01*
X156752481Y-119988985D01*
X156871015Y-120107519D01*
X156964147Y-120246900D01*
X157028297Y-120401772D01*
X157061000Y-120566184D01*
X157061000Y-120733816D01*
X157028297Y-120898228D01*
X156964147Y-121053100D01*
X156871015Y-121192481D01*
X156752481Y-121311015D01*
X156613100Y-121404147D01*
X156458228Y-121468297D01*
X156293816Y-121501000D01*
X156126184Y-121501000D01*
X155961772Y-121468297D01*
X155806900Y-121404147D01*
X155667519Y-121311015D01*
X155548985Y-121192481D01*
X155455853Y-121053100D01*
X155391703Y-120898228D01*
X155359000Y-120733816D01*
X155359000Y-120566184D01*
X155391703Y-120401772D01*
X155455853Y-120246900D01*
X155548985Y-120107519D01*
X155667519Y-119988985D01*
X155806900Y-119895853D01*
X155961772Y-119831703D01*
X156126184Y-119799000D01*
X156293816Y-119799000D01*
X156458228Y-119831703D01*
X156458228Y-119831703D01*
G37*
G36*
X144892916Y-119857334D02*
G01*
X145001492Y-119890271D01*
X145001495Y-119890272D01*
X145037601Y-119909571D01*
X145101557Y-119943756D01*
X145189264Y-120015736D01*
X145252383Y-120092646D01*
X145269702Y-120109965D01*
X145290077Y-120123579D01*
X145312716Y-120132957D01*
X145336749Y-120137737D01*
X145361253Y-120137737D01*
X145385286Y-120132957D01*
X145407925Y-120123579D01*
X145428299Y-120109966D01*
X145445626Y-120092639D01*
X145459240Y-120072264D01*
X145468618Y-120049625D01*
X145473398Y-120025592D01*
X145474000Y-120013340D01*
X145474000Y-119849000D01*
X146626000Y-119849000D01*
X146626000Y-121451000D01*
X145474000Y-121451000D01*
X145474000Y-121286660D01*
X145471598Y-121262274D01*
X145464485Y-121238825D01*
X145452934Y-121217214D01*
X145437389Y-121198272D01*
X145418447Y-121182727D01*
X145396836Y-121171176D01*
X145373387Y-121164063D01*
X145349001Y-121161661D01*
X145324615Y-121164063D01*
X145301166Y-121171176D01*
X145279555Y-121182727D01*
X145252381Y-121207356D01*
X145189264Y-121284264D01*
X145101556Y-121356244D01*
X145050153Y-121383719D01*
X145001494Y-121409728D01*
X145001491Y-121409729D01*
X144892915Y-121442666D01*
X144780000Y-121453787D01*
X144667084Y-121442666D01*
X144558508Y-121409729D01*
X144558505Y-121409728D01*
X144509846Y-121383719D01*
X144458443Y-121356244D01*
X144370736Y-121284264D01*
X144298756Y-121196556D01*
X144255239Y-121115140D01*
X144241625Y-121094766D01*
X144224298Y-121077439D01*
X144203924Y-121063825D01*
X144181285Y-121054448D01*
X144157251Y-121049668D01*
X144132747Y-121049668D01*
X144108714Y-121054449D01*
X144086075Y-121063826D01*
X144065701Y-121077440D01*
X144048374Y-121094767D01*
X144034762Y-121115140D01*
X143991244Y-121196557D01*
X143919264Y-121284264D01*
X143831556Y-121356244D01*
X143780153Y-121383719D01*
X143731494Y-121409728D01*
X143731491Y-121409729D01*
X143622915Y-121442666D01*
X143510000Y-121453787D01*
X143397084Y-121442666D01*
X143288508Y-121409729D01*
X143288505Y-121409728D01*
X143239846Y-121383719D01*
X143188443Y-121356244D01*
X143100736Y-121284264D01*
X143028756Y-121196556D01*
X142985239Y-121115140D01*
X142975272Y-121096494D01*
X142971348Y-121083558D01*
X142942334Y-120987915D01*
X142934000Y-120903297D01*
X142934000Y-120396702D01*
X142942334Y-120312084D01*
X142975271Y-120203508D01*
X142975272Y-120203505D01*
X143028756Y-120103445D01*
X143028757Y-120103443D01*
X143100737Y-120015736D01*
X143188444Y-119943756D01*
X143252400Y-119909571D01*
X143288506Y-119890272D01*
X143288509Y-119890271D01*
X143397085Y-119857334D01*
X143510000Y-119846213D01*
X143622916Y-119857334D01*
X143731492Y-119890271D01*
X143731495Y-119890272D01*
X143767601Y-119909571D01*
X143831557Y-119943756D01*
X143919264Y-120015736D01*
X143991244Y-120103443D01*
X144026832Y-120170025D01*
X144034761Y-120184859D01*
X144048375Y-120205234D01*
X144065702Y-120222561D01*
X144086076Y-120236174D01*
X144108715Y-120245552D01*
X144132748Y-120250332D01*
X144157252Y-120250332D01*
X144181285Y-120245552D01*
X144203924Y-120236174D01*
X144224299Y-120222560D01*
X144241626Y-120205233D01*
X144255239Y-120184859D01*
X144298756Y-120103445D01*
X144298757Y-120103443D01*
X144370737Y-120015736D01*
X144458444Y-119943756D01*
X144522400Y-119909571D01*
X144558506Y-119890272D01*
X144558509Y-119890271D01*
X144667085Y-119857334D01*
X144780000Y-119846213D01*
X144892916Y-119857334D01*
X144892916Y-119857334D01*
G37*
G36*
X136056823Y-118541313D02*
G01*
X136217242Y-118589976D01*
X136349906Y-118660886D01*
X136365078Y-118668996D01*
X136494659Y-118775341D01*
X136601004Y-118904922D01*
X136601005Y-118904924D01*
X136680024Y-119052758D01*
X136728687Y-119213177D01*
X136745117Y-119380000D01*
X136728687Y-119546823D01*
X136680024Y-119707242D01*
X136630978Y-119799000D01*
X136601004Y-119855078D01*
X136494659Y-119984659D01*
X136365078Y-120091004D01*
X136365076Y-120091005D01*
X136217242Y-120170024D01*
X136056823Y-120218687D01*
X135931804Y-120231000D01*
X135848196Y-120231000D01*
X135723177Y-120218687D01*
X135562758Y-120170024D01*
X135414924Y-120091005D01*
X135414922Y-120091004D01*
X135285341Y-119984659D01*
X135178996Y-119855078D01*
X135149022Y-119799000D01*
X135099976Y-119707242D01*
X135051313Y-119546823D01*
X135034883Y-119380000D01*
X135051313Y-119213177D01*
X135099976Y-119052758D01*
X135178995Y-118904924D01*
X135178996Y-118904922D01*
X135285341Y-118775341D01*
X135414922Y-118668996D01*
X135430094Y-118660886D01*
X135562758Y-118589976D01*
X135723177Y-118541313D01*
X135848196Y-118529000D01*
X135931804Y-118529000D01*
X136056823Y-118541313D01*
X136056823Y-118541313D01*
G37*
G36*
X129121000Y-120231000D02*
G01*
X127419000Y-120231000D01*
X127419000Y-118529000D01*
X129121000Y-118529000D01*
X129121000Y-120231000D01*
X129121000Y-120231000D01*
G37*
G36*
X162866564Y-117099389D02*
G01*
X163030376Y-117167242D01*
X163057835Y-117178616D01*
X163229973Y-117293635D01*
X163376365Y-117440027D01*
X163479345Y-117594147D01*
X163491385Y-117612167D01*
X163570611Y-117803436D01*
X163611000Y-118006484D01*
X163611000Y-118213516D01*
X163570611Y-118416564D01*
X163491385Y-118607833D01*
X163491384Y-118607835D01*
X163376365Y-118779973D01*
X163229973Y-118926365D01*
X163057835Y-119041384D01*
X163057834Y-119041385D01*
X163057833Y-119041385D01*
X162866564Y-119120611D01*
X162663516Y-119161000D01*
X162456484Y-119161000D01*
X162253436Y-119120611D01*
X162062167Y-119041385D01*
X162062166Y-119041385D01*
X162062165Y-119041384D01*
X161890027Y-118926365D01*
X161743635Y-118779973D01*
X161628616Y-118607835D01*
X161628615Y-118607833D01*
X161549389Y-118416564D01*
X161509000Y-118213516D01*
X161509000Y-118006484D01*
X161549389Y-117803436D01*
X161628615Y-117612167D01*
X161640656Y-117594147D01*
X161743635Y-117440027D01*
X161890027Y-117293635D01*
X162062165Y-117178616D01*
X162089624Y-117167242D01*
X162253436Y-117099389D01*
X162456484Y-117059000D01*
X162663516Y-117059000D01*
X162866564Y-117099389D01*
X162866564Y-117099389D01*
G37*
G36*
X167866564Y-117099389D02*
G01*
X168030376Y-117167242D01*
X168057835Y-117178616D01*
X168229973Y-117293635D01*
X168376365Y-117440027D01*
X168479345Y-117594147D01*
X168491385Y-117612167D01*
X168570611Y-117803436D01*
X168611000Y-118006484D01*
X168611000Y-118213516D01*
X168570611Y-118416564D01*
X168491385Y-118607833D01*
X168491384Y-118607835D01*
X168376365Y-118779973D01*
X168229973Y-118926365D01*
X168057835Y-119041384D01*
X168057834Y-119041385D01*
X168057833Y-119041385D01*
X167866564Y-119120611D01*
X167663516Y-119161000D01*
X167456484Y-119161000D01*
X167253436Y-119120611D01*
X167062167Y-119041385D01*
X167062166Y-119041385D01*
X167062165Y-119041384D01*
X166890027Y-118926365D01*
X166743635Y-118779973D01*
X166628616Y-118607835D01*
X166628615Y-118607833D01*
X166549389Y-118416564D01*
X166509000Y-118213516D01*
X166509000Y-118006484D01*
X166549389Y-117803436D01*
X166628615Y-117612167D01*
X166640656Y-117594147D01*
X166743635Y-117440027D01*
X166890027Y-117293635D01*
X167062165Y-117178616D01*
X167089624Y-117167242D01*
X167253436Y-117099389D01*
X167456484Y-117059000D01*
X167663516Y-117059000D01*
X167866564Y-117099389D01*
X167866564Y-117099389D01*
G37*
G36*
X118416564Y-117099389D02*
G01*
X118580376Y-117167242D01*
X118607835Y-117178616D01*
X118779973Y-117293635D01*
X118926365Y-117440027D01*
X119029345Y-117594147D01*
X119041385Y-117612167D01*
X119120611Y-117803436D01*
X119161000Y-118006484D01*
X119161000Y-118213516D01*
X119120611Y-118416564D01*
X119041385Y-118607833D01*
X119041384Y-118607835D01*
X118926365Y-118779973D01*
X118779973Y-118926365D01*
X118607835Y-119041384D01*
X118607834Y-119041385D01*
X118607833Y-119041385D01*
X118416564Y-119120611D01*
X118213516Y-119161000D01*
X118006484Y-119161000D01*
X117803436Y-119120611D01*
X117612167Y-119041385D01*
X117612166Y-119041385D01*
X117612165Y-119041384D01*
X117440027Y-118926365D01*
X117293635Y-118779973D01*
X117178616Y-118607835D01*
X117178615Y-118607833D01*
X117099389Y-118416564D01*
X117059000Y-118213516D01*
X117059000Y-118006484D01*
X117099389Y-117803436D01*
X117178615Y-117612167D01*
X117190656Y-117594147D01*
X117293635Y-117440027D01*
X117440027Y-117293635D01*
X117612165Y-117178616D01*
X117639624Y-117167242D01*
X117803436Y-117099389D01*
X118006484Y-117059000D01*
X118213516Y-117059000D01*
X118416564Y-117099389D01*
X118416564Y-117099389D01*
G37*
G36*
X123416564Y-117099389D02*
G01*
X123580376Y-117167242D01*
X123607835Y-117178616D01*
X123779973Y-117293635D01*
X123926365Y-117440027D01*
X124029345Y-117594147D01*
X124041385Y-117612167D01*
X124120611Y-117803436D01*
X124161000Y-118006484D01*
X124161000Y-118213516D01*
X124120611Y-118416564D01*
X124041385Y-118607833D01*
X124041384Y-118607835D01*
X123926365Y-118779973D01*
X123779973Y-118926365D01*
X123607835Y-119041384D01*
X123607834Y-119041385D01*
X123607833Y-119041385D01*
X123416564Y-119120611D01*
X123213516Y-119161000D01*
X123006484Y-119161000D01*
X122803436Y-119120611D01*
X122612167Y-119041385D01*
X122612166Y-119041385D01*
X122612165Y-119041384D01*
X122440027Y-118926365D01*
X122293635Y-118779973D01*
X122178616Y-118607835D01*
X122178615Y-118607833D01*
X122099389Y-118416564D01*
X122059000Y-118213516D01*
X122059000Y-118006484D01*
X122099389Y-117803436D01*
X122178615Y-117612167D01*
X122190656Y-117594147D01*
X122293635Y-117440027D01*
X122440027Y-117293635D01*
X122612165Y-117178616D01*
X122639624Y-117167242D01*
X122803436Y-117099389D01*
X123006484Y-117059000D01*
X123213516Y-117059000D01*
X123416564Y-117099389D01*
X123416564Y-117099389D01*
G37*
G36*
X156458228Y-117291703D02*
G01*
X156613100Y-117355853D01*
X156752481Y-117448985D01*
X156871015Y-117567519D01*
X156964147Y-117706900D01*
X157028297Y-117861772D01*
X157061000Y-118026184D01*
X157061000Y-118193816D01*
X157028297Y-118358228D01*
X156964147Y-118513100D01*
X156871015Y-118652481D01*
X156752481Y-118771015D01*
X156613100Y-118864147D01*
X156458228Y-118928297D01*
X156293816Y-118961000D01*
X156126184Y-118961000D01*
X155961772Y-118928297D01*
X155806900Y-118864147D01*
X155667519Y-118771015D01*
X155548985Y-118652481D01*
X155455853Y-118513100D01*
X155391703Y-118358228D01*
X155359000Y-118193816D01*
X155359000Y-118026184D01*
X155391703Y-117861772D01*
X155455853Y-117706900D01*
X155548985Y-117567519D01*
X155667519Y-117448985D01*
X155806900Y-117355853D01*
X155961772Y-117291703D01*
X156126184Y-117259000D01*
X156293816Y-117259000D01*
X156458228Y-117291703D01*
X156458228Y-117291703D01*
G37*
G36*
X151458228Y-117291703D02*
G01*
X151613100Y-117355853D01*
X151752481Y-117448985D01*
X151871015Y-117567519D01*
X151964147Y-117706900D01*
X152028297Y-117861772D01*
X152061000Y-118026184D01*
X152061000Y-118193816D01*
X152028297Y-118358228D01*
X151964147Y-118513100D01*
X151871015Y-118652481D01*
X151752481Y-118771015D01*
X151613100Y-118864147D01*
X151458228Y-118928297D01*
X151293816Y-118961000D01*
X151126184Y-118961000D01*
X150961772Y-118928297D01*
X150806900Y-118864147D01*
X150667519Y-118771015D01*
X150548985Y-118652481D01*
X150455853Y-118513100D01*
X150391703Y-118358228D01*
X150359000Y-118193816D01*
X150359000Y-118026184D01*
X150391703Y-117861772D01*
X150455853Y-117706900D01*
X150548985Y-117567519D01*
X150667519Y-117448985D01*
X150806900Y-117355853D01*
X150961772Y-117291703D01*
X151126184Y-117259000D01*
X151293816Y-117259000D01*
X151458228Y-117291703D01*
X151458228Y-117291703D01*
G37*
G36*
X138596823Y-116001313D02*
G01*
X138757242Y-116049976D01*
X138824361Y-116085852D01*
X138905078Y-116128996D01*
X139034659Y-116235341D01*
X139141004Y-116364922D01*
X139141005Y-116364924D01*
X139220024Y-116512758D01*
X139268687Y-116673177D01*
X139285117Y-116840000D01*
X139268687Y-117006823D01*
X139220024Y-117167242D01*
X139179477Y-117243100D01*
X139141004Y-117315078D01*
X139034659Y-117444659D01*
X138905078Y-117551004D01*
X138905076Y-117551005D01*
X138757242Y-117630024D01*
X138596823Y-117678687D01*
X138471804Y-117691000D01*
X138388196Y-117691000D01*
X138263177Y-117678687D01*
X138102758Y-117630024D01*
X137954924Y-117551005D01*
X137954922Y-117551004D01*
X137825341Y-117444659D01*
X137718996Y-117315078D01*
X137680523Y-117243100D01*
X137639976Y-117167242D01*
X137591313Y-117006823D01*
X137574883Y-116840000D01*
X137591313Y-116673177D01*
X137639976Y-116512758D01*
X137718995Y-116364924D01*
X137718996Y-116364922D01*
X137825341Y-116235341D01*
X137954922Y-116128996D01*
X138035639Y-116085852D01*
X138102758Y-116049976D01*
X138263177Y-116001313D01*
X138388196Y-115989000D01*
X138471804Y-115989000D01*
X138596823Y-116001313D01*
X138596823Y-116001313D01*
G37*
G36*
X128518228Y-116021703D02*
G01*
X128673100Y-116085853D01*
X128812481Y-116178985D01*
X128931015Y-116297519D01*
X129024147Y-116436900D01*
X129088297Y-116591772D01*
X129121000Y-116756184D01*
X129121000Y-116923816D01*
X129088297Y-117088228D01*
X129024147Y-117243100D01*
X128931015Y-117382481D01*
X128812481Y-117501015D01*
X128673100Y-117594147D01*
X128518228Y-117658297D01*
X128353816Y-117691000D01*
X128186184Y-117691000D01*
X128021772Y-117658297D01*
X127866900Y-117594147D01*
X127727519Y-117501015D01*
X127608985Y-117382481D01*
X127515853Y-117243100D01*
X127451703Y-117088228D01*
X127419000Y-116923816D01*
X127419000Y-116756184D01*
X127451703Y-116591772D01*
X127515853Y-116436900D01*
X127608985Y-116297519D01*
X127727519Y-116178985D01*
X127866900Y-116085853D01*
X128021772Y-116021703D01*
X128186184Y-115989000D01*
X128353816Y-115989000D01*
X128518228Y-116021703D01*
X128518228Y-116021703D01*
G37*
G36*
X145731000Y-115251000D02*
G01*
X143829000Y-115251000D01*
X143829000Y-113349000D01*
X145731000Y-113349000D01*
X145731000Y-115251000D01*
X145731000Y-115251000D01*
G37*
G36*
X142517395Y-113385546D02*
G01*
X142690466Y-113457234D01*
X142696572Y-113461314D01*
X142846227Y-113561310D01*
X142978690Y-113693773D01*
X143021284Y-113757520D01*
X143082766Y-113849534D01*
X143154454Y-114022605D01*
X143191000Y-114206333D01*
X143191000Y-114393667D01*
X143154454Y-114577395D01*
X143082766Y-114750466D01*
X143082765Y-114750467D01*
X142978690Y-114906227D01*
X142846227Y-115038690D01*
X142823092Y-115054148D01*
X142690466Y-115142766D01*
X142517395Y-115214454D01*
X142333667Y-115251000D01*
X142146333Y-115251000D01*
X141962605Y-115214454D01*
X141789534Y-115142766D01*
X141656908Y-115054148D01*
X141633773Y-115038690D01*
X141501310Y-114906227D01*
X141397235Y-114750467D01*
X141397234Y-114750466D01*
X141325546Y-114577395D01*
X141289000Y-114393667D01*
X141289000Y-114206333D01*
X141325546Y-114022605D01*
X141397234Y-113849534D01*
X141458716Y-113757520D01*
X141501310Y-113693773D01*
X141633773Y-113561310D01*
X141783428Y-113461314D01*
X141789534Y-113457234D01*
X141962605Y-113385546D01*
X142146333Y-113349000D01*
X142333667Y-113349000D01*
X142517395Y-113385546D01*
X142517395Y-113385546D01*
G37*
G36*
X128436823Y-113461313D02*
G01*
X128597242Y-113509976D01*
X128654550Y-113540608D01*
X128745078Y-113588996D01*
X128874659Y-113695341D01*
X128981004Y-113824922D01*
X128981005Y-113824924D01*
X129060024Y-113972758D01*
X129108687Y-114133177D01*
X129125117Y-114300000D01*
X129108687Y-114466823D01*
X129060024Y-114627242D01*
X129019477Y-114703100D01*
X128981004Y-114775078D01*
X128874659Y-114904659D01*
X128745078Y-115011004D01*
X128745076Y-115011005D01*
X128597242Y-115090024D01*
X128436823Y-115138687D01*
X128311804Y-115151000D01*
X128228196Y-115151000D01*
X128103177Y-115138687D01*
X127942758Y-115090024D01*
X127794924Y-115011005D01*
X127794922Y-115011004D01*
X127665341Y-114904659D01*
X127558996Y-114775078D01*
X127520523Y-114703100D01*
X127479976Y-114627242D01*
X127431313Y-114466823D01*
X127414883Y-114300000D01*
X127431313Y-114133177D01*
X127479976Y-113972758D01*
X127558995Y-113824924D01*
X127558996Y-113824922D01*
X127665341Y-113695341D01*
X127794922Y-113588996D01*
X127885450Y-113540608D01*
X127942758Y-113509976D01*
X128103177Y-113461313D01*
X128228196Y-113449000D01*
X128311804Y-113449000D01*
X128436823Y-113461313D01*
X128436823Y-113461313D01*
G37*
G36*
X138678228Y-113481703D02*
G01*
X138833100Y-113545853D01*
X138972481Y-113638985D01*
X139091015Y-113757519D01*
X139184147Y-113896900D01*
X139248297Y-114051772D01*
X139281000Y-114216184D01*
X139281000Y-114383816D01*
X139248297Y-114548228D01*
X139184147Y-114703100D01*
X139091015Y-114842481D01*
X138972481Y-114961015D01*
X138833100Y-115054147D01*
X138678228Y-115118297D01*
X138513816Y-115151000D01*
X138346184Y-115151000D01*
X138181772Y-115118297D01*
X138026900Y-115054147D01*
X137887519Y-114961015D01*
X137768985Y-114842481D01*
X137675853Y-114703100D01*
X137611703Y-114548228D01*
X137579000Y-114383816D01*
X137579000Y-114216184D01*
X137611703Y-114051772D01*
X137675853Y-113896900D01*
X137768985Y-113757519D01*
X137887519Y-113638985D01*
X138026900Y-113545853D01*
X138181772Y-113481703D01*
X138346184Y-113449000D01*
X138513816Y-113449000D01*
X138678228Y-113481703D01*
X138678228Y-113481703D01*
G37*
G36*
X167866564Y-112099389D02*
G01*
X168057833Y-112178615D01*
X168057835Y-112178616D01*
X168229973Y-112293635D01*
X168376365Y-112440027D01*
X168490606Y-112611000D01*
X168491385Y-112612167D01*
X168570611Y-112803436D01*
X168611000Y-113006484D01*
X168611000Y-113213516D01*
X168570611Y-113416564D01*
X168491385Y-113607833D01*
X168491384Y-113607835D01*
X168376365Y-113779973D01*
X168229973Y-113926365D01*
X168057835Y-114041384D01*
X168057834Y-114041385D01*
X168057833Y-114041385D01*
X167866564Y-114120611D01*
X167663516Y-114161000D01*
X167456484Y-114161000D01*
X167253436Y-114120611D01*
X167062167Y-114041385D01*
X167062166Y-114041385D01*
X167062165Y-114041384D01*
X166890027Y-113926365D01*
X166743635Y-113779973D01*
X166628616Y-113607835D01*
X166628615Y-113607833D01*
X166549389Y-113416564D01*
X166509000Y-113213516D01*
X166509000Y-113006484D01*
X166549389Y-112803436D01*
X166628615Y-112612167D01*
X166629395Y-112611000D01*
X166743635Y-112440027D01*
X166890027Y-112293635D01*
X167062165Y-112178616D01*
X167062167Y-112178615D01*
X167253436Y-112099389D01*
X167456484Y-112059000D01*
X167663516Y-112059000D01*
X167866564Y-112099389D01*
X167866564Y-112099389D01*
G37*
G36*
X162866564Y-112099389D02*
G01*
X163057833Y-112178615D01*
X163057835Y-112178616D01*
X163229973Y-112293635D01*
X163376365Y-112440027D01*
X163490606Y-112611000D01*
X163491385Y-112612167D01*
X163570611Y-112803436D01*
X163611000Y-113006484D01*
X163611000Y-113213516D01*
X163570611Y-113416564D01*
X163491385Y-113607833D01*
X163491384Y-113607835D01*
X163376365Y-113779973D01*
X163229973Y-113926365D01*
X163057835Y-114041384D01*
X163057834Y-114041385D01*
X163057833Y-114041385D01*
X162866564Y-114120611D01*
X162663516Y-114161000D01*
X162456484Y-114161000D01*
X162253436Y-114120611D01*
X162062167Y-114041385D01*
X162062166Y-114041385D01*
X162062165Y-114041384D01*
X161890027Y-113926365D01*
X161743635Y-113779973D01*
X161628616Y-113607835D01*
X161628615Y-113607833D01*
X161549389Y-113416564D01*
X161509000Y-113213516D01*
X161509000Y-113006484D01*
X161549389Y-112803436D01*
X161628615Y-112612167D01*
X161629395Y-112611000D01*
X161743635Y-112440027D01*
X161890027Y-112293635D01*
X162062165Y-112178616D01*
X162062167Y-112178615D01*
X162253436Y-112099389D01*
X162456484Y-112059000D01*
X162663516Y-112059000D01*
X162866564Y-112099389D01*
X162866564Y-112099389D01*
G37*
G36*
X123416564Y-112099389D02*
G01*
X123607833Y-112178615D01*
X123607835Y-112178616D01*
X123779973Y-112293635D01*
X123926365Y-112440027D01*
X124040606Y-112611000D01*
X124041385Y-112612167D01*
X124120611Y-112803436D01*
X124161000Y-113006484D01*
X124161000Y-113213516D01*
X124120611Y-113416564D01*
X124041385Y-113607833D01*
X124041384Y-113607835D01*
X123926365Y-113779973D01*
X123779973Y-113926365D01*
X123607835Y-114041384D01*
X123607834Y-114041385D01*
X123607833Y-114041385D01*
X123416564Y-114120611D01*
X123213516Y-114161000D01*
X123006484Y-114161000D01*
X122803436Y-114120611D01*
X122612167Y-114041385D01*
X122612166Y-114041385D01*
X122612165Y-114041384D01*
X122440027Y-113926365D01*
X122293635Y-113779973D01*
X122178616Y-113607835D01*
X122178615Y-113607833D01*
X122099389Y-113416564D01*
X122059000Y-113213516D01*
X122059000Y-113006484D01*
X122099389Y-112803436D01*
X122178615Y-112612167D01*
X122179395Y-112611000D01*
X122293635Y-112440027D01*
X122440027Y-112293635D01*
X122612165Y-112178616D01*
X122612167Y-112178615D01*
X122803436Y-112099389D01*
X123006484Y-112059000D01*
X123213516Y-112059000D01*
X123416564Y-112099389D01*
X123416564Y-112099389D01*
G37*
G36*
X118416564Y-112099389D02*
G01*
X118607833Y-112178615D01*
X118607835Y-112178616D01*
X118779973Y-112293635D01*
X118926365Y-112440027D01*
X119040606Y-112611000D01*
X119041385Y-112612167D01*
X119120611Y-112803436D01*
X119161000Y-113006484D01*
X119161000Y-113213516D01*
X119120611Y-113416564D01*
X119041385Y-113607833D01*
X119041384Y-113607835D01*
X118926365Y-113779973D01*
X118779973Y-113926365D01*
X118607835Y-114041384D01*
X118607834Y-114041385D01*
X118607833Y-114041385D01*
X118416564Y-114120611D01*
X118213516Y-114161000D01*
X118006484Y-114161000D01*
X117803436Y-114120611D01*
X117612167Y-114041385D01*
X117612166Y-114041385D01*
X117612165Y-114041384D01*
X117440027Y-113926365D01*
X117293635Y-113779973D01*
X117178616Y-113607835D01*
X117178615Y-113607833D01*
X117099389Y-113416564D01*
X117059000Y-113213516D01*
X117059000Y-113006484D01*
X117099389Y-112803436D01*
X117178615Y-112612167D01*
X117179395Y-112611000D01*
X117293635Y-112440027D01*
X117440027Y-112293635D01*
X117612165Y-112178616D01*
X117612167Y-112178615D01*
X117803436Y-112099389D01*
X118006484Y-112059000D01*
X118213516Y-112059000D01*
X118416564Y-112099389D01*
X118416564Y-112099389D01*
G37*
G36*
X154993642Y-112259781D02*
G01*
X155075372Y-112293635D01*
X155139416Y-112320163D01*
X155270608Y-112407822D01*
X155382178Y-112519392D01*
X155469837Y-112650584D01*
X155469838Y-112650586D01*
X155530219Y-112796358D01*
X155561000Y-112951107D01*
X155561000Y-113108893D01*
X155530219Y-113263642D01*
X155494862Y-113349000D01*
X155469837Y-113409416D01*
X155382178Y-113540608D01*
X155270608Y-113652178D01*
X155139416Y-113739837D01*
X155139415Y-113739838D01*
X155139414Y-113739838D01*
X154993642Y-113800219D01*
X154838893Y-113831000D01*
X154681107Y-113831000D01*
X154526358Y-113800219D01*
X154380586Y-113739838D01*
X154380585Y-113739838D01*
X154380584Y-113739837D01*
X154249392Y-113652178D01*
X154137822Y-113540608D01*
X154050163Y-113409416D01*
X154025138Y-113349000D01*
X153989781Y-113263642D01*
X153959000Y-113108893D01*
X153959000Y-112951107D01*
X153989781Y-112796358D01*
X154050162Y-112650586D01*
X154050163Y-112650584D01*
X154137822Y-112519392D01*
X154249392Y-112407822D01*
X154380584Y-112320163D01*
X154444628Y-112293635D01*
X154526358Y-112259781D01*
X154681107Y-112229000D01*
X154838893Y-112229000D01*
X154993642Y-112259781D01*
X154993642Y-112259781D01*
G37*
G36*
X150093642Y-112259781D02*
G01*
X150175372Y-112293635D01*
X150239416Y-112320163D01*
X150370608Y-112407822D01*
X150482178Y-112519392D01*
X150569837Y-112650584D01*
X150569838Y-112650586D01*
X150630219Y-112796358D01*
X150661000Y-112951107D01*
X150661000Y-113108893D01*
X150630219Y-113263642D01*
X150594862Y-113349000D01*
X150569837Y-113409416D01*
X150482178Y-113540608D01*
X150370608Y-113652178D01*
X150239416Y-113739837D01*
X150239415Y-113739838D01*
X150239414Y-113739838D01*
X150093642Y-113800219D01*
X149938893Y-113831000D01*
X149781107Y-113831000D01*
X149626358Y-113800219D01*
X149480586Y-113739838D01*
X149480585Y-113739838D01*
X149480584Y-113739837D01*
X149349392Y-113652178D01*
X149237822Y-113540608D01*
X149150163Y-113409416D01*
X149125138Y-113349000D01*
X149089781Y-113263642D01*
X149059000Y-113108893D01*
X149059000Y-112951107D01*
X149089781Y-112796358D01*
X149150162Y-112650586D01*
X149150163Y-112650584D01*
X149237822Y-112519392D01*
X149349392Y-112407822D01*
X149480584Y-112320163D01*
X149544628Y-112293635D01*
X149626358Y-112259781D01*
X149781107Y-112229000D01*
X149938893Y-112229000D01*
X150093642Y-112259781D01*
X150093642Y-112259781D01*
G37*
G36*
X129121000Y-112611000D02*
G01*
X127419000Y-112611000D01*
X127419000Y-110909000D01*
X129121000Y-110909000D01*
X129121000Y-112611000D01*
X129121000Y-112611000D01*
G37*
G36*
X136056823Y-110921313D02*
G01*
X136217242Y-110969976D01*
X136349906Y-111040886D01*
X136365078Y-111048996D01*
X136494659Y-111155341D01*
X136601004Y-111284922D01*
X136601005Y-111284924D01*
X136680024Y-111432758D01*
X136728687Y-111593177D01*
X136745117Y-111760000D01*
X136728687Y-111926823D01*
X136680024Y-112087242D01*
X136609114Y-112219906D01*
X136601004Y-112235078D01*
X136494659Y-112364659D01*
X136365078Y-112471004D01*
X136365076Y-112471005D01*
X136217242Y-112550024D01*
X136056823Y-112598687D01*
X135931804Y-112611000D01*
X135848196Y-112611000D01*
X135723177Y-112598687D01*
X135562758Y-112550024D01*
X135414924Y-112471005D01*
X135414922Y-112471004D01*
X135285341Y-112364659D01*
X135178996Y-112235078D01*
X135170886Y-112219906D01*
X135099976Y-112087242D01*
X135051313Y-111926823D01*
X135034883Y-111760000D01*
X135051313Y-111593177D01*
X135099976Y-111432758D01*
X135178995Y-111284924D01*
X135178996Y-111284922D01*
X135285341Y-111155341D01*
X135414922Y-111048996D01*
X135430094Y-111040886D01*
X135562758Y-110969976D01*
X135723177Y-110921313D01*
X135848196Y-110909000D01*
X135931804Y-110909000D01*
X136056823Y-110921313D01*
X136056823Y-110921313D01*
G37*
G36*
X129706823Y-107111313D02*
G01*
X129867242Y-107159976D01*
X129999906Y-107230886D01*
X130015078Y-107238996D01*
X130144659Y-107345341D01*
X130251004Y-107474922D01*
X130251005Y-107474924D01*
X130330024Y-107622758D01*
X130378687Y-107783177D01*
X130395117Y-107950000D01*
X130378687Y-108116823D01*
X130330024Y-108277242D01*
X130259114Y-108409906D01*
X130251004Y-108425078D01*
X130144659Y-108554659D01*
X130015078Y-108661004D01*
X130015076Y-108661005D01*
X129867242Y-108740024D01*
X129706823Y-108788687D01*
X129581804Y-108801000D01*
X129498196Y-108801000D01*
X129373177Y-108788687D01*
X129212758Y-108740024D01*
X129064924Y-108661005D01*
X129064922Y-108661004D01*
X128935341Y-108554659D01*
X128828996Y-108425078D01*
X128820886Y-108409906D01*
X128749976Y-108277242D01*
X128701313Y-108116823D01*
X128684883Y-107950000D01*
X128701313Y-107783177D01*
X128749976Y-107622758D01*
X128828995Y-107474924D01*
X128828996Y-107474922D01*
X128935341Y-107345341D01*
X129064922Y-107238996D01*
X129080094Y-107230886D01*
X129212758Y-107159976D01*
X129373177Y-107111313D01*
X129498196Y-107099000D01*
X129581804Y-107099000D01*
X129706823Y-107111313D01*
X129706823Y-107111313D01*
G37*
G36*
X160186823Y-107111313D02*
G01*
X160347242Y-107159976D01*
X160479906Y-107230886D01*
X160495078Y-107238996D01*
X160624659Y-107345341D01*
X160731004Y-107474922D01*
X160731005Y-107474924D01*
X160810024Y-107622758D01*
X160858687Y-107783177D01*
X160875117Y-107950000D01*
X160858687Y-108116823D01*
X160810024Y-108277242D01*
X160739114Y-108409906D01*
X160731004Y-108425078D01*
X160624659Y-108554659D01*
X160495078Y-108661004D01*
X160495076Y-108661005D01*
X160347242Y-108740024D01*
X160186823Y-108788687D01*
X160061804Y-108801000D01*
X159978196Y-108801000D01*
X159853177Y-108788687D01*
X159692758Y-108740024D01*
X159544924Y-108661005D01*
X159544922Y-108661004D01*
X159415341Y-108554659D01*
X159308996Y-108425078D01*
X159300886Y-108409906D01*
X159229976Y-108277242D01*
X159181313Y-108116823D01*
X159164883Y-107950000D01*
X159181313Y-107783177D01*
X159229976Y-107622758D01*
X159308995Y-107474924D01*
X159308996Y-107474922D01*
X159415341Y-107345341D01*
X159544922Y-107238996D01*
X159560094Y-107230886D01*
X159692758Y-107159976D01*
X159853177Y-107111313D01*
X159978196Y-107099000D01*
X160061804Y-107099000D01*
X160186823Y-107111313D01*
X160186823Y-107111313D01*
G37*
G36*
X127851000Y-108801000D02*
G01*
X126149000Y-108801000D01*
X126149000Y-107099000D01*
X127851000Y-107099000D01*
X127851000Y-108801000D01*
X127851000Y-108801000D01*
G37*
G36*
X132246823Y-107111313D02*
G01*
X132407242Y-107159976D01*
X132539906Y-107230886D01*
X132555078Y-107238996D01*
X132684659Y-107345341D01*
X132791004Y-107474922D01*
X132791005Y-107474924D01*
X132870024Y-107622758D01*
X132918687Y-107783177D01*
X132935117Y-107950000D01*
X132918687Y-108116823D01*
X132870024Y-108277242D01*
X132799114Y-108409906D01*
X132791004Y-108425078D01*
X132684659Y-108554659D01*
X132555078Y-108661004D01*
X132555076Y-108661005D01*
X132407242Y-108740024D01*
X132246823Y-108788687D01*
X132121804Y-108801000D01*
X132038196Y-108801000D01*
X131913177Y-108788687D01*
X131752758Y-108740024D01*
X131604924Y-108661005D01*
X131604922Y-108661004D01*
X131475341Y-108554659D01*
X131368996Y-108425078D01*
X131360886Y-108409906D01*
X131289976Y-108277242D01*
X131241313Y-108116823D01*
X131224883Y-107950000D01*
X131241313Y-107783177D01*
X131289976Y-107622758D01*
X131368995Y-107474924D01*
X131368996Y-107474922D01*
X131475341Y-107345341D01*
X131604922Y-107238996D01*
X131620094Y-107230886D01*
X131752758Y-107159976D01*
X131913177Y-107111313D01*
X132038196Y-107099000D01*
X132121804Y-107099000D01*
X132246823Y-107111313D01*
X132246823Y-107111313D01*
G37*
G36*
X134786823Y-107111313D02*
G01*
X134947242Y-107159976D01*
X135079906Y-107230886D01*
X135095078Y-107238996D01*
X135224659Y-107345341D01*
X135331004Y-107474922D01*
X135331005Y-107474924D01*
X135410024Y-107622758D01*
X135458687Y-107783177D01*
X135475117Y-107950000D01*
X135458687Y-108116823D01*
X135410024Y-108277242D01*
X135339114Y-108409906D01*
X135331004Y-108425078D01*
X135224659Y-108554659D01*
X135095078Y-108661004D01*
X135095076Y-108661005D01*
X134947242Y-108740024D01*
X134786823Y-108788687D01*
X134661804Y-108801000D01*
X134578196Y-108801000D01*
X134453177Y-108788687D01*
X134292758Y-108740024D01*
X134144924Y-108661005D01*
X134144922Y-108661004D01*
X134015341Y-108554659D01*
X133908996Y-108425078D01*
X133900886Y-108409906D01*
X133829976Y-108277242D01*
X133781313Y-108116823D01*
X133764883Y-107950000D01*
X133781313Y-107783177D01*
X133829976Y-107622758D01*
X133908995Y-107474924D01*
X133908996Y-107474922D01*
X134015341Y-107345341D01*
X134144922Y-107238996D01*
X134160094Y-107230886D01*
X134292758Y-107159976D01*
X134453177Y-107111313D01*
X134578196Y-107099000D01*
X134661804Y-107099000D01*
X134786823Y-107111313D01*
X134786823Y-107111313D01*
G37*
G36*
X137326823Y-107111313D02*
G01*
X137487242Y-107159976D01*
X137619906Y-107230886D01*
X137635078Y-107238996D01*
X137764659Y-107345341D01*
X137871004Y-107474922D01*
X137871005Y-107474924D01*
X137950024Y-107622758D01*
X137998687Y-107783177D01*
X138015117Y-107950000D01*
X137998687Y-108116823D01*
X137950024Y-108277242D01*
X137879114Y-108409906D01*
X137871004Y-108425078D01*
X137764659Y-108554659D01*
X137635078Y-108661004D01*
X137635076Y-108661005D01*
X137487242Y-108740024D01*
X137326823Y-108788687D01*
X137201804Y-108801000D01*
X137118196Y-108801000D01*
X136993177Y-108788687D01*
X136832758Y-108740024D01*
X136684924Y-108661005D01*
X136684922Y-108661004D01*
X136555341Y-108554659D01*
X136448996Y-108425078D01*
X136440886Y-108409906D01*
X136369976Y-108277242D01*
X136321313Y-108116823D01*
X136304883Y-107950000D01*
X136321313Y-107783177D01*
X136369976Y-107622758D01*
X136448995Y-107474924D01*
X136448996Y-107474922D01*
X136555341Y-107345341D01*
X136684922Y-107238996D01*
X136700094Y-107230886D01*
X136832758Y-107159976D01*
X136993177Y-107111313D01*
X137118196Y-107099000D01*
X137201804Y-107099000D01*
X137326823Y-107111313D01*
X137326823Y-107111313D01*
G37*
G36*
X139866823Y-107111313D02*
G01*
X140027242Y-107159976D01*
X140159906Y-107230886D01*
X140175078Y-107238996D01*
X140304659Y-107345341D01*
X140411004Y-107474922D01*
X140411005Y-107474924D01*
X140490024Y-107622758D01*
X140538687Y-107783177D01*
X140555117Y-107950000D01*
X140538687Y-108116823D01*
X140490024Y-108277242D01*
X140419114Y-108409906D01*
X140411004Y-108425078D01*
X140304659Y-108554659D01*
X140175078Y-108661004D01*
X140175076Y-108661005D01*
X140027242Y-108740024D01*
X139866823Y-108788687D01*
X139741804Y-108801000D01*
X139658196Y-108801000D01*
X139533177Y-108788687D01*
X139372758Y-108740024D01*
X139224924Y-108661005D01*
X139224922Y-108661004D01*
X139095341Y-108554659D01*
X138988996Y-108425078D01*
X138980886Y-108409906D01*
X138909976Y-108277242D01*
X138861313Y-108116823D01*
X138844883Y-107950000D01*
X138861313Y-107783177D01*
X138909976Y-107622758D01*
X138988995Y-107474924D01*
X138988996Y-107474922D01*
X139095341Y-107345341D01*
X139224922Y-107238996D01*
X139240094Y-107230886D01*
X139372758Y-107159976D01*
X139533177Y-107111313D01*
X139658196Y-107099000D01*
X139741804Y-107099000D01*
X139866823Y-107111313D01*
X139866823Y-107111313D01*
G37*
G36*
X144946823Y-107111313D02*
G01*
X145107242Y-107159976D01*
X145239906Y-107230886D01*
X145255078Y-107238996D01*
X145384659Y-107345341D01*
X145491004Y-107474922D01*
X145491005Y-107474924D01*
X145570024Y-107622758D01*
X145618687Y-107783177D01*
X145635117Y-107950000D01*
X145618687Y-108116823D01*
X145570024Y-108277242D01*
X145499114Y-108409906D01*
X145491004Y-108425078D01*
X145384659Y-108554659D01*
X145255078Y-108661004D01*
X145255076Y-108661005D01*
X145107242Y-108740024D01*
X144946823Y-108788687D01*
X144821804Y-108801000D01*
X144738196Y-108801000D01*
X144613177Y-108788687D01*
X144452758Y-108740024D01*
X144304924Y-108661005D01*
X144304922Y-108661004D01*
X144175341Y-108554659D01*
X144068996Y-108425078D01*
X144060886Y-108409906D01*
X143989976Y-108277242D01*
X143941313Y-108116823D01*
X143924883Y-107950000D01*
X143941313Y-107783177D01*
X143989976Y-107622758D01*
X144068995Y-107474924D01*
X144068996Y-107474922D01*
X144175341Y-107345341D01*
X144304922Y-107238996D01*
X144320094Y-107230886D01*
X144452758Y-107159976D01*
X144613177Y-107111313D01*
X144738196Y-107099000D01*
X144821804Y-107099000D01*
X144946823Y-107111313D01*
X144946823Y-107111313D01*
G37*
G36*
X147486823Y-107111313D02*
G01*
X147647242Y-107159976D01*
X147779906Y-107230886D01*
X147795078Y-107238996D01*
X147924659Y-107345341D01*
X148031004Y-107474922D01*
X148031005Y-107474924D01*
X148110024Y-107622758D01*
X148158687Y-107783177D01*
X148175117Y-107950000D01*
X148158687Y-108116823D01*
X148110024Y-108277242D01*
X148039114Y-108409906D01*
X148031004Y-108425078D01*
X147924659Y-108554659D01*
X147795078Y-108661004D01*
X147795076Y-108661005D01*
X147647242Y-108740024D01*
X147486823Y-108788687D01*
X147361804Y-108801000D01*
X147278196Y-108801000D01*
X147153177Y-108788687D01*
X146992758Y-108740024D01*
X146844924Y-108661005D01*
X146844922Y-108661004D01*
X146715341Y-108554659D01*
X146608996Y-108425078D01*
X146600886Y-108409906D01*
X146529976Y-108277242D01*
X146481313Y-108116823D01*
X146464883Y-107950000D01*
X146481313Y-107783177D01*
X146529976Y-107622758D01*
X146608995Y-107474924D01*
X146608996Y-107474922D01*
X146715341Y-107345341D01*
X146844922Y-107238996D01*
X146860094Y-107230886D01*
X146992758Y-107159976D01*
X147153177Y-107111313D01*
X147278196Y-107099000D01*
X147361804Y-107099000D01*
X147486823Y-107111313D01*
X147486823Y-107111313D01*
G37*
G36*
X163996823Y-107111313D02*
G01*
X164157242Y-107159976D01*
X164289906Y-107230886D01*
X164305078Y-107238996D01*
X164434659Y-107345341D01*
X164541004Y-107474922D01*
X164541005Y-107474924D01*
X164620024Y-107622758D01*
X164668687Y-107783177D01*
X164685117Y-107950000D01*
X164668687Y-108116823D01*
X164620024Y-108277242D01*
X164549114Y-108409906D01*
X164541004Y-108425078D01*
X164434659Y-108554659D01*
X164305078Y-108661004D01*
X164305076Y-108661005D01*
X164157242Y-108740024D01*
X163996823Y-108788687D01*
X163871804Y-108801000D01*
X163788196Y-108801000D01*
X163663177Y-108788687D01*
X163502758Y-108740024D01*
X163354924Y-108661005D01*
X163354922Y-108661004D01*
X163225341Y-108554659D01*
X163118996Y-108425078D01*
X163110886Y-108409906D01*
X163039976Y-108277242D01*
X162991313Y-108116823D01*
X162974883Y-107950000D01*
X162991313Y-107783177D01*
X163039976Y-107622758D01*
X163118995Y-107474924D01*
X163118996Y-107474922D01*
X163225341Y-107345341D01*
X163354922Y-107238996D01*
X163370094Y-107230886D01*
X163502758Y-107159976D01*
X163663177Y-107111313D01*
X163788196Y-107099000D01*
X163871804Y-107099000D01*
X163996823Y-107111313D01*
X163996823Y-107111313D01*
G37*
G36*
X150026823Y-107111313D02*
G01*
X150187242Y-107159976D01*
X150319906Y-107230886D01*
X150335078Y-107238996D01*
X150464659Y-107345341D01*
X150571004Y-107474922D01*
X150571005Y-107474924D01*
X150650024Y-107622758D01*
X150698687Y-107783177D01*
X150715117Y-107950000D01*
X150698687Y-108116823D01*
X150650024Y-108277242D01*
X150579114Y-108409906D01*
X150571004Y-108425078D01*
X150464659Y-108554659D01*
X150335078Y-108661004D01*
X150335076Y-108661005D01*
X150187242Y-108740024D01*
X150026823Y-108788687D01*
X149901804Y-108801000D01*
X149818196Y-108801000D01*
X149693177Y-108788687D01*
X149532758Y-108740024D01*
X149384924Y-108661005D01*
X149384922Y-108661004D01*
X149255341Y-108554659D01*
X149148996Y-108425078D01*
X149140886Y-108409906D01*
X149069976Y-108277242D01*
X149021313Y-108116823D01*
X149004883Y-107950000D01*
X149021313Y-107783177D01*
X149069976Y-107622758D01*
X149148995Y-107474924D01*
X149148996Y-107474922D01*
X149255341Y-107345341D01*
X149384922Y-107238996D01*
X149400094Y-107230886D01*
X149532758Y-107159976D01*
X149693177Y-107111313D01*
X149818196Y-107099000D01*
X149901804Y-107099000D01*
X150026823Y-107111313D01*
X150026823Y-107111313D01*
G37*
G36*
X155106823Y-107111313D02*
G01*
X155267242Y-107159976D01*
X155399906Y-107230886D01*
X155415078Y-107238996D01*
X155544659Y-107345341D01*
X155651004Y-107474922D01*
X155651005Y-107474924D01*
X155730024Y-107622758D01*
X155778687Y-107783177D01*
X155795117Y-107950000D01*
X155778687Y-108116823D01*
X155730024Y-108277242D01*
X155659114Y-108409906D01*
X155651004Y-108425078D01*
X155544659Y-108554659D01*
X155415078Y-108661004D01*
X155415076Y-108661005D01*
X155267242Y-108740024D01*
X155106823Y-108788687D01*
X154981804Y-108801000D01*
X154898196Y-108801000D01*
X154773177Y-108788687D01*
X154612758Y-108740024D01*
X154464924Y-108661005D01*
X154464922Y-108661004D01*
X154335341Y-108554659D01*
X154228996Y-108425078D01*
X154220886Y-108409906D01*
X154149976Y-108277242D01*
X154101313Y-108116823D01*
X154084883Y-107950000D01*
X154101313Y-107783177D01*
X154149976Y-107622758D01*
X154228995Y-107474924D01*
X154228996Y-107474922D01*
X154335341Y-107345341D01*
X154464922Y-107238996D01*
X154480094Y-107230886D01*
X154612758Y-107159976D01*
X154773177Y-107111313D01*
X154898196Y-107099000D01*
X154981804Y-107099000D01*
X155106823Y-107111313D01*
X155106823Y-107111313D01*
G37*
G36*
X152566823Y-107111313D02*
G01*
X152727242Y-107159976D01*
X152859906Y-107230886D01*
X152875078Y-107238996D01*
X153004659Y-107345341D01*
X153111004Y-107474922D01*
X153111005Y-107474924D01*
X153190024Y-107622758D01*
X153238687Y-107783177D01*
X153255117Y-107950000D01*
X153238687Y-108116823D01*
X153190024Y-108277242D01*
X153119114Y-108409906D01*
X153111004Y-108425078D01*
X153004659Y-108554659D01*
X152875078Y-108661004D01*
X152875076Y-108661005D01*
X152727242Y-108740024D01*
X152566823Y-108788687D01*
X152441804Y-108801000D01*
X152358196Y-108801000D01*
X152233177Y-108788687D01*
X152072758Y-108740024D01*
X151924924Y-108661005D01*
X151924922Y-108661004D01*
X151795341Y-108554659D01*
X151688996Y-108425078D01*
X151680886Y-108409906D01*
X151609976Y-108277242D01*
X151561313Y-108116823D01*
X151544883Y-107950000D01*
X151561313Y-107783177D01*
X151609976Y-107622758D01*
X151688995Y-107474924D01*
X151688996Y-107474922D01*
X151795341Y-107345341D01*
X151924922Y-107238996D01*
X151940094Y-107230886D01*
X152072758Y-107159976D01*
X152233177Y-107111313D01*
X152358196Y-107099000D01*
X152441804Y-107099000D01*
X152566823Y-107111313D01*
X152566823Y-107111313D01*
G37*
G36*
X157646823Y-107111313D02*
G01*
X157807242Y-107159976D01*
X157939906Y-107230886D01*
X157955078Y-107238996D01*
X158084659Y-107345341D01*
X158191004Y-107474922D01*
X158191005Y-107474924D01*
X158270024Y-107622758D01*
X158318687Y-107783177D01*
X158335117Y-107950000D01*
X158318687Y-108116823D01*
X158270024Y-108277242D01*
X158199114Y-108409906D01*
X158191004Y-108425078D01*
X158084659Y-108554659D01*
X157955078Y-108661004D01*
X157955076Y-108661005D01*
X157807242Y-108740024D01*
X157646823Y-108788687D01*
X157521804Y-108801000D01*
X157438196Y-108801000D01*
X157313177Y-108788687D01*
X157152758Y-108740024D01*
X157004924Y-108661005D01*
X157004922Y-108661004D01*
X156875341Y-108554659D01*
X156768996Y-108425078D01*
X156760886Y-108409906D01*
X156689976Y-108277242D01*
X156641313Y-108116823D01*
X156624883Y-107950000D01*
X156641313Y-107783177D01*
X156689976Y-107622758D01*
X156768995Y-107474924D01*
X156768996Y-107474922D01*
X156875341Y-107345341D01*
X157004922Y-107238996D01*
X157020094Y-107230886D01*
X157152758Y-107159976D01*
X157313177Y-107111313D01*
X157438196Y-107099000D01*
X157521804Y-107099000D01*
X157646823Y-107111313D01*
X157646823Y-107111313D01*
G37*
G36*
X142406823Y-107111313D02*
G01*
X142567242Y-107159976D01*
X142699906Y-107230886D01*
X142715078Y-107238996D01*
X142844659Y-107345341D01*
X142951004Y-107474922D01*
X142951005Y-107474924D01*
X143030024Y-107622758D01*
X143078687Y-107783177D01*
X143095117Y-107950000D01*
X143078687Y-108116823D01*
X143030024Y-108277242D01*
X142959114Y-108409906D01*
X142951004Y-108425078D01*
X142844659Y-108554659D01*
X142715078Y-108661004D01*
X142715076Y-108661005D01*
X142567242Y-108740024D01*
X142406823Y-108788687D01*
X142281804Y-108801000D01*
X142198196Y-108801000D01*
X142073177Y-108788687D01*
X141912758Y-108740024D01*
X141764924Y-108661005D01*
X141764922Y-108661004D01*
X141635341Y-108554659D01*
X141528996Y-108425078D01*
X141520886Y-108409906D01*
X141449976Y-108277242D01*
X141401313Y-108116823D01*
X141384883Y-107950000D01*
X141401313Y-107783177D01*
X141449976Y-107622758D01*
X141528995Y-107474924D01*
X141528996Y-107474922D01*
X141635341Y-107345341D01*
X141764922Y-107238996D01*
X141780094Y-107230886D01*
X141912758Y-107159976D01*
X142073177Y-107111313D01*
X142198196Y-107099000D01*
X142281804Y-107099000D01*
X142406823Y-107111313D01*
X142406823Y-107111313D01*
G37*
G36*
X114410443Y-105785519D02*
G01*
X114476627Y-105792037D01*
X114646466Y-105843557D01*
X114802991Y-105927222D01*
X114838729Y-105956552D01*
X114940186Y-106039814D01*
X115020369Y-106137519D01*
X115052778Y-106177009D01*
X115136443Y-106333534D01*
X115187963Y-106503373D01*
X115205359Y-106680000D01*
X115187963Y-106856627D01*
X115136443Y-107026466D01*
X115052778Y-107182991D01*
X115023448Y-107218729D01*
X114940186Y-107320186D01*
X114838729Y-107403448D01*
X114802991Y-107432778D01*
X114646466Y-107516443D01*
X114476627Y-107567963D01*
X114410443Y-107574481D01*
X114344260Y-107581000D01*
X114255740Y-107581000D01*
X114189557Y-107574481D01*
X114123373Y-107567963D01*
X113953534Y-107516443D01*
X113797009Y-107432778D01*
X113761271Y-107403448D01*
X113659814Y-107320186D01*
X113576552Y-107218729D01*
X113547222Y-107182991D01*
X113463557Y-107026466D01*
X113412037Y-106856627D01*
X113394641Y-106680000D01*
X113412037Y-106503373D01*
X113463557Y-106333534D01*
X113547222Y-106177009D01*
X113579631Y-106137519D01*
X113659814Y-106039814D01*
X113761271Y-105956552D01*
X113797009Y-105927222D01*
X113953534Y-105843557D01*
X114123373Y-105792037D01*
X114189557Y-105785519D01*
X114255740Y-105779000D01*
X114344260Y-105779000D01*
X114410443Y-105785519D01*
X114410443Y-105785519D01*
G37*
G36*
X118961000Y-107531000D02*
G01*
X117259000Y-107531000D01*
X117259000Y-105829000D01*
X118961000Y-105829000D01*
X118961000Y-107531000D01*
X118961000Y-107531000D01*
G37*
G36*
X120816823Y-105841313D02*
G01*
X120977242Y-105889976D01*
X121044361Y-105925852D01*
X121125078Y-105968996D01*
X121254659Y-106075341D01*
X121361004Y-106204922D01*
X121361005Y-106204924D01*
X121440024Y-106352758D01*
X121488687Y-106513177D01*
X121505117Y-106680000D01*
X121488687Y-106846823D01*
X121440024Y-107007242D01*
X121399477Y-107083100D01*
X121361004Y-107155078D01*
X121254659Y-107284659D01*
X121125078Y-107391004D01*
X121125076Y-107391005D01*
X120977242Y-107470024D01*
X120816823Y-107518687D01*
X120691804Y-107531000D01*
X120608196Y-107531000D01*
X120483177Y-107518687D01*
X120322758Y-107470024D01*
X120174924Y-107391005D01*
X120174922Y-107391004D01*
X120045341Y-107284659D01*
X119938996Y-107155078D01*
X119900523Y-107083100D01*
X119859976Y-107007242D01*
X119811313Y-106846823D01*
X119794883Y-106680000D01*
X119811313Y-106513177D01*
X119859976Y-106352758D01*
X119938995Y-106204924D01*
X119938996Y-106204922D01*
X120045341Y-106075341D01*
X120174922Y-105968996D01*
X120255639Y-105925852D01*
X120322758Y-105889976D01*
X120483177Y-105841313D01*
X120608196Y-105829000D01*
X120691804Y-105829000D01*
X120816823Y-105841313D01*
X120816823Y-105841313D01*
G37*
G36*
X123438228Y-105861703D02*
G01*
X123593100Y-105925853D01*
X123732481Y-106018985D01*
X123851015Y-106137519D01*
X123944147Y-106276900D01*
X124008297Y-106431772D01*
X124041000Y-106596184D01*
X124041000Y-106763816D01*
X124008297Y-106928228D01*
X123944147Y-107083100D01*
X123851015Y-107222481D01*
X123732481Y-107341015D01*
X123593100Y-107434147D01*
X123438228Y-107498297D01*
X123273816Y-107531000D01*
X123106184Y-107531000D01*
X122941772Y-107498297D01*
X122786900Y-107434147D01*
X122647519Y-107341015D01*
X122528985Y-107222481D01*
X122435853Y-107083100D01*
X122371703Y-106928228D01*
X122339000Y-106763816D01*
X122339000Y-106596184D01*
X122371703Y-106431772D01*
X122435853Y-106276900D01*
X122528985Y-106137519D01*
X122647519Y-106018985D01*
X122786900Y-105925853D01*
X122941772Y-105861703D01*
X123106184Y-105829000D01*
X123273816Y-105829000D01*
X123438228Y-105861703D01*
X123438228Y-105861703D01*
G37*
G36*
X115201000Y-105041000D02*
G01*
X113399000Y-105041000D01*
X113399000Y-103239000D01*
X115201000Y-103239000D01*
X115201000Y-105041000D01*
X115201000Y-105041000D01*
G37*
G36*
X123438228Y-100861703D02*
G01*
X123593100Y-100925853D01*
X123732481Y-101018985D01*
X123851015Y-101137519D01*
X123944147Y-101276900D01*
X124008297Y-101431772D01*
X124041000Y-101596184D01*
X124041000Y-101763816D01*
X124008297Y-101928228D01*
X123944147Y-102083100D01*
X123851015Y-102222481D01*
X123732481Y-102341015D01*
X123593100Y-102434147D01*
X123438228Y-102498297D01*
X123273816Y-102531000D01*
X123106184Y-102531000D01*
X122941772Y-102498297D01*
X122786900Y-102434147D01*
X122647519Y-102341015D01*
X122528985Y-102222481D01*
X122435853Y-102083100D01*
X122371703Y-101928228D01*
X122339000Y-101763816D01*
X122339000Y-101596184D01*
X122371703Y-101431772D01*
X122435853Y-101276900D01*
X122528985Y-101137519D01*
X122647519Y-101018985D01*
X122786900Y-100925853D01*
X122941772Y-100861703D01*
X123106184Y-100829000D01*
X123273816Y-100829000D01*
X123438228Y-100861703D01*
X123438228Y-100861703D01*
G37*
G36*
X142406823Y-99491313D02*
G01*
X142567242Y-99539976D01*
X142699906Y-99610886D01*
X142715078Y-99618996D01*
X142844659Y-99725341D01*
X142951004Y-99854922D01*
X142951005Y-99854924D01*
X143030024Y-100002758D01*
X143078687Y-100163177D01*
X143095117Y-100330000D01*
X143078687Y-100496823D01*
X143030024Y-100657242D01*
X142959114Y-100789906D01*
X142951004Y-100805078D01*
X142844659Y-100934659D01*
X142715078Y-101041004D01*
X142715076Y-101041005D01*
X142567242Y-101120024D01*
X142406823Y-101168687D01*
X142281804Y-101181000D01*
X142198196Y-101181000D01*
X142073177Y-101168687D01*
X141912758Y-101120024D01*
X141764924Y-101041005D01*
X141764922Y-101041004D01*
X141635341Y-100934659D01*
X141528996Y-100805078D01*
X141520886Y-100789906D01*
X141449976Y-100657242D01*
X141401313Y-100496823D01*
X141384883Y-100330000D01*
X141401313Y-100163177D01*
X141449976Y-100002758D01*
X141528995Y-99854924D01*
X141528996Y-99854922D01*
X141635341Y-99725341D01*
X141764922Y-99618996D01*
X141780094Y-99610886D01*
X141912758Y-99539976D01*
X142073177Y-99491313D01*
X142198196Y-99479000D01*
X142281804Y-99479000D01*
X142406823Y-99491313D01*
X142406823Y-99491313D01*
G37*
G36*
X132246823Y-99491313D02*
G01*
X132407242Y-99539976D01*
X132539906Y-99610886D01*
X132555078Y-99618996D01*
X132684659Y-99725341D01*
X132791004Y-99854922D01*
X132791005Y-99854924D01*
X132870024Y-100002758D01*
X132918687Y-100163177D01*
X132935117Y-100330000D01*
X132918687Y-100496823D01*
X132870024Y-100657242D01*
X132799114Y-100789906D01*
X132791004Y-100805078D01*
X132684659Y-100934659D01*
X132555078Y-101041004D01*
X132555076Y-101041005D01*
X132407242Y-101120024D01*
X132246823Y-101168687D01*
X132121804Y-101181000D01*
X132038196Y-101181000D01*
X131913177Y-101168687D01*
X131752758Y-101120024D01*
X131604924Y-101041005D01*
X131604922Y-101041004D01*
X131475341Y-100934659D01*
X131368996Y-100805078D01*
X131360886Y-100789906D01*
X131289976Y-100657242D01*
X131241313Y-100496823D01*
X131224883Y-100330000D01*
X131241313Y-100163177D01*
X131289976Y-100002758D01*
X131368995Y-99854924D01*
X131368996Y-99854922D01*
X131475341Y-99725341D01*
X131604922Y-99618996D01*
X131620094Y-99610886D01*
X131752758Y-99539976D01*
X131913177Y-99491313D01*
X132038196Y-99479000D01*
X132121804Y-99479000D01*
X132246823Y-99491313D01*
X132246823Y-99491313D01*
G37*
G36*
X134786823Y-99491313D02*
G01*
X134947242Y-99539976D01*
X135079906Y-99610886D01*
X135095078Y-99618996D01*
X135224659Y-99725341D01*
X135331004Y-99854922D01*
X135331005Y-99854924D01*
X135410024Y-100002758D01*
X135458687Y-100163177D01*
X135475117Y-100330000D01*
X135458687Y-100496823D01*
X135410024Y-100657242D01*
X135339114Y-100789906D01*
X135331004Y-100805078D01*
X135224659Y-100934659D01*
X135095078Y-101041004D01*
X135095076Y-101041005D01*
X134947242Y-101120024D01*
X134786823Y-101168687D01*
X134661804Y-101181000D01*
X134578196Y-101181000D01*
X134453177Y-101168687D01*
X134292758Y-101120024D01*
X134144924Y-101041005D01*
X134144922Y-101041004D01*
X134015341Y-100934659D01*
X133908996Y-100805078D01*
X133900886Y-100789906D01*
X133829976Y-100657242D01*
X133781313Y-100496823D01*
X133764883Y-100330000D01*
X133781313Y-100163177D01*
X133829976Y-100002758D01*
X133908995Y-99854924D01*
X133908996Y-99854922D01*
X134015341Y-99725341D01*
X134144922Y-99618996D01*
X134160094Y-99610886D01*
X134292758Y-99539976D01*
X134453177Y-99491313D01*
X134578196Y-99479000D01*
X134661804Y-99479000D01*
X134786823Y-99491313D01*
X134786823Y-99491313D01*
G37*
G36*
X127166823Y-99491313D02*
G01*
X127327242Y-99539976D01*
X127459906Y-99610886D01*
X127475078Y-99618996D01*
X127604659Y-99725341D01*
X127711004Y-99854922D01*
X127711005Y-99854924D01*
X127790024Y-100002758D01*
X127838687Y-100163177D01*
X127855117Y-100330000D01*
X127838687Y-100496823D01*
X127790024Y-100657242D01*
X127719114Y-100789906D01*
X127711004Y-100805078D01*
X127604659Y-100934659D01*
X127475078Y-101041004D01*
X127475076Y-101041005D01*
X127327242Y-101120024D01*
X127166823Y-101168687D01*
X127041804Y-101181000D01*
X126958196Y-101181000D01*
X126833177Y-101168687D01*
X126672758Y-101120024D01*
X126524924Y-101041005D01*
X126524922Y-101041004D01*
X126395341Y-100934659D01*
X126288996Y-100805078D01*
X126280886Y-100789906D01*
X126209976Y-100657242D01*
X126161313Y-100496823D01*
X126144883Y-100330000D01*
X126161313Y-100163177D01*
X126209976Y-100002758D01*
X126288995Y-99854924D01*
X126288996Y-99854922D01*
X126395341Y-99725341D01*
X126524922Y-99618996D01*
X126540094Y-99610886D01*
X126672758Y-99539976D01*
X126833177Y-99491313D01*
X126958196Y-99479000D01*
X127041804Y-99479000D01*
X127166823Y-99491313D01*
X127166823Y-99491313D01*
G37*
G36*
X137326823Y-99491313D02*
G01*
X137487242Y-99539976D01*
X137619906Y-99610886D01*
X137635078Y-99618996D01*
X137764659Y-99725341D01*
X137871004Y-99854922D01*
X137871005Y-99854924D01*
X137950024Y-100002758D01*
X137998687Y-100163177D01*
X138015117Y-100330000D01*
X137998687Y-100496823D01*
X137950024Y-100657242D01*
X137879114Y-100789906D01*
X137871004Y-100805078D01*
X137764659Y-100934659D01*
X137635078Y-101041004D01*
X137635076Y-101041005D01*
X137487242Y-101120024D01*
X137326823Y-101168687D01*
X137201804Y-101181000D01*
X137118196Y-101181000D01*
X136993177Y-101168687D01*
X136832758Y-101120024D01*
X136684924Y-101041005D01*
X136684922Y-101041004D01*
X136555341Y-100934659D01*
X136448996Y-100805078D01*
X136440886Y-100789906D01*
X136369976Y-100657242D01*
X136321313Y-100496823D01*
X136304883Y-100330000D01*
X136321313Y-100163177D01*
X136369976Y-100002758D01*
X136448995Y-99854924D01*
X136448996Y-99854922D01*
X136555341Y-99725341D01*
X136684922Y-99618996D01*
X136700094Y-99610886D01*
X136832758Y-99539976D01*
X136993177Y-99491313D01*
X137118196Y-99479000D01*
X137201804Y-99479000D01*
X137326823Y-99491313D01*
X137326823Y-99491313D01*
G37*
G36*
X139866823Y-99491313D02*
G01*
X140027242Y-99539976D01*
X140159906Y-99610886D01*
X140175078Y-99618996D01*
X140304659Y-99725341D01*
X140411004Y-99854922D01*
X140411005Y-99854924D01*
X140490024Y-100002758D01*
X140538687Y-100163177D01*
X140555117Y-100330000D01*
X140538687Y-100496823D01*
X140490024Y-100657242D01*
X140419114Y-100789906D01*
X140411004Y-100805078D01*
X140304659Y-100934659D01*
X140175078Y-101041004D01*
X140175076Y-101041005D01*
X140027242Y-101120024D01*
X139866823Y-101168687D01*
X139741804Y-101181000D01*
X139658196Y-101181000D01*
X139533177Y-101168687D01*
X139372758Y-101120024D01*
X139224924Y-101041005D01*
X139224922Y-101041004D01*
X139095341Y-100934659D01*
X138988996Y-100805078D01*
X138980886Y-100789906D01*
X138909976Y-100657242D01*
X138861313Y-100496823D01*
X138844883Y-100330000D01*
X138861313Y-100163177D01*
X138909976Y-100002758D01*
X138988995Y-99854924D01*
X138988996Y-99854922D01*
X139095341Y-99725341D01*
X139224922Y-99618996D01*
X139240094Y-99610886D01*
X139372758Y-99539976D01*
X139533177Y-99491313D01*
X139658196Y-99479000D01*
X139741804Y-99479000D01*
X139866823Y-99491313D01*
X139866823Y-99491313D01*
G37*
G36*
X129706823Y-99491313D02*
G01*
X129867242Y-99539976D01*
X129999906Y-99610886D01*
X130015078Y-99618996D01*
X130144659Y-99725341D01*
X130251004Y-99854922D01*
X130251005Y-99854924D01*
X130330024Y-100002758D01*
X130378687Y-100163177D01*
X130395117Y-100330000D01*
X130378687Y-100496823D01*
X130330024Y-100657242D01*
X130259114Y-100789906D01*
X130251004Y-100805078D01*
X130144659Y-100934659D01*
X130015078Y-101041004D01*
X130015076Y-101041005D01*
X129867242Y-101120024D01*
X129706823Y-101168687D01*
X129581804Y-101181000D01*
X129498196Y-101181000D01*
X129373177Y-101168687D01*
X129212758Y-101120024D01*
X129064924Y-101041005D01*
X129064922Y-101041004D01*
X128935341Y-100934659D01*
X128828996Y-100805078D01*
X128820886Y-100789906D01*
X128749976Y-100657242D01*
X128701313Y-100496823D01*
X128684883Y-100330000D01*
X128701313Y-100163177D01*
X128749976Y-100002758D01*
X128828995Y-99854924D01*
X128828996Y-99854922D01*
X128935341Y-99725341D01*
X129064922Y-99618996D01*
X129080094Y-99610886D01*
X129212758Y-99539976D01*
X129373177Y-99491313D01*
X129498196Y-99479000D01*
X129581804Y-99479000D01*
X129706823Y-99491313D01*
X129706823Y-99491313D01*
G37*
G36*
X147486823Y-99491313D02*
G01*
X147647242Y-99539976D01*
X147779906Y-99610886D01*
X147795078Y-99618996D01*
X147924659Y-99725341D01*
X148031004Y-99854922D01*
X148031005Y-99854924D01*
X148110024Y-100002758D01*
X148158687Y-100163177D01*
X148175117Y-100330000D01*
X148158687Y-100496823D01*
X148110024Y-100657242D01*
X148039114Y-100789906D01*
X148031004Y-100805078D01*
X147924659Y-100934659D01*
X147795078Y-101041004D01*
X147795076Y-101041005D01*
X147647242Y-101120024D01*
X147486823Y-101168687D01*
X147361804Y-101181000D01*
X147278196Y-101181000D01*
X147153177Y-101168687D01*
X146992758Y-101120024D01*
X146844924Y-101041005D01*
X146844922Y-101041004D01*
X146715341Y-100934659D01*
X146608996Y-100805078D01*
X146600886Y-100789906D01*
X146529976Y-100657242D01*
X146481313Y-100496823D01*
X146464883Y-100330000D01*
X146481313Y-100163177D01*
X146529976Y-100002758D01*
X146608995Y-99854924D01*
X146608996Y-99854922D01*
X146715341Y-99725341D01*
X146844922Y-99618996D01*
X146860094Y-99610886D01*
X146992758Y-99539976D01*
X147153177Y-99491313D01*
X147278196Y-99479000D01*
X147361804Y-99479000D01*
X147486823Y-99491313D01*
X147486823Y-99491313D01*
G37*
G36*
X160186823Y-99491313D02*
G01*
X160347242Y-99539976D01*
X160479906Y-99610886D01*
X160495078Y-99618996D01*
X160624659Y-99725341D01*
X160731004Y-99854922D01*
X160731005Y-99854924D01*
X160810024Y-100002758D01*
X160858687Y-100163177D01*
X160875117Y-100330000D01*
X160858687Y-100496823D01*
X160810024Y-100657242D01*
X160739114Y-100789906D01*
X160731004Y-100805078D01*
X160624659Y-100934659D01*
X160495078Y-101041004D01*
X160495076Y-101041005D01*
X160347242Y-101120024D01*
X160186823Y-101168687D01*
X160061804Y-101181000D01*
X159978196Y-101181000D01*
X159853177Y-101168687D01*
X159692758Y-101120024D01*
X159544924Y-101041005D01*
X159544922Y-101041004D01*
X159415341Y-100934659D01*
X159308996Y-100805078D01*
X159300886Y-100789906D01*
X159229976Y-100657242D01*
X159181313Y-100496823D01*
X159164883Y-100330000D01*
X159181313Y-100163177D01*
X159229976Y-100002758D01*
X159308995Y-99854924D01*
X159308996Y-99854922D01*
X159415341Y-99725341D01*
X159544922Y-99618996D01*
X159560094Y-99610886D01*
X159692758Y-99539976D01*
X159853177Y-99491313D01*
X159978196Y-99479000D01*
X160061804Y-99479000D01*
X160186823Y-99491313D01*
X160186823Y-99491313D01*
G37*
G36*
X144946823Y-99491313D02*
G01*
X145107242Y-99539976D01*
X145239906Y-99610886D01*
X145255078Y-99618996D01*
X145384659Y-99725341D01*
X145491004Y-99854922D01*
X145491005Y-99854924D01*
X145570024Y-100002758D01*
X145618687Y-100163177D01*
X145635117Y-100330000D01*
X145618687Y-100496823D01*
X145570024Y-100657242D01*
X145499114Y-100789906D01*
X145491004Y-100805078D01*
X145384659Y-100934659D01*
X145255078Y-101041004D01*
X145255076Y-101041005D01*
X145107242Y-101120024D01*
X144946823Y-101168687D01*
X144821804Y-101181000D01*
X144738196Y-101181000D01*
X144613177Y-101168687D01*
X144452758Y-101120024D01*
X144304924Y-101041005D01*
X144304922Y-101041004D01*
X144175341Y-100934659D01*
X144068996Y-100805078D01*
X144060886Y-100789906D01*
X143989976Y-100657242D01*
X143941313Y-100496823D01*
X143924883Y-100330000D01*
X143941313Y-100163177D01*
X143989976Y-100002758D01*
X144068995Y-99854924D01*
X144068996Y-99854922D01*
X144175341Y-99725341D01*
X144304922Y-99618996D01*
X144320094Y-99610886D01*
X144452758Y-99539976D01*
X144613177Y-99491313D01*
X144738196Y-99479000D01*
X144821804Y-99479000D01*
X144946823Y-99491313D01*
X144946823Y-99491313D01*
G37*
G36*
X150026823Y-99491313D02*
G01*
X150187242Y-99539976D01*
X150319906Y-99610886D01*
X150335078Y-99618996D01*
X150464659Y-99725341D01*
X150571004Y-99854922D01*
X150571005Y-99854924D01*
X150650024Y-100002758D01*
X150698687Y-100163177D01*
X150715117Y-100330000D01*
X150698687Y-100496823D01*
X150650024Y-100657242D01*
X150579114Y-100789906D01*
X150571004Y-100805078D01*
X150464659Y-100934659D01*
X150335078Y-101041004D01*
X150335076Y-101041005D01*
X150187242Y-101120024D01*
X150026823Y-101168687D01*
X149901804Y-101181000D01*
X149818196Y-101181000D01*
X149693177Y-101168687D01*
X149532758Y-101120024D01*
X149384924Y-101041005D01*
X149384922Y-101041004D01*
X149255341Y-100934659D01*
X149148996Y-100805078D01*
X149140886Y-100789906D01*
X149069976Y-100657242D01*
X149021313Y-100496823D01*
X149004883Y-100330000D01*
X149021313Y-100163177D01*
X149069976Y-100002758D01*
X149148995Y-99854924D01*
X149148996Y-99854922D01*
X149255341Y-99725341D01*
X149384922Y-99618996D01*
X149400094Y-99610886D01*
X149532758Y-99539976D01*
X149693177Y-99491313D01*
X149818196Y-99479000D01*
X149901804Y-99479000D01*
X150026823Y-99491313D01*
X150026823Y-99491313D01*
G37*
G36*
X155106823Y-99491313D02*
G01*
X155267242Y-99539976D01*
X155399906Y-99610886D01*
X155415078Y-99618996D01*
X155544659Y-99725341D01*
X155651004Y-99854922D01*
X155651005Y-99854924D01*
X155730024Y-100002758D01*
X155778687Y-100163177D01*
X155795117Y-100330000D01*
X155778687Y-100496823D01*
X155730024Y-100657242D01*
X155659114Y-100789906D01*
X155651004Y-100805078D01*
X155544659Y-100934659D01*
X155415078Y-101041004D01*
X155415076Y-101041005D01*
X155267242Y-101120024D01*
X155106823Y-101168687D01*
X154981804Y-101181000D01*
X154898196Y-101181000D01*
X154773177Y-101168687D01*
X154612758Y-101120024D01*
X154464924Y-101041005D01*
X154464922Y-101041004D01*
X154335341Y-100934659D01*
X154228996Y-100805078D01*
X154220886Y-100789906D01*
X154149976Y-100657242D01*
X154101313Y-100496823D01*
X154084883Y-100330000D01*
X154101313Y-100163177D01*
X154149976Y-100002758D01*
X154228995Y-99854924D01*
X154228996Y-99854922D01*
X154335341Y-99725341D01*
X154464922Y-99618996D01*
X154480094Y-99610886D01*
X154612758Y-99539976D01*
X154773177Y-99491313D01*
X154898196Y-99479000D01*
X154981804Y-99479000D01*
X155106823Y-99491313D01*
X155106823Y-99491313D01*
G37*
G36*
X157646823Y-99491313D02*
G01*
X157807242Y-99539976D01*
X157939906Y-99610886D01*
X157955078Y-99618996D01*
X158084659Y-99725341D01*
X158191004Y-99854922D01*
X158191005Y-99854924D01*
X158270024Y-100002758D01*
X158318687Y-100163177D01*
X158335117Y-100330000D01*
X158318687Y-100496823D01*
X158270024Y-100657242D01*
X158199114Y-100789906D01*
X158191004Y-100805078D01*
X158084659Y-100934659D01*
X157955078Y-101041004D01*
X157955076Y-101041005D01*
X157807242Y-101120024D01*
X157646823Y-101168687D01*
X157521804Y-101181000D01*
X157438196Y-101181000D01*
X157313177Y-101168687D01*
X157152758Y-101120024D01*
X157004924Y-101041005D01*
X157004922Y-101041004D01*
X156875341Y-100934659D01*
X156768996Y-100805078D01*
X156760886Y-100789906D01*
X156689976Y-100657242D01*
X156641313Y-100496823D01*
X156624883Y-100330000D01*
X156641313Y-100163177D01*
X156689976Y-100002758D01*
X156768995Y-99854924D01*
X156768996Y-99854922D01*
X156875341Y-99725341D01*
X157004922Y-99618996D01*
X157020094Y-99610886D01*
X157152758Y-99539976D01*
X157313177Y-99491313D01*
X157438196Y-99479000D01*
X157521804Y-99479000D01*
X157646823Y-99491313D01*
X157646823Y-99491313D01*
G37*
G36*
X152566823Y-99491313D02*
G01*
X152727242Y-99539976D01*
X152859906Y-99610886D01*
X152875078Y-99618996D01*
X153004659Y-99725341D01*
X153111004Y-99854922D01*
X153111005Y-99854924D01*
X153190024Y-100002758D01*
X153238687Y-100163177D01*
X153255117Y-100330000D01*
X153238687Y-100496823D01*
X153190024Y-100657242D01*
X153119114Y-100789906D01*
X153111004Y-100805078D01*
X153004659Y-100934659D01*
X152875078Y-101041004D01*
X152875076Y-101041005D01*
X152727242Y-101120024D01*
X152566823Y-101168687D01*
X152441804Y-101181000D01*
X152358196Y-101181000D01*
X152233177Y-101168687D01*
X152072758Y-101120024D01*
X151924924Y-101041005D01*
X151924922Y-101041004D01*
X151795341Y-100934659D01*
X151688996Y-100805078D01*
X151680886Y-100789906D01*
X151609976Y-100657242D01*
X151561313Y-100496823D01*
X151544883Y-100330000D01*
X151561313Y-100163177D01*
X151609976Y-100002758D01*
X151688995Y-99854924D01*
X151688996Y-99854922D01*
X151795341Y-99725341D01*
X151924922Y-99618996D01*
X151940094Y-99610886D01*
X152072758Y-99539976D01*
X152233177Y-99491313D01*
X152358196Y-99479000D01*
X152441804Y-99479000D01*
X152566823Y-99491313D01*
X152566823Y-99491313D01*
G37*
G36*
X118276823Y-98221313D02*
G01*
X118437242Y-98269976D01*
X118569906Y-98340886D01*
X118585078Y-98348996D01*
X118714659Y-98455341D01*
X118821004Y-98584922D01*
X118821005Y-98584924D01*
X118900024Y-98732758D01*
X118948687Y-98893177D01*
X118965117Y-99060000D01*
X118948687Y-99226823D01*
X118900024Y-99387242D01*
X118850978Y-99479000D01*
X118821004Y-99535078D01*
X118714659Y-99664659D01*
X118585078Y-99771004D01*
X118585076Y-99771005D01*
X118437242Y-99850024D01*
X118276823Y-99898687D01*
X118151804Y-99911000D01*
X118068196Y-99911000D01*
X117943177Y-99898687D01*
X117782758Y-99850024D01*
X117634924Y-99771005D01*
X117634922Y-99771004D01*
X117505341Y-99664659D01*
X117398996Y-99535078D01*
X117369022Y-99479000D01*
X117319976Y-99387242D01*
X117271313Y-99226823D01*
X117254883Y-99060000D01*
X117271313Y-98893177D01*
X117319976Y-98732758D01*
X117398995Y-98584924D01*
X117398996Y-98584922D01*
X117505341Y-98455341D01*
X117634922Y-98348996D01*
X117650094Y-98340886D01*
X117782758Y-98269976D01*
X117943177Y-98221313D01*
X118068196Y-98209000D01*
X118151804Y-98209000D01*
X118276823Y-98221313D01*
X118276823Y-98221313D01*
G37*
G36*
X169198228Y-96971703D02*
G01*
X169353100Y-97035853D01*
X169492481Y-97128985D01*
X169611015Y-97247519D01*
X169704147Y-97386900D01*
X169768297Y-97541772D01*
X169801000Y-97706184D01*
X169801000Y-97873816D01*
X169768297Y-98038228D01*
X169704147Y-98193100D01*
X169611015Y-98332481D01*
X169492481Y-98451015D01*
X169353100Y-98544147D01*
X169198228Y-98608297D01*
X169033816Y-98641000D01*
X168866184Y-98641000D01*
X168701772Y-98608297D01*
X168546900Y-98544147D01*
X168407519Y-98451015D01*
X168288985Y-98332481D01*
X168195853Y-98193100D01*
X168131703Y-98038228D01*
X168099000Y-97873816D01*
X168099000Y-97706184D01*
X168131703Y-97541772D01*
X168195853Y-97386900D01*
X168288985Y-97247519D01*
X168407519Y-97128985D01*
X168546900Y-97035853D01*
X168701772Y-96971703D01*
X168866184Y-96939000D01*
X169033816Y-96939000D01*
X169198228Y-96971703D01*
X169198228Y-96971703D01*
G37*
G36*
X164078228Y-96971703D02*
G01*
X164233100Y-97035853D01*
X164372481Y-97128985D01*
X164491015Y-97247519D01*
X164584147Y-97386900D01*
X164648297Y-97541772D01*
X164681000Y-97706184D01*
X164681000Y-97873816D01*
X164648297Y-98038228D01*
X164584147Y-98193100D01*
X164491015Y-98332481D01*
X164372481Y-98451015D01*
X164233100Y-98544147D01*
X164078228Y-98608297D01*
X163913816Y-98641000D01*
X163746184Y-98641000D01*
X163581772Y-98608297D01*
X163426900Y-98544147D01*
X163287519Y-98451015D01*
X163168985Y-98332481D01*
X163075853Y-98193100D01*
X163011703Y-98038228D01*
X162979000Y-97873816D01*
X162979000Y-97706184D01*
X163011703Y-97541772D01*
X163075853Y-97386900D01*
X163168985Y-97247519D01*
X163287519Y-97128985D01*
X163426900Y-97035853D01*
X163581772Y-96971703D01*
X163746184Y-96939000D01*
X163913816Y-96939000D01*
X164078228Y-96971703D01*
X164078228Y-96971703D01*
G37*
G36*
X172301000Y-98641000D02*
G01*
X170599000Y-98641000D01*
X170599000Y-96939000D01*
X172301000Y-96939000D01*
X172301000Y-98641000D01*
X172301000Y-98641000D01*
G37*
G36*
X155188228Y-95701703D02*
G01*
X155343100Y-95765853D01*
X155482481Y-95858985D01*
X155601015Y-95977519D01*
X155694147Y-96116900D01*
X155758297Y-96271772D01*
X155791000Y-96436184D01*
X155791000Y-96603816D01*
X155758297Y-96768228D01*
X155694147Y-96923100D01*
X155601015Y-97062481D01*
X155482481Y-97181015D01*
X155343100Y-97274147D01*
X155188228Y-97338297D01*
X155023816Y-97371000D01*
X154856184Y-97371000D01*
X154691772Y-97338297D01*
X154536900Y-97274147D01*
X154397519Y-97181015D01*
X154278985Y-97062481D01*
X154185853Y-96923100D01*
X154121703Y-96768228D01*
X154089000Y-96603816D01*
X154089000Y-96436184D01*
X154121703Y-96271772D01*
X154185853Y-96116900D01*
X154278985Y-95977519D01*
X154397519Y-95858985D01*
X154536900Y-95765853D01*
X154691772Y-95701703D01*
X154856184Y-95669000D01*
X155023816Y-95669000D01*
X155188228Y-95701703D01*
X155188228Y-95701703D01*
G37*
G36*
X142488228Y-95701703D02*
G01*
X142643100Y-95765853D01*
X142782481Y-95858985D01*
X142901015Y-95977519D01*
X142994147Y-96116900D01*
X143058297Y-96271772D01*
X143091000Y-96436184D01*
X143091000Y-96603816D01*
X143058297Y-96768228D01*
X142994147Y-96923100D01*
X142901015Y-97062481D01*
X142782481Y-97181015D01*
X142643100Y-97274147D01*
X142488228Y-97338297D01*
X142323816Y-97371000D01*
X142156184Y-97371000D01*
X141991772Y-97338297D01*
X141836900Y-97274147D01*
X141697519Y-97181015D01*
X141578985Y-97062481D01*
X141485853Y-96923100D01*
X141421703Y-96768228D01*
X141389000Y-96603816D01*
X141389000Y-96436184D01*
X141421703Y-96271772D01*
X141485853Y-96116900D01*
X141578985Y-95977519D01*
X141697519Y-95858985D01*
X141836900Y-95765853D01*
X141991772Y-95701703D01*
X142156184Y-95669000D01*
X142323816Y-95669000D01*
X142488228Y-95701703D01*
X142488228Y-95701703D01*
G37*
G36*
X160188228Y-95701703D02*
G01*
X160343100Y-95765853D01*
X160482481Y-95858985D01*
X160601015Y-95977519D01*
X160694147Y-96116900D01*
X160758297Y-96271772D01*
X160791000Y-96436184D01*
X160791000Y-96603816D01*
X160758297Y-96768228D01*
X160694147Y-96923100D01*
X160601015Y-97062481D01*
X160482481Y-97181015D01*
X160343100Y-97274147D01*
X160188228Y-97338297D01*
X160023816Y-97371000D01*
X159856184Y-97371000D01*
X159691772Y-97338297D01*
X159536900Y-97274147D01*
X159397519Y-97181015D01*
X159278985Y-97062481D01*
X159185853Y-96923100D01*
X159121703Y-96768228D01*
X159089000Y-96603816D01*
X159089000Y-96436184D01*
X159121703Y-96271772D01*
X159185853Y-96116900D01*
X159278985Y-95977519D01*
X159397519Y-95858985D01*
X159536900Y-95765853D01*
X159691772Y-95701703D01*
X159856184Y-95669000D01*
X160023816Y-95669000D01*
X160188228Y-95701703D01*
X160188228Y-95701703D01*
G37*
G36*
X137488228Y-95701703D02*
G01*
X137643100Y-95765853D01*
X137782481Y-95858985D01*
X137901015Y-95977519D01*
X137994147Y-96116900D01*
X138058297Y-96271772D01*
X138091000Y-96436184D01*
X138091000Y-96603816D01*
X138058297Y-96768228D01*
X137994147Y-96923100D01*
X137901015Y-97062481D01*
X137782481Y-97181015D01*
X137643100Y-97274147D01*
X137488228Y-97338297D01*
X137323816Y-97371000D01*
X137156184Y-97371000D01*
X136991772Y-97338297D01*
X136836900Y-97274147D01*
X136697519Y-97181015D01*
X136578985Y-97062481D01*
X136485853Y-96923100D01*
X136421703Y-96768228D01*
X136389000Y-96603816D01*
X136389000Y-96436184D01*
X136421703Y-96271772D01*
X136485853Y-96116900D01*
X136578985Y-95977519D01*
X136697519Y-95858985D01*
X136836900Y-95765853D01*
X136991772Y-95701703D01*
X137156184Y-95669000D01*
X137323816Y-95669000D01*
X137488228Y-95701703D01*
X137488228Y-95701703D01*
G37*
G36*
X134868228Y-95701703D02*
G01*
X135023100Y-95765853D01*
X135162481Y-95858985D01*
X135281015Y-95977519D01*
X135374147Y-96116900D01*
X135438297Y-96271772D01*
X135471000Y-96436184D01*
X135471000Y-96603816D01*
X135438297Y-96768228D01*
X135374147Y-96923100D01*
X135281015Y-97062481D01*
X135162481Y-97181015D01*
X135023100Y-97274147D01*
X134868228Y-97338297D01*
X134703816Y-97371000D01*
X134536184Y-97371000D01*
X134371772Y-97338297D01*
X134216900Y-97274147D01*
X134077519Y-97181015D01*
X133958985Y-97062481D01*
X133865853Y-96923100D01*
X133801703Y-96768228D01*
X133769000Y-96603816D01*
X133769000Y-96436184D01*
X133801703Y-96271772D01*
X133865853Y-96116900D01*
X133958985Y-95977519D01*
X134077519Y-95858985D01*
X134216900Y-95765853D01*
X134371772Y-95701703D01*
X134536184Y-95669000D01*
X134703816Y-95669000D01*
X134868228Y-95701703D01*
X134868228Y-95701703D01*
G37*
G36*
X124626823Y-95681313D02*
G01*
X124787242Y-95729976D01*
X124854361Y-95765852D01*
X124935078Y-95808996D01*
X125064659Y-95915341D01*
X125171004Y-96044922D01*
X125171005Y-96044924D01*
X125250024Y-96192758D01*
X125298687Y-96353177D01*
X125315117Y-96520000D01*
X125298687Y-96686823D01*
X125250024Y-96847242D01*
X125209477Y-96923100D01*
X125171004Y-96995078D01*
X125064659Y-97124659D01*
X124935078Y-97231004D01*
X124935076Y-97231005D01*
X124787242Y-97310024D01*
X124626823Y-97358687D01*
X124501804Y-97371000D01*
X124418196Y-97371000D01*
X124293177Y-97358687D01*
X124132758Y-97310024D01*
X123984924Y-97231005D01*
X123984922Y-97231004D01*
X123855341Y-97124659D01*
X123748996Y-96995078D01*
X123710523Y-96923100D01*
X123669976Y-96847242D01*
X123621313Y-96686823D01*
X123604883Y-96520000D01*
X123621313Y-96353177D01*
X123669976Y-96192758D01*
X123748995Y-96044924D01*
X123748996Y-96044922D01*
X123855341Y-95915341D01*
X123984922Y-95808996D01*
X124065639Y-95765852D01*
X124132758Y-95729976D01*
X124293177Y-95681313D01*
X124418196Y-95669000D01*
X124501804Y-95669000D01*
X124626823Y-95681313D01*
X124626823Y-95681313D01*
G37*
G36*
X144946823Y-95681313D02*
G01*
X145107242Y-95729976D01*
X145174361Y-95765852D01*
X145255078Y-95808996D01*
X145384659Y-95915341D01*
X145491004Y-96044922D01*
X145491005Y-96044924D01*
X145570024Y-96192758D01*
X145618687Y-96353177D01*
X145635117Y-96520000D01*
X145618687Y-96686823D01*
X145570024Y-96847242D01*
X145529477Y-96923100D01*
X145491004Y-96995078D01*
X145384659Y-97124659D01*
X145255078Y-97231004D01*
X145255076Y-97231005D01*
X145107242Y-97310024D01*
X144946823Y-97358687D01*
X144821804Y-97371000D01*
X144738196Y-97371000D01*
X144613177Y-97358687D01*
X144452758Y-97310024D01*
X144304924Y-97231005D01*
X144304922Y-97231004D01*
X144175341Y-97124659D01*
X144068996Y-96995078D01*
X144030523Y-96923100D01*
X143989976Y-96847242D01*
X143941313Y-96686823D01*
X143924883Y-96520000D01*
X143941313Y-96353177D01*
X143989976Y-96192758D01*
X144068995Y-96044924D01*
X144068996Y-96044922D01*
X144175341Y-95915341D01*
X144304922Y-95808996D01*
X144385639Y-95765852D01*
X144452758Y-95729976D01*
X144613177Y-95681313D01*
X144738196Y-95669000D01*
X144821804Y-95669000D01*
X144946823Y-95681313D01*
X144946823Y-95681313D01*
G37*
G36*
X120898228Y-95701703D02*
G01*
X121053100Y-95765853D01*
X121192481Y-95858985D01*
X121311015Y-95977519D01*
X121404147Y-96116900D01*
X121468297Y-96271772D01*
X121501000Y-96436184D01*
X121501000Y-96603816D01*
X121468297Y-96768228D01*
X121404147Y-96923100D01*
X121311015Y-97062481D01*
X121192481Y-97181015D01*
X121053100Y-97274147D01*
X120898228Y-97338297D01*
X120733816Y-97371000D01*
X120566184Y-97371000D01*
X120401772Y-97338297D01*
X120246900Y-97274147D01*
X120107519Y-97181015D01*
X119988985Y-97062481D01*
X119895853Y-96923100D01*
X119831703Y-96768228D01*
X119799000Y-96603816D01*
X119799000Y-96436184D01*
X119831703Y-96271772D01*
X119895853Y-96116900D01*
X119988985Y-95977519D01*
X120107519Y-95858985D01*
X120246900Y-95765853D01*
X120401772Y-95701703D01*
X120566184Y-95669000D01*
X120733816Y-95669000D01*
X120898228Y-95701703D01*
X120898228Y-95701703D01*
G37*
G36*
X153251000Y-97371000D02*
G01*
X151549000Y-97371000D01*
X151549000Y-95669000D01*
X153251000Y-95669000D01*
X153251000Y-97371000D01*
X153251000Y-97371000D01*
G37*
G36*
X165266823Y-93141313D02*
G01*
X165427242Y-93189976D01*
X165494361Y-93225852D01*
X165575078Y-93268996D01*
X165704659Y-93375341D01*
X165811004Y-93504922D01*
X165811005Y-93504924D01*
X165890024Y-93652758D01*
X165938687Y-93813177D01*
X165955117Y-93980000D01*
X165938687Y-94146823D01*
X165890024Y-94307242D01*
X165849477Y-94383100D01*
X165811004Y-94455078D01*
X165704659Y-94584659D01*
X165575078Y-94691004D01*
X165575076Y-94691005D01*
X165427242Y-94770024D01*
X165266823Y-94818687D01*
X165141804Y-94831000D01*
X165058196Y-94831000D01*
X164933177Y-94818687D01*
X164772758Y-94770024D01*
X164624924Y-94691005D01*
X164624922Y-94691004D01*
X164495341Y-94584659D01*
X164388996Y-94455078D01*
X164350523Y-94383100D01*
X164309976Y-94307242D01*
X164261313Y-94146823D01*
X164244883Y-93980000D01*
X164261313Y-93813177D01*
X164309976Y-93652758D01*
X164388995Y-93504924D01*
X164388996Y-93504922D01*
X164495341Y-93375341D01*
X164624922Y-93268996D01*
X164705639Y-93225852D01*
X164772758Y-93189976D01*
X164933177Y-93141313D01*
X165058196Y-93129000D01*
X165141804Y-93129000D01*
X165266823Y-93141313D01*
X165266823Y-93141313D01*
G37*
G36*
X157728228Y-93161703D02*
G01*
X157883100Y-93225853D01*
X158022481Y-93318985D01*
X158141015Y-93437519D01*
X158234147Y-93576900D01*
X158298297Y-93731772D01*
X158331000Y-93896184D01*
X158331000Y-94063816D01*
X158298297Y-94228228D01*
X158234147Y-94383100D01*
X158141015Y-94522481D01*
X158022481Y-94641015D01*
X157883100Y-94734147D01*
X157728228Y-94798297D01*
X157563816Y-94831000D01*
X157396184Y-94831000D01*
X157231772Y-94798297D01*
X157076900Y-94734147D01*
X156937519Y-94641015D01*
X156818985Y-94522481D01*
X156725853Y-94383100D01*
X156661703Y-94228228D01*
X156629000Y-94063816D01*
X156629000Y-93896184D01*
X156661703Y-93731772D01*
X156725853Y-93576900D01*
X156818985Y-93437519D01*
X156937519Y-93318985D01*
X157076900Y-93225853D01*
X157231772Y-93161703D01*
X157396184Y-93129000D01*
X157563816Y-93129000D01*
X157728228Y-93161703D01*
X157728228Y-93161703D01*
G37*
G36*
X160268228Y-93161703D02*
G01*
X160423100Y-93225853D01*
X160562481Y-93318985D01*
X160681015Y-93437519D01*
X160774147Y-93576900D01*
X160838297Y-93731772D01*
X160871000Y-93896184D01*
X160871000Y-94063816D01*
X160838297Y-94228228D01*
X160774147Y-94383100D01*
X160681015Y-94522481D01*
X160562481Y-94641015D01*
X160423100Y-94734147D01*
X160268228Y-94798297D01*
X160103816Y-94831000D01*
X159936184Y-94831000D01*
X159771772Y-94798297D01*
X159616900Y-94734147D01*
X159477519Y-94641015D01*
X159358985Y-94522481D01*
X159265853Y-94383100D01*
X159201703Y-94228228D01*
X159169000Y-94063816D01*
X159169000Y-93896184D01*
X159201703Y-93731772D01*
X159265853Y-93576900D01*
X159358985Y-93437519D01*
X159477519Y-93318985D01*
X159616900Y-93225853D01*
X159771772Y-93161703D01*
X159936184Y-93129000D01*
X160103816Y-93129000D01*
X160268228Y-93161703D01*
X160268228Y-93161703D01*
G37*
G36*
X162726823Y-93141313D02*
G01*
X162887242Y-93189976D01*
X162954361Y-93225852D01*
X163035078Y-93268996D01*
X163164659Y-93375341D01*
X163271004Y-93504922D01*
X163271005Y-93504924D01*
X163350024Y-93652758D01*
X163398687Y-93813177D01*
X163415117Y-93980000D01*
X163398687Y-94146823D01*
X163350024Y-94307242D01*
X163309477Y-94383100D01*
X163271004Y-94455078D01*
X163164659Y-94584659D01*
X163035078Y-94691004D01*
X163035076Y-94691005D01*
X162887242Y-94770024D01*
X162726823Y-94818687D01*
X162601804Y-94831000D01*
X162518196Y-94831000D01*
X162393177Y-94818687D01*
X162232758Y-94770024D01*
X162084924Y-94691005D01*
X162084922Y-94691004D01*
X161955341Y-94584659D01*
X161848996Y-94455078D01*
X161810523Y-94383100D01*
X161769976Y-94307242D01*
X161721313Y-94146823D01*
X161704883Y-93980000D01*
X161721313Y-93813177D01*
X161769976Y-93652758D01*
X161848995Y-93504924D01*
X161848996Y-93504922D01*
X161955341Y-93375341D01*
X162084922Y-93268996D01*
X162165639Y-93225852D01*
X162232758Y-93189976D01*
X162393177Y-93141313D01*
X162518196Y-93129000D01*
X162601804Y-93129000D01*
X162726823Y-93141313D01*
X162726823Y-93141313D01*
G37*
G36*
X167806823Y-93141313D02*
G01*
X167967242Y-93189976D01*
X168034361Y-93225852D01*
X168115078Y-93268996D01*
X168244659Y-93375341D01*
X168351004Y-93504922D01*
X168351005Y-93504924D01*
X168430024Y-93652758D01*
X168478687Y-93813177D01*
X168495117Y-93980000D01*
X168478687Y-94146823D01*
X168430024Y-94307242D01*
X168389477Y-94383100D01*
X168351004Y-94455078D01*
X168244659Y-94584659D01*
X168115078Y-94691004D01*
X168115076Y-94691005D01*
X167967242Y-94770024D01*
X167806823Y-94818687D01*
X167681804Y-94831000D01*
X167598196Y-94831000D01*
X167473177Y-94818687D01*
X167312758Y-94770024D01*
X167164924Y-94691005D01*
X167164922Y-94691004D01*
X167035341Y-94584659D01*
X166928996Y-94455078D01*
X166890523Y-94383100D01*
X166849976Y-94307242D01*
X166801313Y-94146823D01*
X166784883Y-93980000D01*
X166801313Y-93813177D01*
X166849976Y-93652758D01*
X166928995Y-93504924D01*
X166928996Y-93504922D01*
X167035341Y-93375341D01*
X167164922Y-93268996D01*
X167245639Y-93225852D01*
X167312758Y-93189976D01*
X167473177Y-93141313D01*
X167598196Y-93129000D01*
X167681804Y-93129000D01*
X167806823Y-93141313D01*
X167806823Y-93141313D01*
G37*
G36*
X155188228Y-93161703D02*
G01*
X155343100Y-93225853D01*
X155482481Y-93318985D01*
X155601015Y-93437519D01*
X155694147Y-93576900D01*
X155758297Y-93731772D01*
X155791000Y-93896184D01*
X155791000Y-94063816D01*
X155758297Y-94228228D01*
X155694147Y-94383100D01*
X155601015Y-94522481D01*
X155482481Y-94641015D01*
X155343100Y-94734147D01*
X155188228Y-94798297D01*
X155023816Y-94831000D01*
X154856184Y-94831000D01*
X154691772Y-94798297D01*
X154536900Y-94734147D01*
X154397519Y-94641015D01*
X154278985Y-94522481D01*
X154185853Y-94383100D01*
X154121703Y-94228228D01*
X154089000Y-94063816D01*
X154089000Y-93896184D01*
X154121703Y-93731772D01*
X154185853Y-93576900D01*
X154278985Y-93437519D01*
X154397519Y-93318985D01*
X154536900Y-93225853D01*
X154691772Y-93161703D01*
X154856184Y-93129000D01*
X155023816Y-93129000D01*
X155188228Y-93161703D01*
X155188228Y-93161703D01*
G37*
G36*
X137488228Y-93161703D02*
G01*
X137643100Y-93225853D01*
X137782481Y-93318985D01*
X137901015Y-93437519D01*
X137994147Y-93576900D01*
X138058297Y-93731772D01*
X138091000Y-93896184D01*
X138091000Y-94063816D01*
X138058297Y-94228228D01*
X137994147Y-94383100D01*
X137901015Y-94522481D01*
X137782481Y-94641015D01*
X137643100Y-94734147D01*
X137488228Y-94798297D01*
X137323816Y-94831000D01*
X137156184Y-94831000D01*
X136991772Y-94798297D01*
X136836900Y-94734147D01*
X136697519Y-94641015D01*
X136578985Y-94522481D01*
X136485853Y-94383100D01*
X136421703Y-94228228D01*
X136389000Y-94063816D01*
X136389000Y-93896184D01*
X136421703Y-93731772D01*
X136485853Y-93576900D01*
X136578985Y-93437519D01*
X136697519Y-93318985D01*
X136836900Y-93225853D01*
X136991772Y-93161703D01*
X137156184Y-93129000D01*
X137323816Y-93129000D01*
X137488228Y-93161703D01*
X137488228Y-93161703D01*
G37*
G36*
X142488228Y-93161703D02*
G01*
X142643100Y-93225853D01*
X142782481Y-93318985D01*
X142901015Y-93437519D01*
X142994147Y-93576900D01*
X143058297Y-93731772D01*
X143091000Y-93896184D01*
X143091000Y-94063816D01*
X143058297Y-94228228D01*
X142994147Y-94383100D01*
X142901015Y-94522481D01*
X142782481Y-94641015D01*
X142643100Y-94734147D01*
X142488228Y-94798297D01*
X142323816Y-94831000D01*
X142156184Y-94831000D01*
X141991772Y-94798297D01*
X141836900Y-94734147D01*
X141697519Y-94641015D01*
X141578985Y-94522481D01*
X141485853Y-94383100D01*
X141421703Y-94228228D01*
X141389000Y-94063816D01*
X141389000Y-93896184D01*
X141421703Y-93731772D01*
X141485853Y-93576900D01*
X141578985Y-93437519D01*
X141697519Y-93318985D01*
X141836900Y-93225853D01*
X141991772Y-93161703D01*
X142156184Y-93129000D01*
X142323816Y-93129000D01*
X142488228Y-93161703D01*
X142488228Y-93161703D01*
G37*
G36*
X152566823Y-93141313D02*
G01*
X152727242Y-93189976D01*
X152794361Y-93225852D01*
X152875078Y-93268996D01*
X153004659Y-93375341D01*
X153111004Y-93504922D01*
X153111005Y-93504924D01*
X153190024Y-93652758D01*
X153238687Y-93813177D01*
X153255117Y-93980000D01*
X153238687Y-94146823D01*
X153190024Y-94307242D01*
X153149477Y-94383100D01*
X153111004Y-94455078D01*
X153004659Y-94584659D01*
X152875078Y-94691004D01*
X152875076Y-94691005D01*
X152727242Y-94770024D01*
X152566823Y-94818687D01*
X152441804Y-94831000D01*
X152358196Y-94831000D01*
X152233177Y-94818687D01*
X152072758Y-94770024D01*
X151924924Y-94691005D01*
X151924922Y-94691004D01*
X151795341Y-94584659D01*
X151688996Y-94455078D01*
X151650523Y-94383100D01*
X151609976Y-94307242D01*
X151561313Y-94146823D01*
X151544883Y-93980000D01*
X151561313Y-93813177D01*
X151609976Y-93652758D01*
X151688995Y-93504924D01*
X151688996Y-93504922D01*
X151795341Y-93375341D01*
X151924922Y-93268996D01*
X152005639Y-93225852D01*
X152072758Y-93189976D01*
X152233177Y-93141313D01*
X152358196Y-93129000D01*
X152441804Y-93129000D01*
X152566823Y-93141313D01*
X152566823Y-93141313D01*
G37*
G36*
X144946823Y-93141313D02*
G01*
X145107242Y-93189976D01*
X145174361Y-93225852D01*
X145255078Y-93268996D01*
X145384659Y-93375341D01*
X145491004Y-93504922D01*
X145491005Y-93504924D01*
X145570024Y-93652758D01*
X145618687Y-93813177D01*
X145635117Y-93980000D01*
X145618687Y-94146823D01*
X145570024Y-94307242D01*
X145529477Y-94383100D01*
X145491004Y-94455078D01*
X145384659Y-94584659D01*
X145255078Y-94691004D01*
X145255076Y-94691005D01*
X145107242Y-94770024D01*
X144946823Y-94818687D01*
X144821804Y-94831000D01*
X144738196Y-94831000D01*
X144613177Y-94818687D01*
X144452758Y-94770024D01*
X144304924Y-94691005D01*
X144304922Y-94691004D01*
X144175341Y-94584659D01*
X144068996Y-94455078D01*
X144030523Y-94383100D01*
X143989976Y-94307242D01*
X143941313Y-94146823D01*
X143924883Y-93980000D01*
X143941313Y-93813177D01*
X143989976Y-93652758D01*
X144068995Y-93504924D01*
X144068996Y-93504922D01*
X144175341Y-93375341D01*
X144304922Y-93268996D01*
X144385639Y-93225852D01*
X144452758Y-93189976D01*
X144613177Y-93141313D01*
X144738196Y-93129000D01*
X144821804Y-93129000D01*
X144946823Y-93141313D01*
X144946823Y-93141313D01*
G37*
G36*
X123438228Y-91851703D02*
G01*
X123593100Y-91915853D01*
X123732481Y-92008985D01*
X123851015Y-92127519D01*
X123944147Y-92266900D01*
X124008297Y-92421772D01*
X124041000Y-92586184D01*
X124041000Y-92753816D01*
X124008297Y-92918228D01*
X123944147Y-93073100D01*
X123851015Y-93212481D01*
X123732481Y-93331015D01*
X123593100Y-93424147D01*
X123438228Y-93488297D01*
X123273816Y-93521000D01*
X123106184Y-93521000D01*
X122941772Y-93488297D01*
X122786900Y-93424147D01*
X122647519Y-93331015D01*
X122528985Y-93212481D01*
X122435853Y-93073100D01*
X122371703Y-92918228D01*
X122339000Y-92753816D01*
X122339000Y-92586184D01*
X122371703Y-92421772D01*
X122435853Y-92266900D01*
X122528985Y-92127519D01*
X122647519Y-92008985D01*
X122786900Y-91915853D01*
X122941772Y-91851703D01*
X123106184Y-91819000D01*
X123273816Y-91819000D01*
X123438228Y-91851703D01*
X123438228Y-91851703D01*
G37*
G36*
X131147916Y-89602334D02*
G01*
X131256492Y-89635271D01*
X131256495Y-89635272D01*
X131292601Y-89654571D01*
X131356557Y-89688756D01*
X131444264Y-89760736D01*
X131516244Y-89848443D01*
X131550429Y-89912399D01*
X131569728Y-89948505D01*
X131569729Y-89948508D01*
X131602666Y-90057084D01*
X131613787Y-90170000D01*
X131602666Y-90282916D01*
X131569729Y-90391492D01*
X131569728Y-90391495D01*
X131550429Y-90427601D01*
X131516244Y-90491557D01*
X131444264Y-90579264D01*
X131356557Y-90651244D01*
X131275141Y-90694761D01*
X131254766Y-90708375D01*
X131237439Y-90725702D01*
X131223826Y-90746076D01*
X131214448Y-90768715D01*
X131209668Y-90792748D01*
X131209668Y-90817252D01*
X131214448Y-90841285D01*
X131223826Y-90863924D01*
X131237440Y-90884299D01*
X131254767Y-90901626D01*
X131275141Y-90915239D01*
X131356557Y-90958756D01*
X131444264Y-91030736D01*
X131516244Y-91118443D01*
X131550429Y-91182399D01*
X131569728Y-91218505D01*
X131569729Y-91218508D01*
X131602666Y-91327084D01*
X131613787Y-91440000D01*
X131602666Y-91552916D01*
X131569729Y-91661492D01*
X131569728Y-91661495D01*
X131550429Y-91697601D01*
X131516244Y-91761557D01*
X131444264Y-91849264D01*
X131367354Y-91912383D01*
X131350035Y-91929702D01*
X131336421Y-91950077D01*
X131327043Y-91972716D01*
X131322263Y-91996749D01*
X131322263Y-92021253D01*
X131327043Y-92045286D01*
X131336421Y-92067925D01*
X131350034Y-92088299D01*
X131367361Y-92105626D01*
X131387736Y-92119240D01*
X131410375Y-92128618D01*
X131434408Y-92133398D01*
X131446660Y-92134000D01*
X131611000Y-92134000D01*
X131611000Y-93286000D01*
X130009000Y-93286000D01*
X130009000Y-92134000D01*
X130173340Y-92134000D01*
X130197726Y-92131598D01*
X130221175Y-92124485D01*
X130242786Y-92112934D01*
X130261728Y-92097389D01*
X130277273Y-92078447D01*
X130288824Y-92056836D01*
X130295937Y-92033387D01*
X130298339Y-92009001D01*
X130295937Y-91984615D01*
X130288824Y-91961166D01*
X130277273Y-91939555D01*
X130261728Y-91920613D01*
X130252655Y-91912391D01*
X130175736Y-91849264D01*
X130103756Y-91761557D01*
X130069571Y-91697601D01*
X130050272Y-91661495D01*
X130050271Y-91661492D01*
X130017334Y-91552916D01*
X130006213Y-91440000D01*
X130017334Y-91327084D01*
X130050271Y-91218508D01*
X130050272Y-91218505D01*
X130069571Y-91182399D01*
X130103756Y-91118443D01*
X130175736Y-91030736D01*
X130263443Y-90958756D01*
X130344859Y-90915239D01*
X130365234Y-90901625D01*
X130382561Y-90884298D01*
X130396174Y-90863924D01*
X130405552Y-90841285D01*
X130410332Y-90817252D01*
X130410332Y-90792748D01*
X130405552Y-90768715D01*
X130396174Y-90746076D01*
X130382560Y-90725701D01*
X130365233Y-90708374D01*
X130344859Y-90694761D01*
X130263443Y-90651244D01*
X130175736Y-90579264D01*
X130103756Y-90491557D01*
X130069571Y-90427601D01*
X130050272Y-90391495D01*
X130050271Y-90391492D01*
X130017334Y-90282916D01*
X130006213Y-90170000D01*
X130017334Y-90057084D01*
X130050271Y-89948508D01*
X130050272Y-89948505D01*
X130069571Y-89912399D01*
X130103756Y-89848443D01*
X130175736Y-89760736D01*
X130263443Y-89688756D01*
X130327399Y-89654571D01*
X130363505Y-89635272D01*
X130363508Y-89635271D01*
X130472084Y-89602334D01*
X130556702Y-89594000D01*
X131063298Y-89594000D01*
X131147916Y-89602334D01*
X131147916Y-89602334D01*
G37*
G36*
X124041000Y-91021000D02*
G01*
X122339000Y-91021000D01*
X122339000Y-89319000D01*
X124041000Y-89319000D01*
X124041000Y-91021000D01*
X124041000Y-91021000D01*
G37*
G36*
X136741000Y-89751000D02*
G01*
X135039000Y-89751000D01*
X135039000Y-88049000D01*
X136741000Y-88049000D01*
X136741000Y-89751000D01*
X136741000Y-89751000D01*
G37*
G36*
X122868341Y-85422164D02*
G01*
X123039829Y-85474185D01*
X123197875Y-85558661D01*
X123304117Y-85645852D01*
X123336402Y-85672348D01*
X123390136Y-85737822D01*
X123450092Y-85810879D01*
X123534564Y-85968916D01*
X123534566Y-85968922D01*
X123586586Y-86140408D01*
X123599750Y-86274066D01*
X123599750Y-86445933D01*
X123586586Y-86579591D01*
X123534565Y-86751079D01*
X123450089Y-86909125D01*
X123336402Y-87047652D01*
X123235795Y-87130219D01*
X123197871Y-87161342D01*
X123039834Y-87245814D01*
X123022738Y-87251000D01*
X122868342Y-87297836D01*
X122690000Y-87315401D01*
X122511659Y-87297836D01*
X122340171Y-87245815D01*
X122261149Y-87203577D01*
X122182125Y-87161339D01*
X122043598Y-87047652D01*
X121929911Y-86909125D01*
X121929910Y-86909124D01*
X121929908Y-86909121D01*
X121845436Y-86751084D01*
X121814235Y-86648228D01*
X121793414Y-86579592D01*
X121780250Y-86445934D01*
X121780250Y-86274067D01*
X121793414Y-86140409D01*
X121845435Y-85968921D01*
X121929911Y-85810875D01*
X122043598Y-85672348D01*
X122144204Y-85589782D01*
X122182125Y-85558661D01*
X122182126Y-85558660D01*
X122182129Y-85558658D01*
X122340166Y-85474186D01*
X122384791Y-85460649D01*
X122511658Y-85422164D01*
X122690000Y-85404599D01*
X122868341Y-85422164D01*
X122868341Y-85422164D01*
G37*
G36*
X120578341Y-85422164D02*
G01*
X120749829Y-85474185D01*
X120907875Y-85558661D01*
X121014117Y-85645852D01*
X121046402Y-85672348D01*
X121100136Y-85737822D01*
X121160092Y-85810879D01*
X121244564Y-85968916D01*
X121244566Y-85968922D01*
X121296586Y-86140408D01*
X121309750Y-86274066D01*
X121309750Y-86445933D01*
X121296586Y-86579591D01*
X121244565Y-86751079D01*
X121160089Y-86909125D01*
X121046402Y-87047652D01*
X120945795Y-87130219D01*
X120907871Y-87161342D01*
X120749834Y-87245814D01*
X120732738Y-87251000D01*
X120578342Y-87297836D01*
X120400000Y-87315401D01*
X120221659Y-87297836D01*
X120050171Y-87245815D01*
X119971149Y-87203577D01*
X119892125Y-87161339D01*
X119753598Y-87047652D01*
X119639911Y-86909125D01*
X119639910Y-86909124D01*
X119639908Y-86909121D01*
X119555436Y-86751084D01*
X119524235Y-86648228D01*
X119503414Y-86579592D01*
X119490250Y-86445934D01*
X119490250Y-86274067D01*
X119503414Y-86140409D01*
X119555435Y-85968921D01*
X119639911Y-85810875D01*
X119753598Y-85672348D01*
X119854204Y-85589782D01*
X119892125Y-85558661D01*
X119892126Y-85558660D01*
X119892129Y-85558658D01*
X120050166Y-85474186D01*
X120094791Y-85460649D01*
X120221658Y-85422164D01*
X120400000Y-85404599D01*
X120578341Y-85422164D01*
X120578341Y-85422164D01*
G37*
G36*
X119019750Y-87311000D02*
G01*
X117200250Y-87311000D01*
X117200250Y-85409000D01*
X119019750Y-85409000D01*
X119019750Y-87311000D01*
X119019750Y-87311000D01*
G37*
G36*
X136138228Y-85581703D02*
G01*
X136293100Y-85645853D01*
X136432481Y-85738985D01*
X136551015Y-85857519D01*
X136644147Y-85996900D01*
X136708297Y-86151772D01*
X136741000Y-86316184D01*
X136741000Y-86483816D01*
X136708297Y-86648228D01*
X136644147Y-86803100D01*
X136551015Y-86942481D01*
X136432481Y-87061015D01*
X136293100Y-87154147D01*
X136138228Y-87218297D01*
X135973816Y-87251000D01*
X135806184Y-87251000D01*
X135641772Y-87218297D01*
X135486900Y-87154147D01*
X135347519Y-87061015D01*
X135228985Y-86942481D01*
X135135853Y-86803100D01*
X135071703Y-86648228D01*
X135039000Y-86483816D01*
X135039000Y-86316184D01*
X135071703Y-86151772D01*
X135135853Y-85996900D01*
X135228985Y-85857519D01*
X135347519Y-85738985D01*
X135486900Y-85645853D01*
X135641772Y-85581703D01*
X135806184Y-85549000D01*
X135973816Y-85549000D01*
X136138228Y-85581703D01*
X136138228Y-85581703D01*
G37*
G36*
X128503642Y-85589781D02*
G01*
X128639011Y-85645853D01*
X128649416Y-85650163D01*
X128780608Y-85737822D01*
X128892178Y-85849392D01*
X128979837Y-85980584D01*
X128979838Y-85980586D01*
X129040219Y-86126358D01*
X129071000Y-86281107D01*
X129071000Y-86438893D01*
X129040219Y-86593642D01*
X129017608Y-86648229D01*
X128979837Y-86739416D01*
X128892178Y-86870608D01*
X128780608Y-86982178D01*
X128649416Y-87069837D01*
X128649415Y-87069838D01*
X128649414Y-87069838D01*
X128503642Y-87130219D01*
X128348893Y-87161000D01*
X128191107Y-87161000D01*
X128036358Y-87130219D01*
X127890586Y-87069838D01*
X127890585Y-87069838D01*
X127890584Y-87069837D01*
X127759392Y-86982178D01*
X127647822Y-86870608D01*
X127560163Y-86739416D01*
X127522392Y-86648229D01*
X127499781Y-86593642D01*
X127469000Y-86438893D01*
X127469000Y-86281107D01*
X127499781Y-86126358D01*
X127560162Y-85980586D01*
X127560163Y-85980584D01*
X127647822Y-85849392D01*
X127759392Y-85737822D01*
X127890584Y-85650163D01*
X127900989Y-85645853D01*
X128036358Y-85589781D01*
X128191107Y-85559000D01*
X128348893Y-85559000D01*
X128503642Y-85589781D01*
X128503642Y-85589781D01*
G37*
G36*
X131611000Y-87161000D02*
G01*
X130009000Y-87161000D01*
X130009000Y-85559000D01*
X131611000Y-85559000D01*
X131611000Y-87161000D01*
X131611000Y-87161000D01*
G37*
G36*
X125963642Y-85589781D02*
G01*
X126099011Y-85645853D01*
X126109416Y-85650163D01*
X126240608Y-85737822D01*
X126352178Y-85849392D01*
X126439837Y-85980584D01*
X126439838Y-85980586D01*
X126500219Y-86126358D01*
X126531000Y-86281107D01*
X126531000Y-86438893D01*
X126500219Y-86593642D01*
X126477608Y-86648229D01*
X126439837Y-86739416D01*
X126352178Y-86870608D01*
X126240608Y-86982178D01*
X126109416Y-87069837D01*
X126109415Y-87069838D01*
X126109414Y-87069838D01*
X125963642Y-87130219D01*
X125808893Y-87161000D01*
X125651107Y-87161000D01*
X125496358Y-87130219D01*
X125350586Y-87069838D01*
X125350585Y-87069838D01*
X125350584Y-87069837D01*
X125219392Y-86982178D01*
X125107822Y-86870608D01*
X125020163Y-86739416D01*
X124982392Y-86648229D01*
X124959781Y-86593642D01*
X124929000Y-86438893D01*
X124929000Y-86281107D01*
X124959781Y-86126358D01*
X125020162Y-85980586D01*
X125020163Y-85980584D01*
X125107822Y-85849392D01*
X125219392Y-85737822D01*
X125350584Y-85650163D01*
X125360989Y-85645853D01*
X125496358Y-85589781D01*
X125651107Y-85559000D01*
X125808893Y-85559000D01*
X125963642Y-85589781D01*
X125963642Y-85589781D01*
G37*
G36*
X160186823Y-82981313D02*
G01*
X160347242Y-83029976D01*
X160479906Y-83100886D01*
X160495078Y-83108996D01*
X160624659Y-83215341D01*
X160731004Y-83344922D01*
X160731005Y-83344924D01*
X160810024Y-83492758D01*
X160858687Y-83653177D01*
X160875117Y-83820000D01*
X160858687Y-83986823D01*
X160810024Y-84147242D01*
X160769477Y-84223100D01*
X160731004Y-84295078D01*
X160624659Y-84424659D01*
X160495078Y-84531004D01*
X160495076Y-84531005D01*
X160347242Y-84610024D01*
X160186823Y-84658687D01*
X160061804Y-84671000D01*
X159978196Y-84671000D01*
X159853177Y-84658687D01*
X159692758Y-84610024D01*
X159544924Y-84531005D01*
X159544922Y-84531004D01*
X159415341Y-84424659D01*
X159308996Y-84295078D01*
X159270523Y-84223100D01*
X159229976Y-84147242D01*
X159181313Y-83986823D01*
X159164883Y-83820000D01*
X159181313Y-83653177D01*
X159229976Y-83492758D01*
X159308995Y-83344924D01*
X159308996Y-83344922D01*
X159415341Y-83215341D01*
X159544922Y-83108996D01*
X159560094Y-83100886D01*
X159692758Y-83029976D01*
X159853177Y-82981313D01*
X159978196Y-82969000D01*
X160061804Y-82969000D01*
X160186823Y-82981313D01*
X160186823Y-82981313D01*
G37*
G36*
X165348228Y-83001703D02*
G01*
X165503100Y-83065853D01*
X165642481Y-83158985D01*
X165761015Y-83277519D01*
X165854147Y-83416900D01*
X165918297Y-83571772D01*
X165951000Y-83736184D01*
X165951000Y-83903816D01*
X165918297Y-84068228D01*
X165854147Y-84223100D01*
X165761015Y-84362481D01*
X165642481Y-84481015D01*
X165503100Y-84574147D01*
X165348228Y-84638297D01*
X165183816Y-84671000D01*
X165016184Y-84671000D01*
X164851772Y-84638297D01*
X164696900Y-84574147D01*
X164557519Y-84481015D01*
X164438985Y-84362481D01*
X164345853Y-84223100D01*
X164281703Y-84068228D01*
X164249000Y-83903816D01*
X164249000Y-83736184D01*
X164281703Y-83571772D01*
X164345853Y-83416900D01*
X164438985Y-83277519D01*
X164557519Y-83158985D01*
X164696900Y-83065853D01*
X164851772Y-83001703D01*
X165016184Y-82969000D01*
X165183816Y-82969000D01*
X165348228Y-83001703D01*
X165348228Y-83001703D01*
G37*
G36*
X162808228Y-83001703D02*
G01*
X162963100Y-83065853D01*
X163102481Y-83158985D01*
X163221015Y-83277519D01*
X163314147Y-83416900D01*
X163378297Y-83571772D01*
X163411000Y-83736184D01*
X163411000Y-83903816D01*
X163378297Y-84068228D01*
X163314147Y-84223100D01*
X163221015Y-84362481D01*
X163102481Y-84481015D01*
X162963100Y-84574147D01*
X162808228Y-84638297D01*
X162643816Y-84671000D01*
X162476184Y-84671000D01*
X162311772Y-84638297D01*
X162156900Y-84574147D01*
X162017519Y-84481015D01*
X161898985Y-84362481D01*
X161805853Y-84223100D01*
X161741703Y-84068228D01*
X161709000Y-83903816D01*
X161709000Y-83736184D01*
X161741703Y-83571772D01*
X161805853Y-83416900D01*
X161898985Y-83277519D01*
X162017519Y-83158985D01*
X162156900Y-83065853D01*
X162311772Y-83001703D01*
X162476184Y-82969000D01*
X162643816Y-82969000D01*
X162808228Y-83001703D01*
X162808228Y-83001703D01*
G37*
G36*
X155106823Y-82981313D02*
G01*
X155267242Y-83029976D01*
X155399906Y-83100886D01*
X155415078Y-83108996D01*
X155544659Y-83215341D01*
X155651004Y-83344922D01*
X155651005Y-83344924D01*
X155730024Y-83492758D01*
X155778687Y-83653177D01*
X155795117Y-83820000D01*
X155778687Y-83986823D01*
X155730024Y-84147242D01*
X155689477Y-84223100D01*
X155651004Y-84295078D01*
X155544659Y-84424659D01*
X155415078Y-84531004D01*
X155415076Y-84531005D01*
X155267242Y-84610024D01*
X155106823Y-84658687D01*
X154981804Y-84671000D01*
X154898196Y-84671000D01*
X154773177Y-84658687D01*
X154612758Y-84610024D01*
X154464924Y-84531005D01*
X154464922Y-84531004D01*
X154335341Y-84424659D01*
X154228996Y-84295078D01*
X154190523Y-84223100D01*
X154149976Y-84147242D01*
X154101313Y-83986823D01*
X154084883Y-83820000D01*
X154101313Y-83653177D01*
X154149976Y-83492758D01*
X154228995Y-83344924D01*
X154228996Y-83344922D01*
X154335341Y-83215341D01*
X154464922Y-83108996D01*
X154480094Y-83100886D01*
X154612758Y-83029976D01*
X154773177Y-82981313D01*
X154898196Y-82969000D01*
X154981804Y-82969000D01*
X155106823Y-82981313D01*
X155106823Y-82981313D01*
G37*
G36*
X167888228Y-83001703D02*
G01*
X168043100Y-83065853D01*
X168182481Y-83158985D01*
X168301015Y-83277519D01*
X168394147Y-83416900D01*
X168458297Y-83571772D01*
X168491000Y-83736184D01*
X168491000Y-83903816D01*
X168458297Y-84068228D01*
X168394147Y-84223100D01*
X168301015Y-84362481D01*
X168182481Y-84481015D01*
X168043100Y-84574147D01*
X167888228Y-84638297D01*
X167723816Y-84671000D01*
X167556184Y-84671000D01*
X167391772Y-84638297D01*
X167236900Y-84574147D01*
X167097519Y-84481015D01*
X166978985Y-84362481D01*
X166885853Y-84223100D01*
X166821703Y-84068228D01*
X166789000Y-83903816D01*
X166789000Y-83736184D01*
X166821703Y-83571772D01*
X166885853Y-83416900D01*
X166978985Y-83277519D01*
X167097519Y-83158985D01*
X167236900Y-83065853D01*
X167391772Y-83001703D01*
X167556184Y-82969000D01*
X167723816Y-82969000D01*
X167888228Y-83001703D01*
X167888228Y-83001703D01*
G37*
G36*
X157646823Y-82981313D02*
G01*
X157807242Y-83029976D01*
X157939906Y-83100886D01*
X157955078Y-83108996D01*
X158084659Y-83215341D01*
X158191004Y-83344922D01*
X158191005Y-83344924D01*
X158270024Y-83492758D01*
X158318687Y-83653177D01*
X158335117Y-83820000D01*
X158318687Y-83986823D01*
X158270024Y-84147242D01*
X158229477Y-84223100D01*
X158191004Y-84295078D01*
X158084659Y-84424659D01*
X157955078Y-84531004D01*
X157955076Y-84531005D01*
X157807242Y-84610024D01*
X157646823Y-84658687D01*
X157521804Y-84671000D01*
X157438196Y-84671000D01*
X157313177Y-84658687D01*
X157152758Y-84610024D01*
X157004924Y-84531005D01*
X157004922Y-84531004D01*
X156875341Y-84424659D01*
X156768996Y-84295078D01*
X156730523Y-84223100D01*
X156689976Y-84147242D01*
X156641313Y-83986823D01*
X156624883Y-83820000D01*
X156641313Y-83653177D01*
X156689976Y-83492758D01*
X156768995Y-83344924D01*
X156768996Y-83344922D01*
X156875341Y-83215341D01*
X157004922Y-83108996D01*
X157020094Y-83100886D01*
X157152758Y-83029976D01*
X157313177Y-82981313D01*
X157438196Y-82969000D01*
X157521804Y-82969000D01*
X157646823Y-82981313D01*
X157646823Y-82981313D01*
G37*
G36*
X128436823Y-81711313D02*
G01*
X128597242Y-81759976D01*
X128664361Y-81795852D01*
X128745078Y-81838996D01*
X128874659Y-81945341D01*
X128981004Y-82074922D01*
X128981005Y-82074924D01*
X129060024Y-82222758D01*
X129108687Y-82383177D01*
X129125117Y-82550000D01*
X129108687Y-82716823D01*
X129060024Y-82877242D01*
X129019477Y-82953100D01*
X128981004Y-83025078D01*
X128874659Y-83154659D01*
X128745078Y-83261004D01*
X128745076Y-83261005D01*
X128597242Y-83340024D01*
X128436823Y-83388687D01*
X128311804Y-83401000D01*
X128228196Y-83401000D01*
X128103177Y-83388687D01*
X127942758Y-83340024D01*
X127794924Y-83261005D01*
X127794922Y-83261004D01*
X127665341Y-83154659D01*
X127558996Y-83025078D01*
X127520523Y-82953100D01*
X127479976Y-82877242D01*
X127431313Y-82716823D01*
X127414883Y-82550000D01*
X127431313Y-82383177D01*
X127479976Y-82222758D01*
X127558995Y-82074924D01*
X127558996Y-82074922D01*
X127665341Y-81945341D01*
X127794922Y-81838996D01*
X127875639Y-81795852D01*
X127942758Y-81759976D01*
X128103177Y-81711313D01*
X128228196Y-81699000D01*
X128311804Y-81699000D01*
X128436823Y-81711313D01*
X128436823Y-81711313D01*
G37*
G36*
X118358228Y-81731703D02*
G01*
X118513100Y-81795853D01*
X118652481Y-81888985D01*
X118771015Y-82007519D01*
X118864147Y-82146900D01*
X118928297Y-82301772D01*
X118961000Y-82466184D01*
X118961000Y-82633816D01*
X118928297Y-82798228D01*
X118864147Y-82953100D01*
X118771015Y-83092481D01*
X118652481Y-83211015D01*
X118513100Y-83304147D01*
X118358228Y-83368297D01*
X118193816Y-83401000D01*
X118026184Y-83401000D01*
X117861772Y-83368297D01*
X117706900Y-83304147D01*
X117567519Y-83211015D01*
X117448985Y-83092481D01*
X117355853Y-82953100D01*
X117291703Y-82798228D01*
X117259000Y-82633816D01*
X117259000Y-82466184D01*
X117291703Y-82301772D01*
X117355853Y-82146900D01*
X117448985Y-82007519D01*
X117567519Y-81888985D01*
X117706900Y-81795853D01*
X117861772Y-81731703D01*
X118026184Y-81699000D01*
X118193816Y-81699000D01*
X118358228Y-81731703D01*
X118358228Y-81731703D01*
G37*
G36*
X141821000Y-83401000D02*
G01*
X140119000Y-83401000D01*
X140119000Y-81699000D01*
X141821000Y-81699000D01*
X141821000Y-83401000D01*
X141821000Y-83401000D01*
G37*
G36*
X148756823Y-81711313D02*
G01*
X148917242Y-81759976D01*
X148984361Y-81795852D01*
X149065078Y-81838996D01*
X149194659Y-81945341D01*
X149301004Y-82074922D01*
X149301005Y-82074924D01*
X149380024Y-82222758D01*
X149428687Y-82383177D01*
X149445117Y-82550000D01*
X149428687Y-82716823D01*
X149380024Y-82877242D01*
X149339477Y-82953100D01*
X149301004Y-83025078D01*
X149194659Y-83154659D01*
X149065078Y-83261004D01*
X149065076Y-83261005D01*
X148917242Y-83340024D01*
X148756823Y-83388687D01*
X148631804Y-83401000D01*
X148548196Y-83401000D01*
X148423177Y-83388687D01*
X148262758Y-83340024D01*
X148114924Y-83261005D01*
X148114922Y-83261004D01*
X147985341Y-83154659D01*
X147878996Y-83025078D01*
X147840523Y-82953100D01*
X147799976Y-82877242D01*
X147751313Y-82716823D01*
X147734883Y-82550000D01*
X147751313Y-82383177D01*
X147799976Y-82222758D01*
X147878995Y-82074924D01*
X147878996Y-82074922D01*
X147985341Y-81945341D01*
X148114922Y-81838996D01*
X148195639Y-81795852D01*
X148262758Y-81759976D01*
X148423177Y-81711313D01*
X148548196Y-81699000D01*
X148631804Y-81699000D01*
X148756823Y-81711313D01*
X148756823Y-81711313D01*
G37*
G36*
X157590442Y-80385518D02*
G01*
X157656627Y-80392037D01*
X157826466Y-80443557D01*
X157982991Y-80527222D01*
X158013768Y-80552480D01*
X158120186Y-80639814D01*
X158203448Y-80741271D01*
X158232778Y-80777009D01*
X158316443Y-80933534D01*
X158367963Y-81103373D01*
X158385359Y-81280000D01*
X158367963Y-81456627D01*
X158316443Y-81626466D01*
X158232778Y-81782991D01*
X158222223Y-81795852D01*
X158120186Y-81920186D01*
X158018729Y-82003448D01*
X157982991Y-82032778D01*
X157826466Y-82116443D01*
X157656627Y-82167963D01*
X157590443Y-82174481D01*
X157524260Y-82181000D01*
X157435740Y-82181000D01*
X157369557Y-82174481D01*
X157303373Y-82167963D01*
X157133534Y-82116443D01*
X156977009Y-82032778D01*
X156941271Y-82003448D01*
X156839814Y-81920186D01*
X156737777Y-81795852D01*
X156727222Y-81782991D01*
X156643557Y-81626466D01*
X156592037Y-81456627D01*
X156574641Y-81280000D01*
X156592037Y-81103373D01*
X156643557Y-80933534D01*
X156727222Y-80777009D01*
X156756552Y-80741271D01*
X156839814Y-80639814D01*
X156946232Y-80552480D01*
X156977009Y-80527222D01*
X157133534Y-80443557D01*
X157303373Y-80392037D01*
X157369558Y-80385518D01*
X157435740Y-80379000D01*
X157524260Y-80379000D01*
X157590442Y-80385518D01*
X157590442Y-80385518D01*
G37*
G36*
X160130442Y-80385518D02*
G01*
X160196627Y-80392037D01*
X160366466Y-80443557D01*
X160522991Y-80527222D01*
X160553768Y-80552480D01*
X160660186Y-80639814D01*
X160743448Y-80741271D01*
X160772778Y-80777009D01*
X160856443Y-80933534D01*
X160907963Y-81103373D01*
X160925359Y-81280000D01*
X160907963Y-81456627D01*
X160856443Y-81626466D01*
X160772778Y-81782991D01*
X160762223Y-81795852D01*
X160660186Y-81920186D01*
X160558729Y-82003448D01*
X160522991Y-82032778D01*
X160366466Y-82116443D01*
X160196627Y-82167963D01*
X160130443Y-82174481D01*
X160064260Y-82181000D01*
X159975740Y-82181000D01*
X159909557Y-82174481D01*
X159843373Y-82167963D01*
X159673534Y-82116443D01*
X159517009Y-82032778D01*
X159481271Y-82003448D01*
X159379814Y-81920186D01*
X159277777Y-81795852D01*
X159267222Y-81782991D01*
X159183557Y-81626466D01*
X159132037Y-81456627D01*
X159114641Y-81280000D01*
X159132037Y-81103373D01*
X159183557Y-80933534D01*
X159267222Y-80777009D01*
X159296552Y-80741271D01*
X159379814Y-80639814D01*
X159486232Y-80552480D01*
X159517009Y-80527222D01*
X159673534Y-80443557D01*
X159843373Y-80392037D01*
X159909558Y-80385518D01*
X159975740Y-80379000D01*
X160064260Y-80379000D01*
X160130442Y-80385518D01*
X160130442Y-80385518D01*
G37*
G36*
X162670442Y-80385518D02*
G01*
X162736627Y-80392037D01*
X162906466Y-80443557D01*
X163062991Y-80527222D01*
X163093768Y-80552480D01*
X163200186Y-80639814D01*
X163283448Y-80741271D01*
X163312778Y-80777009D01*
X163396443Y-80933534D01*
X163447963Y-81103373D01*
X163465359Y-81280000D01*
X163447963Y-81456627D01*
X163396443Y-81626466D01*
X163312778Y-81782991D01*
X163302223Y-81795852D01*
X163200186Y-81920186D01*
X163098729Y-82003448D01*
X163062991Y-82032778D01*
X162906466Y-82116443D01*
X162736627Y-82167963D01*
X162670443Y-82174481D01*
X162604260Y-82181000D01*
X162515740Y-82181000D01*
X162449557Y-82174481D01*
X162383373Y-82167963D01*
X162213534Y-82116443D01*
X162057009Y-82032778D01*
X162021271Y-82003448D01*
X161919814Y-81920186D01*
X161817777Y-81795852D01*
X161807222Y-81782991D01*
X161723557Y-81626466D01*
X161672037Y-81456627D01*
X161654641Y-81280000D01*
X161672037Y-81103373D01*
X161723557Y-80933534D01*
X161807222Y-80777009D01*
X161836552Y-80741271D01*
X161919814Y-80639814D01*
X162026232Y-80552480D01*
X162057009Y-80527222D01*
X162213534Y-80443557D01*
X162383373Y-80392037D01*
X162449558Y-80385518D01*
X162515740Y-80379000D01*
X162604260Y-80379000D01*
X162670442Y-80385518D01*
X162670442Y-80385518D01*
G37*
G36*
X166001000Y-82181000D02*
G01*
X164199000Y-82181000D01*
X164199000Y-80379000D01*
X166001000Y-80379000D01*
X166001000Y-82181000D01*
X166001000Y-82181000D01*
G37*
G36*
X155050442Y-80385518D02*
G01*
X155116627Y-80392037D01*
X155286466Y-80443557D01*
X155442991Y-80527222D01*
X155473768Y-80552480D01*
X155580186Y-80639814D01*
X155663448Y-80741271D01*
X155692778Y-80777009D01*
X155776443Y-80933534D01*
X155827963Y-81103373D01*
X155845359Y-81280000D01*
X155827963Y-81456627D01*
X155776443Y-81626466D01*
X155692778Y-81782991D01*
X155682223Y-81795852D01*
X155580186Y-81920186D01*
X155478729Y-82003448D01*
X155442991Y-82032778D01*
X155286466Y-82116443D01*
X155116627Y-82167963D01*
X155050443Y-82174481D01*
X154984260Y-82181000D01*
X154895740Y-82181000D01*
X154829557Y-82174481D01*
X154763373Y-82167963D01*
X154593534Y-82116443D01*
X154437009Y-82032778D01*
X154401271Y-82003448D01*
X154299814Y-81920186D01*
X154197777Y-81795852D01*
X154187222Y-81782991D01*
X154103557Y-81626466D01*
X154052037Y-81456627D01*
X154034641Y-81280000D01*
X154052037Y-81103373D01*
X154103557Y-80933534D01*
X154187222Y-80777009D01*
X154216552Y-80741271D01*
X154299814Y-80639814D01*
X154406232Y-80552480D01*
X154437009Y-80527222D01*
X154593534Y-80443557D01*
X154763373Y-80392037D01*
X154829558Y-80385518D01*
X154895740Y-80379000D01*
X154984260Y-80379000D01*
X155050442Y-80385518D01*
X155050442Y-80385518D01*
G37*
G36*
X127169271Y-78870103D02*
G01*
X127225635Y-78875654D01*
X127442600Y-78941470D01*
X127442602Y-78941471D01*
X127642555Y-79048347D01*
X127817818Y-79192182D01*
X127961653Y-79367445D01*
X128051170Y-79534922D01*
X128068530Y-79567400D01*
X128134346Y-79784365D01*
X128156569Y-80010000D01*
X128134346Y-80235635D01*
X128071273Y-80443558D01*
X128068529Y-80452602D01*
X127961653Y-80652555D01*
X127817818Y-80827818D01*
X127642555Y-80971653D01*
X127442602Y-81078529D01*
X127442600Y-81078530D01*
X127225635Y-81144346D01*
X127169271Y-81149897D01*
X127056545Y-81161000D01*
X126943455Y-81161000D01*
X126830729Y-81149897D01*
X126774365Y-81144346D01*
X126557400Y-81078530D01*
X126557398Y-81078529D01*
X126357445Y-80971653D01*
X126182182Y-80827818D01*
X126038347Y-80652555D01*
X125931471Y-80452602D01*
X125928728Y-80443558D01*
X125865654Y-80235635D01*
X125843431Y-80010000D01*
X125865654Y-79784365D01*
X125931470Y-79567400D01*
X125948830Y-79534922D01*
X126038347Y-79367445D01*
X126182182Y-79192182D01*
X126357445Y-79048347D01*
X126557398Y-78941471D01*
X126557400Y-78941470D01*
X126774365Y-78875654D01*
X126830729Y-78870103D01*
X126943455Y-78859000D01*
X127056545Y-78859000D01*
X127169271Y-78870103D01*
X127169271Y-78870103D01*
G37*
G36*
X172917090Y-78875654D02*
G01*
X173055734Y-78903232D01*
X173265203Y-78989997D01*
X173453720Y-79115960D01*
X173614040Y-79276280D01*
X173740003Y-79464797D01*
X173740004Y-79464799D01*
X173741131Y-79467520D01*
X173826768Y-79674266D01*
X173871000Y-79896636D01*
X173871000Y-80123364D01*
X173826768Y-80345734D01*
X173782502Y-80452602D01*
X173741131Y-80552481D01*
X173740003Y-80555203D01*
X173614040Y-80743720D01*
X173453720Y-80904040D01*
X173265203Y-81030003D01*
X173055734Y-81116768D01*
X172944549Y-81138884D01*
X172833365Y-81161000D01*
X172606635Y-81161000D01*
X172495451Y-81138884D01*
X172384266Y-81116768D01*
X172174797Y-81030003D01*
X171986280Y-80904040D01*
X171825960Y-80743720D01*
X171699997Y-80555203D01*
X171698870Y-80552481D01*
X171657498Y-80452602D01*
X171613232Y-80345734D01*
X171569000Y-80123364D01*
X171569000Y-79896636D01*
X171613232Y-79674266D01*
X171698869Y-79467520D01*
X171699996Y-79464799D01*
X171699997Y-79464797D01*
X171825960Y-79276280D01*
X171986280Y-79115960D01*
X172174797Y-78989997D01*
X172384266Y-78903232D01*
X172522910Y-78875654D01*
X172606635Y-78859000D01*
X172833365Y-78859000D01*
X172917090Y-78875654D01*
X172917090Y-78875654D01*
G37*
G36*
X138311000Y-81161000D02*
G01*
X136009000Y-81161000D01*
X136009000Y-78859000D01*
X138311000Y-78859000D01*
X138311000Y-81161000D01*
X138311000Y-81161000D01*
G37*
G36*
X113227090Y-78875654D02*
G01*
X113365734Y-78903232D01*
X113575203Y-78989997D01*
X113763720Y-79115960D01*
X113924040Y-79276280D01*
X114050003Y-79464797D01*
X114050004Y-79464799D01*
X114051131Y-79467520D01*
X114136768Y-79674266D01*
X114181000Y-79896636D01*
X114181000Y-80123364D01*
X114136768Y-80345734D01*
X114092502Y-80452602D01*
X114051131Y-80552481D01*
X114050003Y-80555203D01*
X113924040Y-80743720D01*
X113763720Y-80904040D01*
X113575203Y-81030003D01*
X113365734Y-81116768D01*
X113254549Y-81138884D01*
X113143365Y-81161000D01*
X112916635Y-81161000D01*
X112805451Y-81138884D01*
X112694266Y-81116768D01*
X112484797Y-81030003D01*
X112296280Y-80904040D01*
X112135960Y-80743720D01*
X112009997Y-80555203D01*
X112008870Y-80552481D01*
X111967498Y-80452602D01*
X111923232Y-80345734D01*
X111879000Y-80123364D01*
X111879000Y-79896636D01*
X111923232Y-79674266D01*
X112008869Y-79467520D01*
X112009996Y-79464799D01*
X112009997Y-79464797D01*
X112135960Y-79276280D01*
X112296280Y-79115960D01*
X112484797Y-78989997D01*
X112694266Y-78903232D01*
X112832910Y-78875654D01*
X112916635Y-78859000D01*
X113143365Y-78859000D01*
X113227090Y-78875654D01*
X113227090Y-78875654D01*
G37*
G36*
X151296823Y-79171313D02*
G01*
X151457242Y-79219976D01*
X151524361Y-79255852D01*
X151605078Y-79298996D01*
X151734659Y-79405341D01*
X151841004Y-79534922D01*
X151841005Y-79534924D01*
X151920024Y-79682758D01*
X151968687Y-79843177D01*
X151985117Y-80010000D01*
X151968687Y-80176823D01*
X151920024Y-80337242D01*
X151879477Y-80413100D01*
X151841004Y-80485078D01*
X151734659Y-80614659D01*
X151605078Y-80721004D01*
X151605076Y-80721005D01*
X151457242Y-80800024D01*
X151296823Y-80848687D01*
X151171804Y-80861000D01*
X151088196Y-80861000D01*
X150963177Y-80848687D01*
X150802758Y-80800024D01*
X150654924Y-80721005D01*
X150654922Y-80721004D01*
X150525341Y-80614659D01*
X150418996Y-80485078D01*
X150380523Y-80413100D01*
X150339976Y-80337242D01*
X150291313Y-80176823D01*
X150274883Y-80010000D01*
X150291313Y-79843177D01*
X150339976Y-79682758D01*
X150418995Y-79534924D01*
X150418996Y-79534922D01*
X150525341Y-79405341D01*
X150654922Y-79298996D01*
X150735639Y-79255852D01*
X150802758Y-79219976D01*
X150963177Y-79171313D01*
X151088196Y-79159000D01*
X151171804Y-79159000D01*
X151296823Y-79171313D01*
X151296823Y-79171313D01*
G37*
G36*
X141218228Y-79191703D02*
G01*
X141373100Y-79255853D01*
X141512481Y-79348985D01*
X141631015Y-79467519D01*
X141724147Y-79606900D01*
X141788297Y-79761772D01*
X141821000Y-79926184D01*
X141821000Y-80093816D01*
X141788297Y-80258228D01*
X141724147Y-80413100D01*
X141631015Y-80552481D01*
X141512481Y-80671015D01*
X141373100Y-80764147D01*
X141218228Y-80828297D01*
X141053816Y-80861000D01*
X140886184Y-80861000D01*
X140721772Y-80828297D01*
X140566900Y-80764147D01*
X140427519Y-80671015D01*
X140308985Y-80552481D01*
X140215853Y-80413100D01*
X140151703Y-80258228D01*
X140119000Y-80093816D01*
X140119000Y-79926184D01*
X140151703Y-79761772D01*
X140215853Y-79606900D01*
X140308985Y-79467519D01*
X140427519Y-79348985D01*
X140566900Y-79255853D01*
X140721772Y-79191703D01*
X140886184Y-79159000D01*
X141053816Y-79159000D01*
X141218228Y-79191703D01*
X141218228Y-79191703D01*
G37*
G36*
X121551000Y-79641000D02*
G01*
X119749000Y-79641000D01*
X119749000Y-77839000D01*
X121551000Y-77839000D01*
X121551000Y-79641000D01*
X121551000Y-79641000D01*
G37*
G36*
X160130443Y-77845519D02*
G01*
X160196627Y-77852037D01*
X160366466Y-77903557D01*
X160522991Y-77987222D01*
X160558729Y-78016552D01*
X160660186Y-78099814D01*
X160743448Y-78201271D01*
X160772778Y-78237009D01*
X160856443Y-78393534D01*
X160907963Y-78563373D01*
X160925359Y-78740000D01*
X160907963Y-78916627D01*
X160856443Y-79086466D01*
X160772778Y-79242991D01*
X160762223Y-79255852D01*
X160660186Y-79380186D01*
X160558729Y-79463448D01*
X160522991Y-79492778D01*
X160366466Y-79576443D01*
X160196627Y-79627963D01*
X160130442Y-79634482D01*
X160064260Y-79641000D01*
X159975740Y-79641000D01*
X159909558Y-79634482D01*
X159843373Y-79627963D01*
X159673534Y-79576443D01*
X159517009Y-79492778D01*
X159481271Y-79463448D01*
X159379814Y-79380186D01*
X159277777Y-79255852D01*
X159267222Y-79242991D01*
X159183557Y-79086466D01*
X159132037Y-78916627D01*
X159114641Y-78740000D01*
X159132037Y-78563373D01*
X159183557Y-78393534D01*
X159267222Y-78237009D01*
X159296552Y-78201271D01*
X159379814Y-78099814D01*
X159481271Y-78016552D01*
X159517009Y-77987222D01*
X159673534Y-77903557D01*
X159843373Y-77852037D01*
X159909557Y-77845519D01*
X159975740Y-77839000D01*
X160064260Y-77839000D01*
X160130443Y-77845519D01*
X160130443Y-77845519D01*
G37*
G36*
X155050443Y-77845519D02*
G01*
X155116627Y-77852037D01*
X155286466Y-77903557D01*
X155442991Y-77987222D01*
X155478729Y-78016552D01*
X155580186Y-78099814D01*
X155663448Y-78201271D01*
X155692778Y-78237009D01*
X155776443Y-78393534D01*
X155827963Y-78563373D01*
X155845359Y-78740000D01*
X155827963Y-78916627D01*
X155776443Y-79086466D01*
X155692778Y-79242991D01*
X155682223Y-79255852D01*
X155580186Y-79380186D01*
X155478729Y-79463448D01*
X155442991Y-79492778D01*
X155286466Y-79576443D01*
X155116627Y-79627963D01*
X155050442Y-79634482D01*
X154984260Y-79641000D01*
X154895740Y-79641000D01*
X154829558Y-79634482D01*
X154763373Y-79627963D01*
X154593534Y-79576443D01*
X154437009Y-79492778D01*
X154401271Y-79463448D01*
X154299814Y-79380186D01*
X154197777Y-79255852D01*
X154187222Y-79242991D01*
X154103557Y-79086466D01*
X154052037Y-78916627D01*
X154034641Y-78740000D01*
X154052037Y-78563373D01*
X154103557Y-78393534D01*
X154187222Y-78237009D01*
X154216552Y-78201271D01*
X154299814Y-78099814D01*
X154401271Y-78016552D01*
X154437009Y-77987222D01*
X154593534Y-77903557D01*
X154763373Y-77852037D01*
X154829557Y-77845519D01*
X154895740Y-77839000D01*
X154984260Y-77839000D01*
X155050443Y-77845519D01*
X155050443Y-77845519D01*
G37*
G36*
X157590443Y-77845519D02*
G01*
X157656627Y-77852037D01*
X157826466Y-77903557D01*
X157982991Y-77987222D01*
X158018729Y-78016552D01*
X158120186Y-78099814D01*
X158203448Y-78201271D01*
X158232778Y-78237009D01*
X158316443Y-78393534D01*
X158367963Y-78563373D01*
X158385359Y-78740000D01*
X158367963Y-78916627D01*
X158316443Y-79086466D01*
X158232778Y-79242991D01*
X158222223Y-79255852D01*
X158120186Y-79380186D01*
X158018729Y-79463448D01*
X157982991Y-79492778D01*
X157826466Y-79576443D01*
X157656627Y-79627963D01*
X157590442Y-79634482D01*
X157524260Y-79641000D01*
X157435740Y-79641000D01*
X157369558Y-79634482D01*
X157303373Y-79627963D01*
X157133534Y-79576443D01*
X156977009Y-79492778D01*
X156941271Y-79463448D01*
X156839814Y-79380186D01*
X156737777Y-79255852D01*
X156727222Y-79242991D01*
X156643557Y-79086466D01*
X156592037Y-78916627D01*
X156574641Y-78740000D01*
X156592037Y-78563373D01*
X156643557Y-78393534D01*
X156727222Y-78237009D01*
X156756552Y-78201271D01*
X156839814Y-78099814D01*
X156941271Y-78016552D01*
X156977009Y-77987222D01*
X157133534Y-77903557D01*
X157303373Y-77852037D01*
X157369557Y-77845519D01*
X157435740Y-77839000D01*
X157524260Y-77839000D01*
X157590443Y-77845519D01*
X157590443Y-77845519D01*
G37*
G36*
X118220443Y-77845519D02*
G01*
X118286627Y-77852037D01*
X118456466Y-77903557D01*
X118612991Y-77987222D01*
X118648729Y-78016552D01*
X118750186Y-78099814D01*
X118833448Y-78201271D01*
X118862778Y-78237009D01*
X118946443Y-78393534D01*
X118997963Y-78563373D01*
X119015359Y-78740000D01*
X118997963Y-78916627D01*
X118946443Y-79086466D01*
X118862778Y-79242991D01*
X118852223Y-79255852D01*
X118750186Y-79380186D01*
X118648729Y-79463448D01*
X118612991Y-79492778D01*
X118456466Y-79576443D01*
X118286627Y-79627963D01*
X118220442Y-79634482D01*
X118154260Y-79641000D01*
X118065740Y-79641000D01*
X117999558Y-79634482D01*
X117933373Y-79627963D01*
X117763534Y-79576443D01*
X117607009Y-79492778D01*
X117571271Y-79463448D01*
X117469814Y-79380186D01*
X117367777Y-79255852D01*
X117357222Y-79242991D01*
X117273557Y-79086466D01*
X117222037Y-78916627D01*
X117204641Y-78740000D01*
X117222037Y-78563373D01*
X117273557Y-78393534D01*
X117357222Y-78237009D01*
X117386552Y-78201271D01*
X117469814Y-78099814D01*
X117571271Y-78016552D01*
X117607009Y-77987222D01*
X117763534Y-77903557D01*
X117933373Y-77852037D01*
X117999557Y-77845519D01*
X118065740Y-77839000D01*
X118154260Y-77839000D01*
X118220443Y-77845519D01*
X118220443Y-77845519D01*
G37*
G36*
X165210443Y-77845519D02*
G01*
X165276627Y-77852037D01*
X165446466Y-77903557D01*
X165602991Y-77987222D01*
X165638729Y-78016552D01*
X165740186Y-78099814D01*
X165823448Y-78201271D01*
X165852778Y-78237009D01*
X165936443Y-78393534D01*
X165987963Y-78563373D01*
X166005359Y-78740000D01*
X165987963Y-78916627D01*
X165936443Y-79086466D01*
X165852778Y-79242991D01*
X165842223Y-79255852D01*
X165740186Y-79380186D01*
X165638729Y-79463448D01*
X165602991Y-79492778D01*
X165446466Y-79576443D01*
X165276627Y-79627963D01*
X165210442Y-79634482D01*
X165144260Y-79641000D01*
X165055740Y-79641000D01*
X164989558Y-79634482D01*
X164923373Y-79627963D01*
X164753534Y-79576443D01*
X164597009Y-79492778D01*
X164561271Y-79463448D01*
X164459814Y-79380186D01*
X164357777Y-79255852D01*
X164347222Y-79242991D01*
X164263557Y-79086466D01*
X164212037Y-78916627D01*
X164194641Y-78740000D01*
X164212037Y-78563373D01*
X164263557Y-78393534D01*
X164347222Y-78237009D01*
X164376552Y-78201271D01*
X164459814Y-78099814D01*
X164561271Y-78016552D01*
X164597009Y-77987222D01*
X164753534Y-77903557D01*
X164923373Y-77852037D01*
X164989557Y-77845519D01*
X165055740Y-77839000D01*
X165144260Y-77839000D01*
X165210443Y-77845519D01*
X165210443Y-77845519D01*
G37*
G36*
X162670443Y-77845519D02*
G01*
X162736627Y-77852037D01*
X162906466Y-77903557D01*
X163062991Y-77987222D01*
X163098729Y-78016552D01*
X163200186Y-78099814D01*
X163283448Y-78201271D01*
X163312778Y-78237009D01*
X163396443Y-78393534D01*
X163447963Y-78563373D01*
X163465359Y-78740000D01*
X163447963Y-78916627D01*
X163396443Y-79086466D01*
X163312778Y-79242991D01*
X163302223Y-79255852D01*
X163200186Y-79380186D01*
X163098729Y-79463448D01*
X163062991Y-79492778D01*
X162906466Y-79576443D01*
X162736627Y-79627963D01*
X162670442Y-79634482D01*
X162604260Y-79641000D01*
X162515740Y-79641000D01*
X162449558Y-79634482D01*
X162383373Y-79627963D01*
X162213534Y-79576443D01*
X162057009Y-79492778D01*
X162021271Y-79463448D01*
X161919814Y-79380186D01*
X161817777Y-79255852D01*
X161807222Y-79242991D01*
X161723557Y-79086466D01*
X161672037Y-78916627D01*
X161654641Y-78740000D01*
X161672037Y-78563373D01*
X161723557Y-78393534D01*
X161807222Y-78237009D01*
X161836552Y-78201271D01*
X161919814Y-78099814D01*
X162021271Y-78016552D01*
X162057009Y-77987222D01*
X162213534Y-77903557D01*
X162383373Y-77852037D01*
X162449557Y-77845519D01*
X162515740Y-77839000D01*
X162604260Y-77839000D01*
X162670443Y-77845519D01*
X162670443Y-77845519D01*
G37*
M02*
