M48
; DRILL file {KiCad (5.1.0)-1} date 16/12/2020 0:25:53
; FORMAT={-:-/ absolute / metric / decimal}
; #@! TF.CreationDate,2020-12-16T00:25:53+01:00
; #@! TF.GenerationSoftware,Kicad,Pcbnew,(5.1.0)-1
; #@! TF.FileFunction,Plated,1,2,PTH
FMAT,2
METRIC
T1C0.750
T2C0.800
T3C0.900
T4C1.000
T5C1.100
%
G90
G05
T1
X143.51Y-120.65
X144.78Y-120.65
X146.05Y-120.65
X130.81Y-90.17
X130.81Y-91.44
X130.81Y-92.71
T2
X157.48Y-83.82
X157.48Y-93.98
X123.19Y-90.17
X123.19Y-92.67
X128.27Y-119.38
X135.89Y-119.38
X120.65Y-96.52
X120.65Y-106.68
X123.19Y-101.68
X123.19Y-106.68
X125.73Y-86.36
X128.27Y-86.36
X130.81Y-86.36
X140.97Y-80.01
X151.13Y-80.01
X167.64Y-83.82
X167.64Y-93.98
X154.94Y-96.52
X159.94Y-96.52
X160.02Y-83.82
X160.02Y-93.98
X128.27Y-111.76
X135.89Y-111.76
X137.24Y-93.98
X142.24Y-93.98
X127.0Y-100.33
X127.0Y-107.95
X129.54Y-100.33
X129.54Y-107.95
X132.08Y-100.33
X132.08Y-107.95
X134.62Y-100.33
X134.62Y-107.95
X137.16Y-100.33
X137.16Y-107.95
X139.7Y-100.33
X139.7Y-107.95
X142.24Y-100.33
X142.24Y-107.95
X144.78Y-100.33
X144.78Y-107.95
X147.32Y-100.33
X147.32Y-107.95
X149.86Y-100.33
X149.86Y-107.95
X152.4Y-100.33
X152.4Y-107.95
X154.94Y-100.33
X154.94Y-107.95
X157.48Y-100.33
X157.48Y-107.95
X160.02Y-100.33
X160.02Y-107.95
X128.27Y-114.3
X138.43Y-114.3
X151.21Y-118.11
X156.21Y-118.11
X163.83Y-97.79
X163.83Y-107.95
X137.24Y-96.52
X142.24Y-96.52
X162.56Y-83.82
X162.56Y-93.98
X118.11Y-82.55
X128.27Y-82.55
X118.11Y-99.06
X118.11Y-106.68
X154.94Y-83.82
X154.94Y-93.98
X135.89Y-86.4
X135.89Y-88.9
X140.97Y-82.55
X148.59Y-82.55
X144.78Y-93.98
X144.78Y-96.52
X152.4Y-93.98
X152.4Y-96.52
X128.27Y-116.84
X138.43Y-116.84
X151.21Y-120.65
X156.21Y-120.65
X124.46Y-96.52
X134.62Y-96.52
X165.1Y-83.82
X165.1Y-93.98
X149.86Y-113.03
X154.76Y-113.03
X168.95Y-97.79
X171.45Y-97.79
T3
X142.24Y-114.3
X144.78Y-114.3
T4
X154.94Y-78.74
X154.94Y-81.28
X157.48Y-78.74
X157.48Y-81.28
X160.02Y-78.74
X160.02Y-81.28
X162.56Y-78.74
X162.56Y-81.28
X165.1Y-78.74
X165.1Y-81.28
X118.11Y-78.74
X120.65Y-78.74
X128.27Y-121.92
X130.81Y-121.92
X133.35Y-121.92
X135.89Y-121.92
X138.43Y-121.92
X114.3Y-104.14
X114.3Y-106.68
T5
X162.56Y-113.11
X162.56Y-118.11
X167.56Y-113.11
X167.56Y-118.11
X118.11Y-113.11
X118.11Y-118.11
X123.11Y-113.11
X123.11Y-118.11
X127.0Y-80.01
X137.16Y-80.01
X118.11Y-86.36
X120.4Y-86.36
X122.69Y-86.36
T0
M30
