G04 #@! TF.GenerationSoftware,KiCad,Pcbnew,(5.1.0)-1*
G04 #@! TF.CreationDate,2020-12-16T18:10:22+01:00*
G04 #@! TF.ProjectId,ECG Patient simulator,45434720-5061-4746-9965-6e742073696d,1.0*
G04 #@! TF.SameCoordinates,Original*
G04 #@! TF.FileFunction,Legend,Top*
G04 #@! TF.FilePolarity,Positive*
%FSLAX46Y46*%
G04 Gerber Fmt 4.6, Leading zero omitted, Abs format (unit mm)*
G04 Created by KiCad (PCBNEW (5.1.0)-1) date 2020-12-16 18:10:22*
%MOMM*%
%LPD*%
G04 APERTURE LIST*
%ADD10C,0.150000*%
%ADD11C,0.200000*%
%ADD12C,0.120000*%
G04 APERTURE END LIST*
D10*
X173443571Y-116591428D02*
X173500714Y-116648571D01*
X173557857Y-116820000D01*
X173557857Y-116934285D01*
X173500714Y-117105714D01*
X173386428Y-117220000D01*
X173272142Y-117277142D01*
X173043571Y-117334285D01*
X172872142Y-117334285D01*
X172643571Y-117277142D01*
X172529285Y-117220000D01*
X172415000Y-117105714D01*
X172357857Y-116934285D01*
X172357857Y-116820000D01*
X172415000Y-116648571D01*
X172472142Y-116591428D01*
X172929285Y-116077142D02*
X172929285Y-115677142D01*
X173557857Y-115505714D02*
X173557857Y-116077142D01*
X172357857Y-116077142D01*
X172357857Y-115505714D01*
X173557857Y-114305714D02*
X172986428Y-114705714D01*
X173557857Y-114991428D02*
X172357857Y-114991428D01*
X172357857Y-114534285D01*
X172415000Y-114420000D01*
X172472142Y-114362857D01*
X172586428Y-114305714D01*
X172757857Y-114305714D01*
X172872142Y-114362857D01*
X172929285Y-114420000D01*
X172986428Y-114534285D01*
X172986428Y-114991428D01*
X173557857Y-113791428D02*
X172357857Y-113791428D01*
X173557857Y-113105714D01*
X172357857Y-113105714D01*
X173100714Y-112534285D02*
X173100714Y-111620000D01*
X172357857Y-110820000D02*
X172357857Y-110591428D01*
X172415000Y-110477142D01*
X172529285Y-110362857D01*
X172757857Y-110305714D01*
X173157857Y-110305714D01*
X173386428Y-110362857D01*
X173500714Y-110477142D01*
X173557857Y-110591428D01*
X173557857Y-110820000D01*
X173500714Y-110934285D01*
X173386428Y-111048571D01*
X173157857Y-111105714D01*
X172757857Y-111105714D01*
X172529285Y-111048571D01*
X172415000Y-110934285D01*
X172357857Y-110820000D01*
X173557857Y-109791428D02*
X172357857Y-109791428D01*
X172929285Y-109791428D02*
X172929285Y-109105714D01*
X173557857Y-109105714D02*
X172357857Y-109105714D01*
X173557857Y-107962857D02*
X173557857Y-108534285D01*
X172357857Y-108534285D01*
X173100714Y-107562857D02*
X173100714Y-106648571D01*
X173500714Y-106134285D02*
X173557857Y-105962857D01*
X173557857Y-105677142D01*
X173500714Y-105562857D01*
X173443571Y-105505714D01*
X173329285Y-105448571D01*
X173215000Y-105448571D01*
X173100714Y-105505714D01*
X173043571Y-105562857D01*
X172986428Y-105677142D01*
X172929285Y-105905714D01*
X172872142Y-106020000D01*
X172815000Y-106077142D01*
X172700714Y-106134285D01*
X172586428Y-106134285D01*
X172472142Y-106077142D01*
X172415000Y-106020000D01*
X172357857Y-105905714D01*
X172357857Y-105620000D01*
X172415000Y-105448571D01*
X173100714Y-104934285D02*
X173100714Y-104020000D01*
X172472142Y-103505714D02*
X172415000Y-103448571D01*
X172357857Y-103334285D01*
X172357857Y-103048571D01*
X172415000Y-102934285D01*
X172472142Y-102877142D01*
X172586428Y-102820000D01*
X172700714Y-102820000D01*
X172872142Y-102877142D01*
X173557857Y-103562857D01*
X173557857Y-102820000D01*
X173443571Y-102305714D02*
X173500714Y-102248571D01*
X173557857Y-102305714D01*
X173500714Y-102362857D01*
X173443571Y-102305714D01*
X173557857Y-102305714D01*
X172357857Y-101505714D02*
X172357857Y-101391428D01*
X172415000Y-101277142D01*
X172472142Y-101220000D01*
X172586428Y-101162857D01*
X172815000Y-101105714D01*
X173100714Y-101105714D01*
X173329285Y-101162857D01*
X173443571Y-101220000D01*
X173500714Y-101277142D01*
X173557857Y-101391428D01*
X173557857Y-101505714D01*
X173500714Y-101620000D01*
X173443571Y-101677142D01*
X173329285Y-101734285D01*
X173100714Y-101791428D01*
X172815000Y-101791428D01*
X172586428Y-101734285D01*
X172472142Y-101677142D01*
X172415000Y-101620000D01*
X172357857Y-101505714D01*
X175507857Y-111734285D02*
X175507857Y-112305714D01*
X174307857Y-112305714D01*
X175507857Y-111334285D02*
X174707857Y-111334285D01*
X174307857Y-111334285D02*
X174365000Y-111391428D01*
X174422142Y-111334285D01*
X174365000Y-111277142D01*
X174307857Y-111334285D01*
X174422142Y-111334285D01*
X175450714Y-110248571D02*
X175507857Y-110362857D01*
X175507857Y-110591428D01*
X175450714Y-110705714D01*
X175393571Y-110762857D01*
X175279285Y-110820000D01*
X174936428Y-110820000D01*
X174822142Y-110762857D01*
X174765000Y-110705714D01*
X174707857Y-110591428D01*
X174707857Y-110362857D01*
X174765000Y-110248571D01*
X175450714Y-109277142D02*
X175507857Y-109391428D01*
X175507857Y-109620000D01*
X175450714Y-109734285D01*
X175336428Y-109791428D01*
X174879285Y-109791428D01*
X174765000Y-109734285D01*
X174707857Y-109620000D01*
X174707857Y-109391428D01*
X174765000Y-109277142D01*
X174879285Y-109220000D01*
X174993571Y-109220000D01*
X175107857Y-109791428D01*
X174707857Y-108705714D02*
X175507857Y-108705714D01*
X174822142Y-108705714D02*
X174765000Y-108648571D01*
X174707857Y-108534285D01*
X174707857Y-108362857D01*
X174765000Y-108248571D01*
X174879285Y-108191428D01*
X175507857Y-108191428D01*
X175450714Y-107105714D02*
X175507857Y-107220000D01*
X175507857Y-107448571D01*
X175450714Y-107562857D01*
X175393571Y-107620000D01*
X175279285Y-107677142D01*
X174936428Y-107677142D01*
X174822142Y-107620000D01*
X174765000Y-107562857D01*
X174707857Y-107448571D01*
X174707857Y-107220000D01*
X174765000Y-107105714D01*
X175450714Y-106134285D02*
X175507857Y-106248571D01*
X175507857Y-106477142D01*
X175450714Y-106591428D01*
X175336428Y-106648571D01*
X174879285Y-106648571D01*
X174765000Y-106591428D01*
X174707857Y-106477142D01*
X174707857Y-106248571D01*
X174765000Y-106134285D01*
X174879285Y-106077142D01*
X174993571Y-106077142D01*
X175107857Y-106648571D01*
X170457619Y-77017619D02*
X170933809Y-77017619D01*
X170933809Y-78017619D01*
X170124285Y-77541428D02*
X169790952Y-77541428D01*
X169648095Y-77017619D02*
X170124285Y-77017619D01*
X170124285Y-78017619D01*
X169648095Y-78017619D01*
X169267142Y-77303333D02*
X168790952Y-77303333D01*
X169362380Y-77017619D02*
X169029047Y-78017619D01*
X168695714Y-77017619D01*
X168362380Y-77017619D02*
X168362380Y-78017619D01*
X168124285Y-78017619D01*
X167981428Y-77970000D01*
X167886190Y-77874761D01*
X167838571Y-77779523D01*
X167790952Y-77589047D01*
X167790952Y-77446190D01*
X167838571Y-77255714D01*
X167886190Y-77160476D01*
X167981428Y-77065238D01*
X168124285Y-77017619D01*
X168362380Y-77017619D01*
X167410000Y-77065238D02*
X167267142Y-77017619D01*
X167029047Y-77017619D01*
X166933809Y-77065238D01*
X166886190Y-77112857D01*
X166838571Y-77208095D01*
X166838571Y-77303333D01*
X166886190Y-77398571D01*
X166933809Y-77446190D01*
X167029047Y-77493809D01*
X167219523Y-77541428D01*
X167314761Y-77589047D01*
X167362380Y-77636666D01*
X167410000Y-77731904D01*
X167410000Y-77827142D01*
X167362380Y-77922380D01*
X167314761Y-77970000D01*
X167219523Y-78017619D01*
X166981428Y-78017619D01*
X166838571Y-77970000D01*
D11*
X114998571Y-78847142D02*
X116141428Y-78847142D01*
X122618571Y-78847142D02*
X123761428Y-78847142D01*
X123190000Y-79418571D02*
X123190000Y-78275714D01*
D10*
X173557857Y-92911071D02*
X172986428Y-93311071D01*
X173557857Y-93596785D02*
X172357857Y-93596785D01*
X172357857Y-93139642D01*
X172415000Y-93025357D01*
X172472142Y-92968214D01*
X172586428Y-92911071D01*
X172757857Y-92911071D01*
X172872142Y-92968214D01*
X172929285Y-93025357D01*
X172986428Y-93139642D01*
X172986428Y-93596785D01*
X172929285Y-92396785D02*
X172929285Y-91996785D01*
X173557857Y-91825357D02*
X173557857Y-92396785D01*
X172357857Y-92396785D01*
X172357857Y-91825357D01*
X172357857Y-91482500D02*
X173557857Y-91082500D01*
X172357857Y-90682500D01*
X173443571Y-90282500D02*
X173500714Y-90225357D01*
X173557857Y-90282500D01*
X173500714Y-90339642D01*
X173443571Y-90282500D01*
X173557857Y-90282500D01*
X172815000Y-90282500D02*
X172872142Y-90225357D01*
X172929285Y-90282500D01*
X172872142Y-90339642D01*
X172815000Y-90282500D01*
X172929285Y-90282500D01*
X173557857Y-88168214D02*
X173557857Y-88853928D01*
X173557857Y-88511071D02*
X172357857Y-88511071D01*
X172529285Y-88625357D01*
X172643571Y-88739642D01*
X172700714Y-88853928D01*
X173443571Y-87653928D02*
X173500714Y-87596785D01*
X173557857Y-87653928D01*
X173500714Y-87711071D01*
X173443571Y-87653928D01*
X173557857Y-87653928D01*
X172357857Y-86853928D02*
X172357857Y-86739642D01*
X172415000Y-86625357D01*
X172472142Y-86568214D01*
X172586428Y-86511071D01*
X172815000Y-86453928D01*
X173100714Y-86453928D01*
X173329285Y-86511071D01*
X173443571Y-86568214D01*
X173500714Y-86625357D01*
X173557857Y-86739642D01*
X173557857Y-86853928D01*
X173500714Y-86968214D01*
X173443571Y-87025357D01*
X173329285Y-87082500D01*
X173100714Y-87139642D01*
X172815000Y-87139642D01*
X172586428Y-87082500D01*
X172472142Y-87025357D01*
X172415000Y-86968214D01*
X172357857Y-86853928D01*
X174307857Y-93368214D02*
X174307857Y-93253928D01*
X174365000Y-93139642D01*
X174422142Y-93082500D01*
X174536428Y-93025357D01*
X174765000Y-92968214D01*
X175050714Y-92968214D01*
X175279285Y-93025357D01*
X175393571Y-93082500D01*
X175450714Y-93139642D01*
X175507857Y-93253928D01*
X175507857Y-93368214D01*
X175450714Y-93482500D01*
X175393571Y-93539642D01*
X175279285Y-93596785D01*
X175050714Y-93653928D01*
X174765000Y-93653928D01*
X174536428Y-93596785D01*
X174422142Y-93539642D01*
X174365000Y-93482500D01*
X174307857Y-93368214D01*
X175507857Y-92396785D02*
X175507857Y-92168214D01*
X175450714Y-92053928D01*
X175393571Y-91996785D01*
X175222142Y-91882500D01*
X174993571Y-91825357D01*
X174536428Y-91825357D01*
X174422142Y-91882500D01*
X174365000Y-91939642D01*
X174307857Y-92053928D01*
X174307857Y-92282500D01*
X174365000Y-92396785D01*
X174422142Y-92453928D01*
X174536428Y-92511071D01*
X174822142Y-92511071D01*
X174936428Y-92453928D01*
X174993571Y-92396785D01*
X175050714Y-92282500D01*
X175050714Y-92053928D01*
X174993571Y-91939642D01*
X174936428Y-91882500D01*
X174822142Y-91825357D01*
X175050714Y-91311071D02*
X175050714Y-90396785D01*
X174422142Y-89882500D02*
X174365000Y-89825357D01*
X174307857Y-89711071D01*
X174307857Y-89425357D01*
X174365000Y-89311071D01*
X174422142Y-89253928D01*
X174536428Y-89196785D01*
X174650714Y-89196785D01*
X174822142Y-89253928D01*
X175507857Y-89939642D01*
X175507857Y-89196785D01*
X174307857Y-88453928D02*
X174307857Y-88339642D01*
X174365000Y-88225357D01*
X174422142Y-88168214D01*
X174536428Y-88111071D01*
X174765000Y-88053928D01*
X175050714Y-88053928D01*
X175279285Y-88111071D01*
X175393571Y-88168214D01*
X175450714Y-88225357D01*
X175507857Y-88339642D01*
X175507857Y-88453928D01*
X175450714Y-88568214D01*
X175393571Y-88625357D01*
X175279285Y-88682500D01*
X175050714Y-88739642D01*
X174765000Y-88739642D01*
X174536428Y-88682500D01*
X174422142Y-88625357D01*
X174365000Y-88568214D01*
X174307857Y-88453928D01*
X174422142Y-87596785D02*
X174365000Y-87539642D01*
X174307857Y-87425357D01*
X174307857Y-87139642D01*
X174365000Y-87025357D01*
X174422142Y-86968214D01*
X174536428Y-86911071D01*
X174650714Y-86911071D01*
X174822142Y-86968214D01*
X175507857Y-87653928D01*
X175507857Y-86911071D01*
X174307857Y-86168214D02*
X174307857Y-86053928D01*
X174365000Y-85939642D01*
X174422142Y-85882500D01*
X174536428Y-85825357D01*
X174765000Y-85768214D01*
X175050714Y-85768214D01*
X175279285Y-85825357D01*
X175393571Y-85882500D01*
X175450714Y-85939642D01*
X175507857Y-86053928D01*
X175507857Y-86168214D01*
X175450714Y-86282500D01*
X175393571Y-86339642D01*
X175279285Y-86396785D01*
X175050714Y-86453928D01*
X174765000Y-86453928D01*
X174536428Y-86396785D01*
X174422142Y-86339642D01*
X174365000Y-86282500D01*
X174307857Y-86168214D01*
X110575714Y-95633214D02*
X110575714Y-96033214D01*
X109947142Y-96204642D02*
X109947142Y-95633214D01*
X111147142Y-95633214D01*
X111147142Y-96204642D01*
X110061428Y-97404642D02*
X110004285Y-97347500D01*
X109947142Y-97176071D01*
X109947142Y-97061785D01*
X110004285Y-96890357D01*
X110118571Y-96776071D01*
X110232857Y-96718928D01*
X110461428Y-96661785D01*
X110632857Y-96661785D01*
X110861428Y-96718928D01*
X110975714Y-96776071D01*
X111090000Y-96890357D01*
X111147142Y-97061785D01*
X111147142Y-97176071D01*
X111090000Y-97347500D01*
X111032857Y-97404642D01*
X111090000Y-98547500D02*
X111147142Y-98433214D01*
X111147142Y-98261785D01*
X111090000Y-98090357D01*
X110975714Y-97976071D01*
X110861428Y-97918928D01*
X110632857Y-97861785D01*
X110461428Y-97861785D01*
X110232857Y-97918928D01*
X110118571Y-97976071D01*
X110004285Y-98090357D01*
X109947142Y-98261785D01*
X109947142Y-98376071D01*
X110004285Y-98547500D01*
X110061428Y-98604642D01*
X110461428Y-98604642D01*
X110461428Y-98376071D01*
X109947142Y-100033214D02*
X111147142Y-100033214D01*
X111147142Y-100490357D01*
X111090000Y-100604642D01*
X111032857Y-100661785D01*
X110918571Y-100718928D01*
X110747142Y-100718928D01*
X110632857Y-100661785D01*
X110575714Y-100604642D01*
X110518571Y-100490357D01*
X110518571Y-100033214D01*
X109947142Y-101747500D02*
X110575714Y-101747500D01*
X110690000Y-101690357D01*
X110747142Y-101576071D01*
X110747142Y-101347500D01*
X110690000Y-101233214D01*
X110004285Y-101747500D02*
X109947142Y-101633214D01*
X109947142Y-101347500D01*
X110004285Y-101233214D01*
X110118571Y-101176071D01*
X110232857Y-101176071D01*
X110347142Y-101233214D01*
X110404285Y-101347500D01*
X110404285Y-101633214D01*
X110461428Y-101747500D01*
X110747142Y-102147500D02*
X110747142Y-102604642D01*
X111147142Y-102318928D02*
X110118571Y-102318928D01*
X110004285Y-102376071D01*
X109947142Y-102490357D01*
X109947142Y-102604642D01*
X109947142Y-103004642D02*
X110747142Y-103004642D01*
X111147142Y-103004642D02*
X111090000Y-102947500D01*
X111032857Y-103004642D01*
X111090000Y-103061785D01*
X111147142Y-103004642D01*
X111032857Y-103004642D01*
X110004285Y-104033214D02*
X109947142Y-103918928D01*
X109947142Y-103690357D01*
X110004285Y-103576071D01*
X110118571Y-103518928D01*
X110575714Y-103518928D01*
X110690000Y-103576071D01*
X110747142Y-103690357D01*
X110747142Y-103918928D01*
X110690000Y-104033214D01*
X110575714Y-104090357D01*
X110461428Y-104090357D01*
X110347142Y-103518928D01*
X111147142Y-103576071D02*
X111090000Y-103633214D01*
X111032857Y-103576071D01*
X111090000Y-103518928D01*
X111147142Y-103576071D01*
X111032857Y-103576071D01*
X111147142Y-104033214D02*
X111090000Y-104090357D01*
X111032857Y-104033214D01*
X111090000Y-103976071D01*
X111147142Y-104033214D01*
X111032857Y-104033214D01*
X110747142Y-104604642D02*
X109947142Y-104604642D01*
X110632857Y-104604642D02*
X110690000Y-104661785D01*
X110747142Y-104776071D01*
X110747142Y-104947500D01*
X110690000Y-105061785D01*
X110575714Y-105118928D01*
X109947142Y-105118928D01*
X110747142Y-105518928D02*
X110747142Y-105976071D01*
X111147142Y-105690357D02*
X110118571Y-105690357D01*
X110004285Y-105747500D01*
X109947142Y-105861785D01*
X109947142Y-105976071D01*
X110004285Y-107233214D02*
X109947142Y-107404642D01*
X109947142Y-107690357D01*
X110004285Y-107804642D01*
X110061428Y-107861785D01*
X110175714Y-107918928D01*
X110290000Y-107918928D01*
X110404285Y-107861785D01*
X110461428Y-107804642D01*
X110518571Y-107690357D01*
X110575714Y-107461785D01*
X110632857Y-107347500D01*
X110690000Y-107290357D01*
X110804285Y-107233214D01*
X110918571Y-107233214D01*
X111032857Y-107290357D01*
X111090000Y-107347500D01*
X111147142Y-107461785D01*
X111147142Y-107747500D01*
X111090000Y-107918928D01*
X109947142Y-108433214D02*
X110747142Y-108433214D01*
X111147142Y-108433214D02*
X111090000Y-108376071D01*
X111032857Y-108433214D01*
X111090000Y-108490357D01*
X111147142Y-108433214D01*
X111032857Y-108433214D01*
X109947142Y-109004642D02*
X110747142Y-109004642D01*
X110632857Y-109004642D02*
X110690000Y-109061785D01*
X110747142Y-109176071D01*
X110747142Y-109347500D01*
X110690000Y-109461785D01*
X110575714Y-109518928D01*
X109947142Y-109518928D01*
X110575714Y-109518928D02*
X110690000Y-109576071D01*
X110747142Y-109690357D01*
X110747142Y-109861785D01*
X110690000Y-109976071D01*
X110575714Y-110033214D01*
X109947142Y-110033214D01*
X110747142Y-111118928D02*
X109947142Y-111118928D01*
X110747142Y-110604642D02*
X110118571Y-110604642D01*
X110004285Y-110661785D01*
X109947142Y-110776071D01*
X109947142Y-110947500D01*
X110004285Y-111061785D01*
X110061428Y-111118928D01*
X109947142Y-111861785D02*
X110004285Y-111747500D01*
X110118571Y-111690357D01*
X111147142Y-111690357D01*
X109947142Y-112833214D02*
X110575714Y-112833214D01*
X110690000Y-112776071D01*
X110747142Y-112661785D01*
X110747142Y-112433214D01*
X110690000Y-112318928D01*
X110004285Y-112833214D02*
X109947142Y-112718928D01*
X109947142Y-112433214D01*
X110004285Y-112318928D01*
X110118571Y-112261785D01*
X110232857Y-112261785D01*
X110347142Y-112318928D01*
X110404285Y-112433214D01*
X110404285Y-112718928D01*
X110461428Y-112833214D01*
X110747142Y-113233214D02*
X110747142Y-113690357D01*
X111147142Y-113404642D02*
X110118571Y-113404642D01*
X110004285Y-113461785D01*
X109947142Y-113576071D01*
X109947142Y-113690357D01*
X109947142Y-114261785D02*
X110004285Y-114147500D01*
X110061428Y-114090357D01*
X110175714Y-114033214D01*
X110518571Y-114033214D01*
X110632857Y-114090357D01*
X110690000Y-114147500D01*
X110747142Y-114261785D01*
X110747142Y-114433214D01*
X110690000Y-114547500D01*
X110632857Y-114604642D01*
X110518571Y-114661785D01*
X110175714Y-114661785D01*
X110061428Y-114604642D01*
X110004285Y-114547500D01*
X109947142Y-114433214D01*
X109947142Y-114261785D01*
X109947142Y-115176071D02*
X110747142Y-115176071D01*
X110518571Y-115176071D02*
X110632857Y-115233214D01*
X110690000Y-115290357D01*
X110747142Y-115404642D01*
X110747142Y-115518928D01*
D12*
X126460000Y-91420000D02*
G75*
G03X126460000Y-91420000I-3270000J0D01*
G01*
X126420000Y-91420000D02*
X119960000Y-91420000D01*
X126420000Y-91460000D02*
X119960000Y-91460000D01*
X126420000Y-91500000D02*
X119960000Y-91500000D01*
X126418000Y-91540000D02*
X119962000Y-91540000D01*
X126417000Y-91580000D02*
X119963000Y-91580000D01*
X126414000Y-91620000D02*
X119966000Y-91620000D01*
X126412000Y-91660000D02*
X124230000Y-91660000D01*
X122150000Y-91660000D02*
X119968000Y-91660000D01*
X126408000Y-91700000D02*
X124230000Y-91700000D01*
X122150000Y-91700000D02*
X119972000Y-91700000D01*
X126405000Y-91740000D02*
X124230000Y-91740000D01*
X122150000Y-91740000D02*
X119975000Y-91740000D01*
X126401000Y-91780000D02*
X124230000Y-91780000D01*
X122150000Y-91780000D02*
X119979000Y-91780000D01*
X126396000Y-91820000D02*
X124230000Y-91820000D01*
X122150000Y-91820000D02*
X119984000Y-91820000D01*
X126391000Y-91860000D02*
X124230000Y-91860000D01*
X122150000Y-91860000D02*
X119989000Y-91860000D01*
X126385000Y-91900000D02*
X124230000Y-91900000D01*
X122150000Y-91900000D02*
X119995000Y-91900000D01*
X126379000Y-91940000D02*
X124230000Y-91940000D01*
X122150000Y-91940000D02*
X120001000Y-91940000D01*
X126372000Y-91980000D02*
X124230000Y-91980000D01*
X122150000Y-91980000D02*
X120008000Y-91980000D01*
X126365000Y-92020000D02*
X124230000Y-92020000D01*
X122150000Y-92020000D02*
X120015000Y-92020000D01*
X126357000Y-92060000D02*
X124230000Y-92060000D01*
X122150000Y-92060000D02*
X120023000Y-92060000D01*
X126349000Y-92100000D02*
X124230000Y-92100000D01*
X122150000Y-92100000D02*
X120031000Y-92100000D01*
X126340000Y-92141000D02*
X124230000Y-92141000D01*
X122150000Y-92141000D02*
X120040000Y-92141000D01*
X126331000Y-92181000D02*
X124230000Y-92181000D01*
X122150000Y-92181000D02*
X120049000Y-92181000D01*
X126321000Y-92221000D02*
X124230000Y-92221000D01*
X122150000Y-92221000D02*
X120059000Y-92221000D01*
X126311000Y-92261000D02*
X124230000Y-92261000D01*
X122150000Y-92261000D02*
X120069000Y-92261000D01*
X126300000Y-92301000D02*
X124230000Y-92301000D01*
X122150000Y-92301000D02*
X120080000Y-92301000D01*
X126288000Y-92341000D02*
X124230000Y-92341000D01*
X122150000Y-92341000D02*
X120092000Y-92341000D01*
X126276000Y-92381000D02*
X124230000Y-92381000D01*
X122150000Y-92381000D02*
X120104000Y-92381000D01*
X126264000Y-92421000D02*
X124230000Y-92421000D01*
X122150000Y-92421000D02*
X120116000Y-92421000D01*
X126251000Y-92461000D02*
X124230000Y-92461000D01*
X122150000Y-92461000D02*
X120129000Y-92461000D01*
X126237000Y-92501000D02*
X124230000Y-92501000D01*
X122150000Y-92501000D02*
X120143000Y-92501000D01*
X126223000Y-92541000D02*
X124230000Y-92541000D01*
X122150000Y-92541000D02*
X120157000Y-92541000D01*
X126208000Y-92581000D02*
X124230000Y-92581000D01*
X122150000Y-92581000D02*
X120172000Y-92581000D01*
X126192000Y-92621000D02*
X124230000Y-92621000D01*
X122150000Y-92621000D02*
X120188000Y-92621000D01*
X126176000Y-92661000D02*
X124230000Y-92661000D01*
X122150000Y-92661000D02*
X120204000Y-92661000D01*
X126160000Y-92701000D02*
X124230000Y-92701000D01*
X122150000Y-92701000D02*
X120220000Y-92701000D01*
X126142000Y-92741000D02*
X124230000Y-92741000D01*
X122150000Y-92741000D02*
X120238000Y-92741000D01*
X126124000Y-92781000D02*
X124230000Y-92781000D01*
X122150000Y-92781000D02*
X120256000Y-92781000D01*
X126106000Y-92821000D02*
X124230000Y-92821000D01*
X122150000Y-92821000D02*
X120274000Y-92821000D01*
X126086000Y-92861000D02*
X124230000Y-92861000D01*
X122150000Y-92861000D02*
X120294000Y-92861000D01*
X126066000Y-92901000D02*
X124230000Y-92901000D01*
X122150000Y-92901000D02*
X120314000Y-92901000D01*
X126046000Y-92941000D02*
X124230000Y-92941000D01*
X122150000Y-92941000D02*
X120334000Y-92941000D01*
X126024000Y-92981000D02*
X124230000Y-92981000D01*
X122150000Y-92981000D02*
X120356000Y-92981000D01*
X126002000Y-93021000D02*
X124230000Y-93021000D01*
X122150000Y-93021000D02*
X120378000Y-93021000D01*
X125980000Y-93061000D02*
X124230000Y-93061000D01*
X122150000Y-93061000D02*
X120400000Y-93061000D01*
X125956000Y-93101000D02*
X124230000Y-93101000D01*
X122150000Y-93101000D02*
X120424000Y-93101000D01*
X125932000Y-93141000D02*
X124230000Y-93141000D01*
X122150000Y-93141000D02*
X120448000Y-93141000D01*
X125906000Y-93181000D02*
X124230000Y-93181000D01*
X122150000Y-93181000D02*
X120474000Y-93181000D01*
X125880000Y-93221000D02*
X124230000Y-93221000D01*
X122150000Y-93221000D02*
X120500000Y-93221000D01*
X125854000Y-93261000D02*
X124230000Y-93261000D01*
X122150000Y-93261000D02*
X120526000Y-93261000D01*
X125826000Y-93301000D02*
X124230000Y-93301000D01*
X122150000Y-93301000D02*
X120554000Y-93301000D01*
X125797000Y-93341000D02*
X124230000Y-93341000D01*
X122150000Y-93341000D02*
X120583000Y-93341000D01*
X125768000Y-93381000D02*
X124230000Y-93381000D01*
X122150000Y-93381000D02*
X120612000Y-93381000D01*
X125738000Y-93421000D02*
X124230000Y-93421000D01*
X122150000Y-93421000D02*
X120642000Y-93421000D01*
X125706000Y-93461000D02*
X124230000Y-93461000D01*
X122150000Y-93461000D02*
X120674000Y-93461000D01*
X125674000Y-93501000D02*
X124230000Y-93501000D01*
X122150000Y-93501000D02*
X120706000Y-93501000D01*
X125640000Y-93541000D02*
X124230000Y-93541000D01*
X122150000Y-93541000D02*
X120740000Y-93541000D01*
X125606000Y-93581000D02*
X124230000Y-93581000D01*
X122150000Y-93581000D02*
X120774000Y-93581000D01*
X125570000Y-93621000D02*
X124230000Y-93621000D01*
X122150000Y-93621000D02*
X120810000Y-93621000D01*
X125533000Y-93661000D02*
X124230000Y-93661000D01*
X122150000Y-93661000D02*
X120847000Y-93661000D01*
X125495000Y-93701000D02*
X124230000Y-93701000D01*
X122150000Y-93701000D02*
X120885000Y-93701000D01*
X125455000Y-93741000D02*
X120925000Y-93741000D01*
X125414000Y-93781000D02*
X120966000Y-93781000D01*
X125372000Y-93821000D02*
X121008000Y-93821000D01*
X125327000Y-93861000D02*
X121053000Y-93861000D01*
X125282000Y-93901000D02*
X121098000Y-93901000D01*
X125234000Y-93941000D02*
X121146000Y-93941000D01*
X125185000Y-93981000D02*
X121195000Y-93981000D01*
X125134000Y-94021000D02*
X121246000Y-94021000D01*
X125080000Y-94061000D02*
X121300000Y-94061000D01*
X125024000Y-94101000D02*
X121356000Y-94101000D01*
X124966000Y-94141000D02*
X121414000Y-94141000D01*
X124904000Y-94181000D02*
X121476000Y-94181000D01*
X124840000Y-94221000D02*
X121540000Y-94221000D01*
X124771000Y-94261000D02*
X121609000Y-94261000D01*
X124699000Y-94301000D02*
X121681000Y-94301000D01*
X124622000Y-94341000D02*
X121758000Y-94341000D01*
X124540000Y-94381000D02*
X121840000Y-94381000D01*
X124452000Y-94421000D02*
X121928000Y-94421000D01*
X124355000Y-94461000D02*
X122025000Y-94461000D01*
X124249000Y-94501000D02*
X122131000Y-94501000D01*
X124130000Y-94541000D02*
X122250000Y-94541000D01*
X123992000Y-94581000D02*
X122388000Y-94581000D01*
X123823000Y-94621000D02*
X122557000Y-94621000D01*
X123592000Y-94661000D02*
X122788000Y-94661000D01*
X125029000Y-87919759D02*
X125029000Y-88549759D01*
X125344000Y-88234759D02*
X124714000Y-88234759D01*
X133736000Y-90835241D02*
X134366000Y-90835241D01*
X134051000Y-91150241D02*
X134051000Y-90520241D01*
X135488000Y-84409000D02*
X136292000Y-84409000D01*
X135257000Y-84449000D02*
X136523000Y-84449000D01*
X135088000Y-84489000D02*
X136692000Y-84489000D01*
X134950000Y-84529000D02*
X136830000Y-84529000D01*
X134831000Y-84569000D02*
X136949000Y-84569000D01*
X134725000Y-84609000D02*
X137055000Y-84609000D01*
X134628000Y-84649000D02*
X137152000Y-84649000D01*
X134540000Y-84689000D02*
X137240000Y-84689000D01*
X134458000Y-84729000D02*
X137322000Y-84729000D01*
X134381000Y-84769000D02*
X137399000Y-84769000D01*
X134309000Y-84809000D02*
X137471000Y-84809000D01*
X134240000Y-84849000D02*
X137540000Y-84849000D01*
X134176000Y-84889000D02*
X137604000Y-84889000D01*
X134114000Y-84929000D02*
X137666000Y-84929000D01*
X134056000Y-84969000D02*
X137724000Y-84969000D01*
X134000000Y-85009000D02*
X137780000Y-85009000D01*
X133946000Y-85049000D02*
X137834000Y-85049000D01*
X133895000Y-85089000D02*
X137885000Y-85089000D01*
X133846000Y-85129000D02*
X137934000Y-85129000D01*
X133798000Y-85169000D02*
X137982000Y-85169000D01*
X133753000Y-85209000D02*
X138027000Y-85209000D01*
X133708000Y-85249000D02*
X138072000Y-85249000D01*
X133666000Y-85289000D02*
X138114000Y-85289000D01*
X133625000Y-85329000D02*
X138155000Y-85329000D01*
X136930000Y-85369000D02*
X138195000Y-85369000D01*
X133585000Y-85369000D02*
X134850000Y-85369000D01*
X136930000Y-85409000D02*
X138233000Y-85409000D01*
X133547000Y-85409000D02*
X134850000Y-85409000D01*
X136930000Y-85449000D02*
X138270000Y-85449000D01*
X133510000Y-85449000D02*
X134850000Y-85449000D01*
X136930000Y-85489000D02*
X138306000Y-85489000D01*
X133474000Y-85489000D02*
X134850000Y-85489000D01*
X136930000Y-85529000D02*
X138340000Y-85529000D01*
X133440000Y-85529000D02*
X134850000Y-85529000D01*
X136930000Y-85569000D02*
X138374000Y-85569000D01*
X133406000Y-85569000D02*
X134850000Y-85569000D01*
X136930000Y-85609000D02*
X138406000Y-85609000D01*
X133374000Y-85609000D02*
X134850000Y-85609000D01*
X136930000Y-85649000D02*
X138438000Y-85649000D01*
X133342000Y-85649000D02*
X134850000Y-85649000D01*
X136930000Y-85689000D02*
X138468000Y-85689000D01*
X133312000Y-85689000D02*
X134850000Y-85689000D01*
X136930000Y-85729000D02*
X138497000Y-85729000D01*
X133283000Y-85729000D02*
X134850000Y-85729000D01*
X136930000Y-85769000D02*
X138526000Y-85769000D01*
X133254000Y-85769000D02*
X134850000Y-85769000D01*
X136930000Y-85809000D02*
X138554000Y-85809000D01*
X133226000Y-85809000D02*
X134850000Y-85809000D01*
X136930000Y-85849000D02*
X138580000Y-85849000D01*
X133200000Y-85849000D02*
X134850000Y-85849000D01*
X136930000Y-85889000D02*
X138606000Y-85889000D01*
X133174000Y-85889000D02*
X134850000Y-85889000D01*
X136930000Y-85929000D02*
X138632000Y-85929000D01*
X133148000Y-85929000D02*
X134850000Y-85929000D01*
X136930000Y-85969000D02*
X138656000Y-85969000D01*
X133124000Y-85969000D02*
X134850000Y-85969000D01*
X136930000Y-86009000D02*
X138680000Y-86009000D01*
X133100000Y-86009000D02*
X134850000Y-86009000D01*
X136930000Y-86049000D02*
X138702000Y-86049000D01*
X133078000Y-86049000D02*
X134850000Y-86049000D01*
X136930000Y-86089000D02*
X138724000Y-86089000D01*
X133056000Y-86089000D02*
X134850000Y-86089000D01*
X136930000Y-86129000D02*
X138746000Y-86129000D01*
X133034000Y-86129000D02*
X134850000Y-86129000D01*
X136930000Y-86169000D02*
X138766000Y-86169000D01*
X133014000Y-86169000D02*
X134850000Y-86169000D01*
X136930000Y-86209000D02*
X138786000Y-86209000D01*
X132994000Y-86209000D02*
X134850000Y-86209000D01*
X136930000Y-86249000D02*
X138806000Y-86249000D01*
X132974000Y-86249000D02*
X134850000Y-86249000D01*
X136930000Y-86289000D02*
X138824000Y-86289000D01*
X132956000Y-86289000D02*
X134850000Y-86289000D01*
X136930000Y-86329000D02*
X138842000Y-86329000D01*
X132938000Y-86329000D02*
X134850000Y-86329000D01*
X136930000Y-86369000D02*
X138860000Y-86369000D01*
X132920000Y-86369000D02*
X134850000Y-86369000D01*
X136930000Y-86409000D02*
X138876000Y-86409000D01*
X132904000Y-86409000D02*
X134850000Y-86409000D01*
X136930000Y-86449000D02*
X138892000Y-86449000D01*
X132888000Y-86449000D02*
X134850000Y-86449000D01*
X136930000Y-86489000D02*
X138908000Y-86489000D01*
X132872000Y-86489000D02*
X134850000Y-86489000D01*
X136930000Y-86529000D02*
X138923000Y-86529000D01*
X132857000Y-86529000D02*
X134850000Y-86529000D01*
X136930000Y-86569000D02*
X138937000Y-86569000D01*
X132843000Y-86569000D02*
X134850000Y-86569000D01*
X136930000Y-86609000D02*
X138951000Y-86609000D01*
X132829000Y-86609000D02*
X134850000Y-86609000D01*
X136930000Y-86649000D02*
X138964000Y-86649000D01*
X132816000Y-86649000D02*
X134850000Y-86649000D01*
X136930000Y-86689000D02*
X138976000Y-86689000D01*
X132804000Y-86689000D02*
X134850000Y-86689000D01*
X136930000Y-86729000D02*
X138988000Y-86729000D01*
X132792000Y-86729000D02*
X134850000Y-86729000D01*
X136930000Y-86769000D02*
X139000000Y-86769000D01*
X132780000Y-86769000D02*
X134850000Y-86769000D01*
X136930000Y-86809000D02*
X139011000Y-86809000D01*
X132769000Y-86809000D02*
X134850000Y-86809000D01*
X136930000Y-86849000D02*
X139021000Y-86849000D01*
X132759000Y-86849000D02*
X134850000Y-86849000D01*
X136930000Y-86889000D02*
X139031000Y-86889000D01*
X132749000Y-86889000D02*
X134850000Y-86889000D01*
X136930000Y-86929000D02*
X139040000Y-86929000D01*
X132740000Y-86929000D02*
X134850000Y-86929000D01*
X136930000Y-86970000D02*
X139049000Y-86970000D01*
X132731000Y-86970000D02*
X134850000Y-86970000D01*
X136930000Y-87010000D02*
X139057000Y-87010000D01*
X132723000Y-87010000D02*
X134850000Y-87010000D01*
X136930000Y-87050000D02*
X139065000Y-87050000D01*
X132715000Y-87050000D02*
X134850000Y-87050000D01*
X136930000Y-87090000D02*
X139072000Y-87090000D01*
X132708000Y-87090000D02*
X134850000Y-87090000D01*
X136930000Y-87130000D02*
X139079000Y-87130000D01*
X132701000Y-87130000D02*
X134850000Y-87130000D01*
X136930000Y-87170000D02*
X139085000Y-87170000D01*
X132695000Y-87170000D02*
X134850000Y-87170000D01*
X136930000Y-87210000D02*
X139091000Y-87210000D01*
X132689000Y-87210000D02*
X134850000Y-87210000D01*
X136930000Y-87250000D02*
X139096000Y-87250000D01*
X132684000Y-87250000D02*
X134850000Y-87250000D01*
X136930000Y-87290000D02*
X139101000Y-87290000D01*
X132679000Y-87290000D02*
X134850000Y-87290000D01*
X136930000Y-87330000D02*
X139105000Y-87330000D01*
X132675000Y-87330000D02*
X134850000Y-87330000D01*
X136930000Y-87370000D02*
X139108000Y-87370000D01*
X132672000Y-87370000D02*
X134850000Y-87370000D01*
X136930000Y-87410000D02*
X139112000Y-87410000D01*
X132668000Y-87410000D02*
X134850000Y-87410000D01*
X132666000Y-87450000D02*
X139114000Y-87450000D01*
X132663000Y-87490000D02*
X139117000Y-87490000D01*
X132662000Y-87530000D02*
X139118000Y-87530000D01*
X132660000Y-87570000D02*
X139120000Y-87570000D01*
X132660000Y-87610000D02*
X139120000Y-87610000D01*
X132660000Y-87650000D02*
X139120000Y-87650000D01*
X139160000Y-87650000D02*
G75*
G03X139160000Y-87650000I-3270000J0D01*
G01*
X137120000Y-92925000D02*
X137120000Y-92610000D01*
X137120000Y-95350000D02*
X137120000Y-95035000D01*
X142360000Y-92925000D02*
X142360000Y-92610000D01*
X142360000Y-95350000D02*
X142360000Y-95035000D01*
X142360000Y-92610000D02*
X137120000Y-92610000D01*
X142360000Y-95350000D02*
X137120000Y-95350000D01*
X124245000Y-101560000D02*
X124560000Y-101560000D01*
X121820000Y-101560000D02*
X122135000Y-101560000D01*
X124245000Y-106800000D02*
X124560000Y-106800000D01*
X121820000Y-106800000D02*
X122135000Y-106800000D01*
X124560000Y-106800000D02*
X124560000Y-101560000D01*
X121820000Y-106800000D02*
X121820000Y-101560000D01*
X156330000Y-122020000D02*
X151090000Y-122020000D01*
X156330000Y-119280000D02*
X151090000Y-119280000D01*
X156330000Y-122020000D02*
X156330000Y-121705000D01*
X156330000Y-119595000D02*
X156330000Y-119280000D01*
X151090000Y-122020000D02*
X151090000Y-121705000D01*
X151090000Y-119595000D02*
X151090000Y-119280000D01*
X151090000Y-117055000D02*
X151090000Y-116740000D01*
X151090000Y-119480000D02*
X151090000Y-119165000D01*
X156330000Y-117055000D02*
X156330000Y-116740000D01*
X156330000Y-119480000D02*
X156330000Y-119165000D01*
X156330000Y-116740000D02*
X151090000Y-116740000D01*
X156330000Y-119480000D02*
X151090000Y-119480000D01*
X142360000Y-97890000D02*
X137120000Y-97890000D01*
X142360000Y-95150000D02*
X137120000Y-95150000D01*
X142360000Y-97890000D02*
X142360000Y-97575000D01*
X142360000Y-95465000D02*
X142360000Y-95150000D01*
X137120000Y-97890000D02*
X137120000Y-97575000D01*
X137120000Y-95465000D02*
X137120000Y-95150000D01*
X154820000Y-95150000D02*
X160060000Y-95150000D01*
X154820000Y-97890000D02*
X160060000Y-97890000D01*
X154820000Y-95150000D02*
X154820000Y-95465000D01*
X154820000Y-97575000D02*
X154820000Y-97890000D01*
X160060000Y-95150000D02*
X160060000Y-95465000D01*
X160060000Y-97575000D02*
X160060000Y-97890000D01*
X173470000Y-97790000D02*
G75*
G03X173470000Y-97790000I-3270000J0D01*
G01*
X170200000Y-101020000D02*
X170200000Y-94560000D01*
X170160000Y-101020000D02*
X170160000Y-94560000D01*
X170120000Y-101020000D02*
X170120000Y-94560000D01*
X170080000Y-101018000D02*
X170080000Y-94562000D01*
X170040000Y-101017000D02*
X170040000Y-94563000D01*
X170000000Y-101014000D02*
X170000000Y-94566000D01*
X169960000Y-101012000D02*
X169960000Y-98830000D01*
X169960000Y-96750000D02*
X169960000Y-94568000D01*
X169920000Y-101008000D02*
X169920000Y-98830000D01*
X169920000Y-96750000D02*
X169920000Y-94572000D01*
X169880000Y-101005000D02*
X169880000Y-98830000D01*
X169880000Y-96750000D02*
X169880000Y-94575000D01*
X169840000Y-101001000D02*
X169840000Y-98830000D01*
X169840000Y-96750000D02*
X169840000Y-94579000D01*
X169800000Y-100996000D02*
X169800000Y-98830000D01*
X169800000Y-96750000D02*
X169800000Y-94584000D01*
X169760000Y-100991000D02*
X169760000Y-98830000D01*
X169760000Y-96750000D02*
X169760000Y-94589000D01*
X169720000Y-100985000D02*
X169720000Y-98830000D01*
X169720000Y-96750000D02*
X169720000Y-94595000D01*
X169680000Y-100979000D02*
X169680000Y-98830000D01*
X169680000Y-96750000D02*
X169680000Y-94601000D01*
X169640000Y-100972000D02*
X169640000Y-98830000D01*
X169640000Y-96750000D02*
X169640000Y-94608000D01*
X169600000Y-100965000D02*
X169600000Y-98830000D01*
X169600000Y-96750000D02*
X169600000Y-94615000D01*
X169560000Y-100957000D02*
X169560000Y-98830000D01*
X169560000Y-96750000D02*
X169560000Y-94623000D01*
X169520000Y-100949000D02*
X169520000Y-98830000D01*
X169520000Y-96750000D02*
X169520000Y-94631000D01*
X169479000Y-100940000D02*
X169479000Y-98830000D01*
X169479000Y-96750000D02*
X169479000Y-94640000D01*
X169439000Y-100931000D02*
X169439000Y-98830000D01*
X169439000Y-96750000D02*
X169439000Y-94649000D01*
X169399000Y-100921000D02*
X169399000Y-98830000D01*
X169399000Y-96750000D02*
X169399000Y-94659000D01*
X169359000Y-100911000D02*
X169359000Y-98830000D01*
X169359000Y-96750000D02*
X169359000Y-94669000D01*
X169319000Y-100900000D02*
X169319000Y-98830000D01*
X169319000Y-96750000D02*
X169319000Y-94680000D01*
X169279000Y-100888000D02*
X169279000Y-98830000D01*
X169279000Y-96750000D02*
X169279000Y-94692000D01*
X169239000Y-100876000D02*
X169239000Y-98830000D01*
X169239000Y-96750000D02*
X169239000Y-94704000D01*
X169199000Y-100864000D02*
X169199000Y-98830000D01*
X169199000Y-96750000D02*
X169199000Y-94716000D01*
X169159000Y-100851000D02*
X169159000Y-98830000D01*
X169159000Y-96750000D02*
X169159000Y-94729000D01*
X169119000Y-100837000D02*
X169119000Y-98830000D01*
X169119000Y-96750000D02*
X169119000Y-94743000D01*
X169079000Y-100823000D02*
X169079000Y-98830000D01*
X169079000Y-96750000D02*
X169079000Y-94757000D01*
X169039000Y-100808000D02*
X169039000Y-98830000D01*
X169039000Y-96750000D02*
X169039000Y-94772000D01*
X168999000Y-100792000D02*
X168999000Y-98830000D01*
X168999000Y-96750000D02*
X168999000Y-94788000D01*
X168959000Y-100776000D02*
X168959000Y-98830000D01*
X168959000Y-96750000D02*
X168959000Y-94804000D01*
X168919000Y-100760000D02*
X168919000Y-98830000D01*
X168919000Y-96750000D02*
X168919000Y-94820000D01*
X168879000Y-100742000D02*
X168879000Y-98830000D01*
X168879000Y-96750000D02*
X168879000Y-94838000D01*
X168839000Y-100724000D02*
X168839000Y-98830000D01*
X168839000Y-96750000D02*
X168839000Y-94856000D01*
X168799000Y-100706000D02*
X168799000Y-98830000D01*
X168799000Y-96750000D02*
X168799000Y-94874000D01*
X168759000Y-100686000D02*
X168759000Y-98830000D01*
X168759000Y-96750000D02*
X168759000Y-94894000D01*
X168719000Y-100666000D02*
X168719000Y-98830000D01*
X168719000Y-96750000D02*
X168719000Y-94914000D01*
X168679000Y-100646000D02*
X168679000Y-98830000D01*
X168679000Y-96750000D02*
X168679000Y-94934000D01*
X168639000Y-100624000D02*
X168639000Y-98830000D01*
X168639000Y-96750000D02*
X168639000Y-94956000D01*
X168599000Y-100602000D02*
X168599000Y-98830000D01*
X168599000Y-96750000D02*
X168599000Y-94978000D01*
X168559000Y-100580000D02*
X168559000Y-98830000D01*
X168559000Y-96750000D02*
X168559000Y-95000000D01*
X168519000Y-100556000D02*
X168519000Y-98830000D01*
X168519000Y-96750000D02*
X168519000Y-95024000D01*
X168479000Y-100532000D02*
X168479000Y-98830000D01*
X168479000Y-96750000D02*
X168479000Y-95048000D01*
X168439000Y-100506000D02*
X168439000Y-98830000D01*
X168439000Y-96750000D02*
X168439000Y-95074000D01*
X168399000Y-100480000D02*
X168399000Y-98830000D01*
X168399000Y-96750000D02*
X168399000Y-95100000D01*
X168359000Y-100454000D02*
X168359000Y-98830000D01*
X168359000Y-96750000D02*
X168359000Y-95126000D01*
X168319000Y-100426000D02*
X168319000Y-98830000D01*
X168319000Y-96750000D02*
X168319000Y-95154000D01*
X168279000Y-100397000D02*
X168279000Y-98830000D01*
X168279000Y-96750000D02*
X168279000Y-95183000D01*
X168239000Y-100368000D02*
X168239000Y-98830000D01*
X168239000Y-96750000D02*
X168239000Y-95212000D01*
X168199000Y-100338000D02*
X168199000Y-98830000D01*
X168199000Y-96750000D02*
X168199000Y-95242000D01*
X168159000Y-100306000D02*
X168159000Y-98830000D01*
X168159000Y-96750000D02*
X168159000Y-95274000D01*
X168119000Y-100274000D02*
X168119000Y-98830000D01*
X168119000Y-96750000D02*
X168119000Y-95306000D01*
X168079000Y-100240000D02*
X168079000Y-98830000D01*
X168079000Y-96750000D02*
X168079000Y-95340000D01*
X168039000Y-100206000D02*
X168039000Y-98830000D01*
X168039000Y-96750000D02*
X168039000Y-95374000D01*
X167999000Y-100170000D02*
X167999000Y-98830000D01*
X167999000Y-96750000D02*
X167999000Y-95410000D01*
X167959000Y-100133000D02*
X167959000Y-98830000D01*
X167959000Y-96750000D02*
X167959000Y-95447000D01*
X167919000Y-100095000D02*
X167919000Y-98830000D01*
X167919000Y-96750000D02*
X167919000Y-95485000D01*
X167879000Y-100055000D02*
X167879000Y-95525000D01*
X167839000Y-100014000D02*
X167839000Y-95566000D01*
X167799000Y-99972000D02*
X167799000Y-95608000D01*
X167759000Y-99927000D02*
X167759000Y-95653000D01*
X167719000Y-99882000D02*
X167719000Y-95698000D01*
X167679000Y-99834000D02*
X167679000Y-95746000D01*
X167639000Y-99785000D02*
X167639000Y-95795000D01*
X167599000Y-99734000D02*
X167599000Y-95846000D01*
X167559000Y-99680000D02*
X167559000Y-95900000D01*
X167519000Y-99624000D02*
X167519000Y-95956000D01*
X167479000Y-99566000D02*
X167479000Y-96014000D01*
X167439000Y-99504000D02*
X167439000Y-96076000D01*
X167399000Y-99440000D02*
X167399000Y-96140000D01*
X167359000Y-99371000D02*
X167359000Y-96209000D01*
X167319000Y-99299000D02*
X167319000Y-96281000D01*
X167279000Y-99222000D02*
X167279000Y-96358000D01*
X167239000Y-99140000D02*
X167239000Y-96440000D01*
X167199000Y-99052000D02*
X167199000Y-96528000D01*
X167159000Y-98955000D02*
X167159000Y-96625000D01*
X167119000Y-98849000D02*
X167119000Y-96731000D01*
X167079000Y-98730000D02*
X167079000Y-96850000D01*
X167039000Y-98592000D02*
X167039000Y-96988000D01*
X166999000Y-98423000D02*
X166999000Y-97157000D01*
X166959000Y-98192000D02*
X166959000Y-97388000D01*
X173700241Y-99629000D02*
X173070241Y-99629000D01*
X173385241Y-99944000D02*
X173385241Y-99314000D01*
X116990000Y-104390000D02*
X119230000Y-104390000D01*
X116990000Y-104150000D02*
X119230000Y-104150000D01*
X116990000Y-104270000D02*
X119230000Y-104270000D01*
X118110000Y-100100000D02*
X118110000Y-100750000D01*
X118110000Y-105640000D02*
X118110000Y-104990000D01*
X116990000Y-100750000D02*
X116990000Y-104990000D01*
X119230000Y-100750000D02*
X116990000Y-100750000D01*
X119230000Y-104990000D02*
X119230000Y-100750000D01*
X116990000Y-104990000D02*
X119230000Y-104990000D01*
X129960000Y-110640000D02*
X129960000Y-112880000D01*
X129960000Y-112880000D02*
X134200000Y-112880000D01*
X134200000Y-112880000D02*
X134200000Y-110640000D01*
X134200000Y-110640000D02*
X129960000Y-110640000D01*
X129310000Y-111760000D02*
X129960000Y-111760000D01*
X134850000Y-111760000D02*
X134200000Y-111760000D01*
X130680000Y-110640000D02*
X130680000Y-112880000D01*
X130800000Y-110640000D02*
X130800000Y-112880000D01*
X130560000Y-110640000D02*
X130560000Y-112880000D01*
X130560000Y-118260000D02*
X130560000Y-120500000D01*
X130800000Y-118260000D02*
X130800000Y-120500000D01*
X130680000Y-118260000D02*
X130680000Y-120500000D01*
X134850000Y-119380000D02*
X134200000Y-119380000D01*
X129310000Y-119380000D02*
X129960000Y-119380000D01*
X134200000Y-118260000D02*
X129960000Y-118260000D01*
X134200000Y-120500000D02*
X134200000Y-118260000D01*
X129960000Y-120500000D02*
X134200000Y-120500000D01*
X129960000Y-118260000D02*
X129960000Y-120500000D01*
X142660000Y-81430000D02*
X142660000Y-83670000D01*
X142660000Y-83670000D02*
X146900000Y-83670000D01*
X146900000Y-83670000D02*
X146900000Y-81430000D01*
X146900000Y-81430000D02*
X142660000Y-81430000D01*
X142010000Y-82550000D02*
X142660000Y-82550000D01*
X147550000Y-82550000D02*
X146900000Y-82550000D01*
X143380000Y-81430000D02*
X143380000Y-83670000D01*
X143500000Y-81430000D02*
X143500000Y-83670000D01*
X143260000Y-81430000D02*
X143260000Y-83670000D01*
X134800000Y-81480000D02*
X134800000Y-78540000D01*
X134800000Y-78540000D02*
X129360000Y-78540000D01*
X129360000Y-78540000D02*
X129360000Y-81480000D01*
X129360000Y-81480000D02*
X134800000Y-81480000D01*
X135820000Y-80010000D02*
X134800000Y-80010000D01*
X128340000Y-80010000D02*
X129360000Y-80010000D01*
X133900000Y-81480000D02*
X133900000Y-78540000D01*
X133780000Y-81480000D02*
X133780000Y-78540000D01*
X134020000Y-81480000D02*
X134020000Y-78540000D01*
X140520000Y-114299538D02*
G75*
G03X146070000Y-115844830I2990000J-462D01*
G01*
X140520000Y-114300462D02*
G75*
G02X146070000Y-112755170I2990000J462D01*
G01*
X146010000Y-114300000D02*
G75*
G03X146010000Y-114300000I-2500000J0D01*
G01*
X146070000Y-115845000D02*
X146070000Y-112755000D01*
X116780000Y-77410000D02*
X116780000Y-80070000D01*
X119380000Y-77410000D02*
X116780000Y-77410000D01*
X119380000Y-80070000D02*
X116780000Y-80070000D01*
X119380000Y-77410000D02*
X119380000Y-80070000D01*
X120650000Y-77410000D02*
X121980000Y-77410000D01*
X121980000Y-77410000D02*
X121980000Y-78740000D01*
X166430000Y-77410000D02*
X166430000Y-80010000D01*
X166430000Y-77410000D02*
X153610000Y-77410000D01*
X153610000Y-77410000D02*
X153610000Y-82610000D01*
X163830000Y-82610000D02*
X153610000Y-82610000D01*
X163830000Y-80010000D02*
X163830000Y-82610000D01*
X166430000Y-80010000D02*
X163830000Y-80010000D01*
X166430000Y-82610000D02*
X165100000Y-82610000D01*
X166430000Y-81280000D02*
X166430000Y-82610000D01*
X112970000Y-102810000D02*
X114300000Y-102810000D01*
X112970000Y-104140000D02*
X112970000Y-102810000D01*
X112970000Y-105410000D02*
X115630000Y-105410000D01*
X115630000Y-105410000D02*
X115630000Y-108010000D01*
X112970000Y-105410000D02*
X112970000Y-108010000D01*
X112970000Y-108010000D02*
X115630000Y-108010000D01*
X139760000Y-123250000D02*
X139760000Y-120590000D01*
X129540000Y-123250000D02*
X139760000Y-123250000D01*
X129540000Y-120590000D02*
X139760000Y-120590000D01*
X129540000Y-123250000D02*
X129540000Y-120590000D01*
X128270000Y-123250000D02*
X126940000Y-123250000D01*
X126940000Y-123250000D02*
X126940000Y-121920000D01*
X116990000Y-84970000D02*
X123810000Y-84970000D01*
X116990000Y-87510000D02*
X123810000Y-87510000D01*
X116990000Y-84970000D02*
X116990000Y-87510000D01*
X123810000Y-84970000D02*
X123810000Y-87510000D01*
X116990000Y-85709000D02*
X117101000Y-85709000D01*
X119119000Y-85709000D02*
X119392000Y-85709000D01*
X121409000Y-85709000D02*
X121682000Y-85709000D01*
X123699000Y-85709000D02*
X123810000Y-85709000D01*
X132648478Y-89601522D02*
G75*
G03X128210000Y-91440000I-1838478J-1838478D01*
G01*
X132648478Y-93278478D02*
G75*
G02X128210000Y-91440000I-1838478J1838478D01*
G01*
X132660000Y-93240000D02*
X132660000Y-89640000D01*
X146580000Y-118800000D02*
X142980000Y-118800000D01*
X146618478Y-118811522D02*
G75*
G02X144780000Y-123250000I-1838478J-1838478D01*
G01*
X142941522Y-118811522D02*
G75*
G03X144780000Y-123250000I1838478J-1838478D01*
G01*
X127230000Y-82550000D02*
X126460000Y-82550000D01*
X119150000Y-82550000D02*
X119920000Y-82550000D01*
X126460000Y-81180000D02*
X119920000Y-81180000D01*
X126460000Y-83920000D02*
X126460000Y-81180000D01*
X119920000Y-83920000D02*
X126460000Y-83920000D01*
X119920000Y-81180000D02*
X119920000Y-83920000D01*
X122020000Y-98330000D02*
X119280000Y-98330000D01*
X119280000Y-98330000D02*
X119280000Y-104870000D01*
X119280000Y-104870000D02*
X122020000Y-104870000D01*
X122020000Y-104870000D02*
X122020000Y-98330000D01*
X120650000Y-97560000D02*
X120650000Y-98330000D01*
X120650000Y-105640000D02*
X120650000Y-104870000D01*
X137390000Y-116840000D02*
X136620000Y-116840000D01*
X129310000Y-116840000D02*
X130080000Y-116840000D01*
X136620000Y-115470000D02*
X130080000Y-115470000D01*
X136620000Y-118210000D02*
X136620000Y-115470000D01*
X130080000Y-118210000D02*
X136620000Y-118210000D01*
X130080000Y-115470000D02*
X130080000Y-118210000D01*
X136620000Y-115670000D02*
X136620000Y-112930000D01*
X136620000Y-112930000D02*
X130080000Y-112930000D01*
X130080000Y-112930000D02*
X130080000Y-115670000D01*
X130080000Y-115670000D02*
X136620000Y-115670000D01*
X137390000Y-114300000D02*
X136620000Y-114300000D01*
X129310000Y-114300000D02*
X130080000Y-114300000D01*
X150090000Y-80010000D02*
X149320000Y-80010000D01*
X142010000Y-80010000D02*
X142780000Y-80010000D01*
X149320000Y-78640000D02*
X142780000Y-78640000D01*
X149320000Y-81380000D02*
X149320000Y-78640000D01*
X142780000Y-81380000D02*
X149320000Y-81380000D01*
X142780000Y-78640000D02*
X142780000Y-81380000D01*
X132810000Y-97890000D02*
X132810000Y-95150000D01*
X132810000Y-95150000D02*
X126270000Y-95150000D01*
X126270000Y-95150000D02*
X126270000Y-97890000D01*
X126270000Y-97890000D02*
X132810000Y-97890000D01*
X133580000Y-96520000D02*
X132810000Y-96520000D01*
X125500000Y-96520000D02*
X126270000Y-96520000D01*
X165200000Y-99600000D02*
X162460000Y-99600000D01*
X162460000Y-99600000D02*
X162460000Y-106140000D01*
X162460000Y-106140000D02*
X165200000Y-106140000D01*
X165200000Y-106140000D02*
X165200000Y-99600000D01*
X163830000Y-98830000D02*
X163830000Y-99600000D01*
X163830000Y-106910000D02*
X163830000Y-106140000D01*
X167640000Y-92940000D02*
X167640000Y-92170000D01*
X167640000Y-84860000D02*
X167640000Y-85630000D01*
X169010000Y-92170000D02*
X169010000Y-85630000D01*
X166270000Y-92170000D02*
X169010000Y-92170000D01*
X166270000Y-85630000D02*
X166270000Y-92170000D01*
X169010000Y-85630000D02*
X166270000Y-85630000D01*
X166470000Y-85630000D02*
X163730000Y-85630000D01*
X163730000Y-85630000D02*
X163730000Y-92170000D01*
X163730000Y-92170000D02*
X166470000Y-92170000D01*
X166470000Y-92170000D02*
X166470000Y-85630000D01*
X165100000Y-84860000D02*
X165100000Y-85630000D01*
X165100000Y-92940000D02*
X165100000Y-92170000D01*
X162560000Y-92940000D02*
X162560000Y-92170000D01*
X162560000Y-84860000D02*
X162560000Y-85630000D01*
X163930000Y-92170000D02*
X163930000Y-85630000D01*
X161190000Y-92170000D02*
X163930000Y-92170000D01*
X161190000Y-85630000D02*
X161190000Y-92170000D01*
X163930000Y-85630000D02*
X161190000Y-85630000D01*
X158650000Y-92170000D02*
X161390000Y-92170000D01*
X161390000Y-92170000D02*
X161390000Y-85630000D01*
X161390000Y-85630000D02*
X158650000Y-85630000D01*
X158650000Y-85630000D02*
X158650000Y-92170000D01*
X160020000Y-92940000D02*
X160020000Y-92170000D01*
X160020000Y-84860000D02*
X160020000Y-85630000D01*
X157480000Y-84860000D02*
X157480000Y-85630000D01*
X157480000Y-92940000D02*
X157480000Y-92170000D01*
X156110000Y-85630000D02*
X156110000Y-92170000D01*
X158850000Y-85630000D02*
X156110000Y-85630000D01*
X158850000Y-92170000D02*
X158850000Y-85630000D01*
X156110000Y-92170000D02*
X158850000Y-92170000D01*
X153570000Y-92170000D02*
X156310000Y-92170000D01*
X156310000Y-92170000D02*
X156310000Y-85630000D01*
X156310000Y-85630000D02*
X153570000Y-85630000D01*
X153570000Y-85630000D02*
X153570000Y-92170000D01*
X154940000Y-92940000D02*
X154940000Y-92170000D01*
X154940000Y-84860000D02*
X154940000Y-85630000D01*
D10*
X126247095Y-113213157D02*
G75*
G03X126250000Y-118000000I-5637095J-2396843D01*
G01*
X126250000Y-113220000D02*
X126250000Y-118000000D01*
X170700000Y-113220000D02*
X170700000Y-118000000D01*
X170697095Y-113213157D02*
G75*
G03X170700000Y-118000000I-5637095J-2396843D01*
G01*
D12*
X147590000Y-97850000D02*
G75*
G02X149590000Y-97850000I1000000J0D01*
G01*
X149590000Y-97850000D02*
X151240000Y-97850000D01*
X151240000Y-97850000D02*
X151240000Y-92650000D01*
X151240000Y-92650000D02*
X145940000Y-92650000D01*
X145940000Y-92650000D02*
X145940000Y-97850000D01*
X145940000Y-97850000D02*
X147590000Y-97850000D01*
X125670000Y-103140000D02*
G75*
G02X125670000Y-105140000I0J-1000000D01*
G01*
X125670000Y-105140000D02*
X125670000Y-106790000D01*
X125670000Y-106790000D02*
X161350000Y-106790000D01*
X161350000Y-106790000D02*
X161350000Y-101490000D01*
X161350000Y-101490000D02*
X125670000Y-101490000D01*
X125670000Y-101490000D02*
X125670000Y-103140000D01*
X130070000Y-84510000D02*
X126470000Y-84510000D01*
X130594184Y-85237205D02*
G75*
G03X130070000Y-84510000I-2324184J-1122795D01*
G01*
X130626400Y-87458807D02*
G75*
G02X128270000Y-88960000I-2356400J1098807D01*
G01*
X125913600Y-87458807D02*
G75*
G03X128270000Y-88960000I2356400J1098807D01*
G01*
X125945816Y-85237205D02*
G75*
G02X126470000Y-84510000I2324184J-1122795D01*
G01*
X149185000Y-110505000D02*
X155435000Y-110505000D01*
X149185000Y-115555000D02*
X155435000Y-115555000D01*
X149185000Y-115555000D02*
G75*
G02X149185000Y-110505000I0J2525000D01*
G01*
X155435000Y-115555000D02*
G75*
G03X155435000Y-110505000I0J2525000D01*
G01*
D10*
X110712380Y-83002380D02*
X110379047Y-82526190D01*
X110140952Y-83002380D02*
X110140952Y-82002380D01*
X110521904Y-82002380D01*
X110617142Y-82050000D01*
X110664761Y-82097619D01*
X110712380Y-82192857D01*
X110712380Y-82335714D01*
X110664761Y-82430952D01*
X110617142Y-82478571D01*
X110521904Y-82526190D01*
X110140952Y-82526190D01*
X111140952Y-82478571D02*
X111474285Y-82478571D01*
X111617142Y-83002380D02*
X111140952Y-83002380D01*
X111140952Y-82002380D01*
X111617142Y-82002380D01*
X112379047Y-82478571D02*
X112045714Y-82478571D01*
X112045714Y-83002380D02*
X112045714Y-82002380D01*
X112521904Y-82002380D01*
X113093333Y-82002380D02*
X113188571Y-82002380D01*
X113283809Y-82050000D01*
X113331428Y-82097619D01*
X113379047Y-82192857D01*
X113426666Y-82383333D01*
X113426666Y-82621428D01*
X113379047Y-82811904D01*
X113331428Y-82907142D01*
X113283809Y-82954761D01*
X113188571Y-83002380D01*
X113093333Y-83002380D01*
X112998095Y-82954761D01*
X112950476Y-82907142D01*
X112902857Y-82811904D01*
X112855238Y-82621428D01*
X112855238Y-82383333D01*
X112902857Y-82192857D01*
X112950476Y-82097619D01*
X112998095Y-82050000D01*
X113093333Y-82002380D01*
X110712380Y-118562380D02*
X110379047Y-118086190D01*
X110140952Y-118562380D02*
X110140952Y-117562380D01*
X110521904Y-117562380D01*
X110617142Y-117610000D01*
X110664761Y-117657619D01*
X110712380Y-117752857D01*
X110712380Y-117895714D01*
X110664761Y-117990952D01*
X110617142Y-118038571D01*
X110521904Y-118086190D01*
X110140952Y-118086190D01*
X111140952Y-118038571D02*
X111474285Y-118038571D01*
X111617142Y-118562380D02*
X111140952Y-118562380D01*
X111140952Y-117562380D01*
X111617142Y-117562380D01*
X112379047Y-118038571D02*
X112045714Y-118038571D01*
X112045714Y-118562380D02*
X112045714Y-117562380D01*
X112521904Y-117562380D01*
X112855238Y-117657619D02*
X112902857Y-117610000D01*
X112998095Y-117562380D01*
X113236190Y-117562380D01*
X113331428Y-117610000D01*
X113379047Y-117657619D01*
X113426666Y-117752857D01*
X113426666Y-117848095D01*
X113379047Y-117990952D01*
X112807619Y-118562380D01*
X113426666Y-118562380D01*
X171672380Y-123642380D02*
X171339047Y-123166190D01*
X171100952Y-123642380D02*
X171100952Y-122642380D01*
X171481904Y-122642380D01*
X171577142Y-122690000D01*
X171624761Y-122737619D01*
X171672380Y-122832857D01*
X171672380Y-122975714D01*
X171624761Y-123070952D01*
X171577142Y-123118571D01*
X171481904Y-123166190D01*
X171100952Y-123166190D01*
X172100952Y-123118571D02*
X172434285Y-123118571D01*
X172577142Y-123642380D02*
X172100952Y-123642380D01*
X172100952Y-122642380D01*
X172577142Y-122642380D01*
X173339047Y-123118571D02*
X173005714Y-123118571D01*
X173005714Y-123642380D02*
X173005714Y-122642380D01*
X173481904Y-122642380D01*
X173767619Y-122642380D02*
X174386666Y-122642380D01*
X174053333Y-123023333D01*
X174196190Y-123023333D01*
X174291428Y-123070952D01*
X174339047Y-123118571D01*
X174386666Y-123213809D01*
X174386666Y-123451904D01*
X174339047Y-123547142D01*
X174291428Y-123594761D01*
X174196190Y-123642380D01*
X173910476Y-123642380D01*
X173815238Y-123594761D01*
X173767619Y-123547142D01*
X172942380Y-83002380D02*
X172609047Y-82526190D01*
X172370952Y-83002380D02*
X172370952Y-82002380D01*
X172751904Y-82002380D01*
X172847142Y-82050000D01*
X172894761Y-82097619D01*
X172942380Y-82192857D01*
X172942380Y-82335714D01*
X172894761Y-82430952D01*
X172847142Y-82478571D01*
X172751904Y-82526190D01*
X172370952Y-82526190D01*
X173370952Y-82478571D02*
X173704285Y-82478571D01*
X173847142Y-83002380D02*
X173370952Y-83002380D01*
X173370952Y-82002380D01*
X173847142Y-82002380D01*
X174609047Y-82478571D02*
X174275714Y-82478571D01*
X174275714Y-83002380D02*
X174275714Y-82002380D01*
X174751904Y-82002380D01*
X175656666Y-83002380D02*
X175085238Y-83002380D01*
X175370952Y-83002380D02*
X175370952Y-82002380D01*
X175275714Y-82145238D01*
X175180476Y-82240476D01*
X175085238Y-82288095D01*
X117943333Y-91797142D02*
X117895714Y-91844761D01*
X117752857Y-91892380D01*
X117657619Y-91892380D01*
X117514761Y-91844761D01*
X117419523Y-91749523D01*
X117371904Y-91654285D01*
X117324285Y-91463809D01*
X117324285Y-91320952D01*
X117371904Y-91130476D01*
X117419523Y-91035238D01*
X117514761Y-90940000D01*
X117657619Y-90892380D01*
X117752857Y-90892380D01*
X117895714Y-90940000D01*
X117943333Y-90987619D01*
X118895714Y-91892380D02*
X118324285Y-91892380D01*
X118610000Y-91892380D02*
X118610000Y-90892380D01*
X118514761Y-91035238D01*
X118419523Y-91130476D01*
X118324285Y-91178095D01*
X140803333Y-87987142D02*
X140755714Y-88034761D01*
X140612857Y-88082380D01*
X140517619Y-88082380D01*
X140374761Y-88034761D01*
X140279523Y-87939523D01*
X140231904Y-87844285D01*
X140184285Y-87653809D01*
X140184285Y-87510952D01*
X140231904Y-87320476D01*
X140279523Y-87225238D01*
X140374761Y-87130000D01*
X140517619Y-87082380D01*
X140612857Y-87082380D01*
X140755714Y-87130000D01*
X140803333Y-87177619D01*
X141184285Y-87177619D02*
X141231904Y-87130000D01*
X141327142Y-87082380D01*
X141565238Y-87082380D01*
X141660476Y-87130000D01*
X141708095Y-87177619D01*
X141755714Y-87272857D01*
X141755714Y-87368095D01*
X141708095Y-87510952D01*
X141136666Y-88082380D01*
X141755714Y-88082380D01*
X139573333Y-94337142D02*
X139525714Y-94384761D01*
X139382857Y-94432380D01*
X139287619Y-94432380D01*
X139144761Y-94384761D01*
X139049523Y-94289523D01*
X139001904Y-94194285D01*
X138954285Y-94003809D01*
X138954285Y-93860952D01*
X139001904Y-93670476D01*
X139049523Y-93575238D01*
X139144761Y-93480000D01*
X139287619Y-93432380D01*
X139382857Y-93432380D01*
X139525714Y-93480000D01*
X139573333Y-93527619D01*
X139906666Y-93432380D02*
X140525714Y-93432380D01*
X140192380Y-93813333D01*
X140335238Y-93813333D01*
X140430476Y-93860952D01*
X140478095Y-93908571D01*
X140525714Y-94003809D01*
X140525714Y-94241904D01*
X140478095Y-94337142D01*
X140430476Y-94384761D01*
X140335238Y-94432380D01*
X140049523Y-94432380D01*
X139954285Y-94384761D01*
X139906666Y-94337142D01*
X123547142Y-104346666D02*
X123594761Y-104394285D01*
X123642380Y-104537142D01*
X123642380Y-104632380D01*
X123594761Y-104775238D01*
X123499523Y-104870476D01*
X123404285Y-104918095D01*
X123213809Y-104965714D01*
X123070952Y-104965714D01*
X122880476Y-104918095D01*
X122785238Y-104870476D01*
X122690000Y-104775238D01*
X122642380Y-104632380D01*
X122642380Y-104537142D01*
X122690000Y-104394285D01*
X122737619Y-104346666D01*
X122975714Y-103489523D02*
X123642380Y-103489523D01*
X122594761Y-103727619D02*
X123309047Y-103965714D01*
X123309047Y-103346666D01*
X153503333Y-121007142D02*
X153455714Y-121054761D01*
X153312857Y-121102380D01*
X153217619Y-121102380D01*
X153074761Y-121054761D01*
X152979523Y-120959523D01*
X152931904Y-120864285D01*
X152884285Y-120673809D01*
X152884285Y-120530952D01*
X152931904Y-120340476D01*
X152979523Y-120245238D01*
X153074761Y-120150000D01*
X153217619Y-120102380D01*
X153312857Y-120102380D01*
X153455714Y-120150000D01*
X153503333Y-120197619D01*
X154408095Y-120102380D02*
X153931904Y-120102380D01*
X153884285Y-120578571D01*
X153931904Y-120530952D01*
X154027142Y-120483333D01*
X154265238Y-120483333D01*
X154360476Y-120530952D01*
X154408095Y-120578571D01*
X154455714Y-120673809D01*
X154455714Y-120911904D01*
X154408095Y-121007142D01*
X154360476Y-121054761D01*
X154265238Y-121102380D01*
X154027142Y-121102380D01*
X153931904Y-121054761D01*
X153884285Y-121007142D01*
X153543333Y-118467142D02*
X153495714Y-118514761D01*
X153352857Y-118562380D01*
X153257619Y-118562380D01*
X153114761Y-118514761D01*
X153019523Y-118419523D01*
X152971904Y-118324285D01*
X152924285Y-118133809D01*
X152924285Y-117990952D01*
X152971904Y-117800476D01*
X153019523Y-117705238D01*
X153114761Y-117610000D01*
X153257619Y-117562380D01*
X153352857Y-117562380D01*
X153495714Y-117610000D01*
X153543333Y-117657619D01*
X154400476Y-117562380D02*
X154210000Y-117562380D01*
X154114761Y-117610000D01*
X154067142Y-117657619D01*
X153971904Y-117800476D01*
X153924285Y-117990952D01*
X153924285Y-118371904D01*
X153971904Y-118467142D01*
X154019523Y-118514761D01*
X154114761Y-118562380D01*
X154305238Y-118562380D01*
X154400476Y-118514761D01*
X154448095Y-118467142D01*
X154495714Y-118371904D01*
X154495714Y-118133809D01*
X154448095Y-118038571D01*
X154400476Y-117990952D01*
X154305238Y-117943333D01*
X154114761Y-117943333D01*
X154019523Y-117990952D01*
X153971904Y-118038571D01*
X153924285Y-118133809D01*
X139533333Y-96877142D02*
X139485714Y-96924761D01*
X139342857Y-96972380D01*
X139247619Y-96972380D01*
X139104761Y-96924761D01*
X139009523Y-96829523D01*
X138961904Y-96734285D01*
X138914285Y-96543809D01*
X138914285Y-96400952D01*
X138961904Y-96210476D01*
X139009523Y-96115238D01*
X139104761Y-96020000D01*
X139247619Y-95972380D01*
X139342857Y-95972380D01*
X139485714Y-96020000D01*
X139533333Y-96067619D01*
X139866666Y-95972380D02*
X140533333Y-95972380D01*
X140104761Y-96972380D01*
X157273333Y-96877142D02*
X157225714Y-96924761D01*
X157082857Y-96972380D01*
X156987619Y-96972380D01*
X156844761Y-96924761D01*
X156749523Y-96829523D01*
X156701904Y-96734285D01*
X156654285Y-96543809D01*
X156654285Y-96400952D01*
X156701904Y-96210476D01*
X156749523Y-96115238D01*
X156844761Y-96020000D01*
X156987619Y-95972380D01*
X157082857Y-95972380D01*
X157225714Y-96020000D01*
X157273333Y-96067619D01*
X157844761Y-96400952D02*
X157749523Y-96353333D01*
X157701904Y-96305714D01*
X157654285Y-96210476D01*
X157654285Y-96162857D01*
X157701904Y-96067619D01*
X157749523Y-96020000D01*
X157844761Y-95972380D01*
X158035238Y-95972380D01*
X158130476Y-96020000D01*
X158178095Y-96067619D01*
X158225714Y-96162857D01*
X158225714Y-96210476D01*
X158178095Y-96305714D01*
X158130476Y-96353333D01*
X158035238Y-96400952D01*
X157844761Y-96400952D01*
X157749523Y-96448571D01*
X157701904Y-96496190D01*
X157654285Y-96591428D01*
X157654285Y-96781904D01*
X157701904Y-96877142D01*
X157749523Y-96924761D01*
X157844761Y-96972380D01*
X158035238Y-96972380D01*
X158130476Y-96924761D01*
X158178095Y-96877142D01*
X158225714Y-96781904D01*
X158225714Y-96591428D01*
X158178095Y-96496190D01*
X158130476Y-96448571D01*
X158035238Y-96400952D01*
X170013333Y-103227142D02*
X169965714Y-103274761D01*
X169822857Y-103322380D01*
X169727619Y-103322380D01*
X169584761Y-103274761D01*
X169489523Y-103179523D01*
X169441904Y-103084285D01*
X169394285Y-102893809D01*
X169394285Y-102750952D01*
X169441904Y-102560476D01*
X169489523Y-102465238D01*
X169584761Y-102370000D01*
X169727619Y-102322380D01*
X169822857Y-102322380D01*
X169965714Y-102370000D01*
X170013333Y-102417619D01*
X170489523Y-103322380D02*
X170680000Y-103322380D01*
X170775238Y-103274761D01*
X170822857Y-103227142D01*
X170918095Y-103084285D01*
X170965714Y-102893809D01*
X170965714Y-102512857D01*
X170918095Y-102417619D01*
X170870476Y-102370000D01*
X170775238Y-102322380D01*
X170584761Y-102322380D01*
X170489523Y-102370000D01*
X170441904Y-102417619D01*
X170394285Y-102512857D01*
X170394285Y-102750952D01*
X170441904Y-102846190D01*
X170489523Y-102893809D01*
X170584761Y-102941428D01*
X170775238Y-102941428D01*
X170870476Y-102893809D01*
X170918095Y-102846190D01*
X170965714Y-102750952D01*
X118562380Y-103608095D02*
X117562380Y-103608095D01*
X117562380Y-103370000D01*
X117610000Y-103227142D01*
X117705238Y-103131904D01*
X117800476Y-103084285D01*
X117990952Y-103036666D01*
X118133809Y-103036666D01*
X118324285Y-103084285D01*
X118419523Y-103131904D01*
X118514761Y-103227142D01*
X118562380Y-103370000D01*
X118562380Y-103608095D01*
X118562380Y-102084285D02*
X118562380Y-102655714D01*
X118562380Y-102370000D02*
X117562380Y-102370000D01*
X117705238Y-102465238D01*
X117800476Y-102560476D01*
X117848095Y-102655714D01*
X119118095Y-108402380D02*
X119118095Y-107402380D01*
X119689523Y-108402380D02*
X119260952Y-107830952D01*
X119689523Y-107402380D02*
X119118095Y-107973809D01*
X131341904Y-112212380D02*
X131341904Y-111212380D01*
X131580000Y-111212380D01*
X131722857Y-111260000D01*
X131818095Y-111355238D01*
X131865714Y-111450476D01*
X131913333Y-111640952D01*
X131913333Y-111783809D01*
X131865714Y-111974285D01*
X131818095Y-112069523D01*
X131722857Y-112164761D01*
X131580000Y-112212380D01*
X131341904Y-112212380D01*
X132294285Y-111307619D02*
X132341904Y-111260000D01*
X132437142Y-111212380D01*
X132675238Y-111212380D01*
X132770476Y-111260000D01*
X132818095Y-111307619D01*
X132865714Y-111402857D01*
X132865714Y-111498095D01*
X132818095Y-111640952D01*
X132246666Y-112212380D01*
X132865714Y-112212380D01*
X128008095Y-110412380D02*
X128008095Y-109412380D01*
X128579523Y-110412380D02*
X128150952Y-109840952D01*
X128579523Y-109412380D02*
X128008095Y-109983809D01*
X131341904Y-119832380D02*
X131341904Y-118832380D01*
X131580000Y-118832380D01*
X131722857Y-118880000D01*
X131818095Y-118975238D01*
X131865714Y-119070476D01*
X131913333Y-119260952D01*
X131913333Y-119403809D01*
X131865714Y-119594285D01*
X131818095Y-119689523D01*
X131722857Y-119784761D01*
X131580000Y-119832380D01*
X131341904Y-119832380D01*
X132246666Y-118832380D02*
X132865714Y-118832380D01*
X132532380Y-119213333D01*
X132675238Y-119213333D01*
X132770476Y-119260952D01*
X132818095Y-119308571D01*
X132865714Y-119403809D01*
X132865714Y-119641904D01*
X132818095Y-119737142D01*
X132770476Y-119784761D01*
X132675238Y-119832380D01*
X132389523Y-119832380D01*
X132294285Y-119784761D01*
X132246666Y-119737142D01*
X144041904Y-83002380D02*
X144041904Y-82002380D01*
X144280000Y-82002380D01*
X144422857Y-82050000D01*
X144518095Y-82145238D01*
X144565714Y-82240476D01*
X144613333Y-82430952D01*
X144613333Y-82573809D01*
X144565714Y-82764285D01*
X144518095Y-82859523D01*
X144422857Y-82954761D01*
X144280000Y-83002380D01*
X144041904Y-83002380D01*
X145470476Y-82335714D02*
X145470476Y-83002380D01*
X145232380Y-81954761D02*
X144994285Y-82669047D01*
X145613333Y-82669047D01*
X140708095Y-81202380D02*
X140708095Y-80202380D01*
X141279523Y-81202380D02*
X140850952Y-80630952D01*
X141279523Y-80202380D02*
X140708095Y-80773809D01*
X131341904Y-80462380D02*
X131341904Y-79462380D01*
X131580000Y-79462380D01*
X131722857Y-79510000D01*
X131818095Y-79605238D01*
X131865714Y-79700476D01*
X131913333Y-79890952D01*
X131913333Y-80033809D01*
X131865714Y-80224285D01*
X131818095Y-80319523D01*
X131722857Y-80414761D01*
X131580000Y-80462380D01*
X131341904Y-80462380D01*
X132818095Y-79462380D02*
X132341904Y-79462380D01*
X132294285Y-79938571D01*
X132341904Y-79890952D01*
X132437142Y-79843333D01*
X132675238Y-79843333D01*
X132770476Y-79890952D01*
X132818095Y-79938571D01*
X132865714Y-80033809D01*
X132865714Y-80271904D01*
X132818095Y-80367142D01*
X132770476Y-80414761D01*
X132675238Y-80462380D01*
X132437142Y-80462380D01*
X132341904Y-80414761D01*
X132294285Y-80367142D01*
X136898095Y-82562380D02*
X136898095Y-81562380D01*
X137469523Y-82562380D02*
X137040952Y-81990952D01*
X137469523Y-81562380D02*
X136898095Y-82133809D01*
X140231904Y-110942380D02*
X140231904Y-109942380D01*
X140470000Y-109942380D01*
X140612857Y-109990000D01*
X140708095Y-110085238D01*
X140755714Y-110180476D01*
X140803333Y-110370952D01*
X140803333Y-110513809D01*
X140755714Y-110704285D01*
X140708095Y-110799523D01*
X140612857Y-110894761D01*
X140470000Y-110942380D01*
X140231904Y-110942380D01*
X141660476Y-109942380D02*
X141470000Y-109942380D01*
X141374761Y-109990000D01*
X141327142Y-110037619D01*
X141231904Y-110180476D01*
X141184285Y-110370952D01*
X141184285Y-110751904D01*
X141231904Y-110847142D01*
X141279523Y-110894761D01*
X141374761Y-110942380D01*
X141565238Y-110942380D01*
X141660476Y-110894761D01*
X141708095Y-110847142D01*
X141755714Y-110751904D01*
X141755714Y-110513809D01*
X141708095Y-110418571D01*
X141660476Y-110370952D01*
X141565238Y-110323333D01*
X141374761Y-110323333D01*
X141279523Y-110370952D01*
X141231904Y-110418571D01*
X141184285Y-110513809D01*
X129642857Y-78017619D02*
X129642857Y-77303333D01*
X129690476Y-77160476D01*
X129785714Y-77065238D01*
X129928571Y-77017619D01*
X130023809Y-77017619D01*
X128642857Y-77017619D02*
X129214285Y-77017619D01*
X128928571Y-77017619D02*
X128928571Y-78017619D01*
X129023809Y-77874761D01*
X129119047Y-77779523D01*
X129214285Y-77731904D01*
X128214285Y-77398571D02*
X127452380Y-77398571D01*
X126642857Y-77541428D02*
X126500000Y-77493809D01*
X126452380Y-77446190D01*
X126404761Y-77350952D01*
X126404761Y-77208095D01*
X126452380Y-77112857D01*
X126500000Y-77065238D01*
X126595238Y-77017619D01*
X126976190Y-77017619D01*
X126976190Y-78017619D01*
X126642857Y-78017619D01*
X126547619Y-77970000D01*
X126500000Y-77922380D01*
X126452380Y-77827142D01*
X126452380Y-77731904D01*
X126500000Y-77636666D01*
X126547619Y-77589047D01*
X126642857Y-77541428D01*
X126976190Y-77541428D01*
X126023809Y-77303333D02*
X125547619Y-77303333D01*
X126119047Y-77017619D02*
X125785714Y-78017619D01*
X125452380Y-77017619D01*
X125261904Y-78017619D02*
X124690476Y-78017619D01*
X124976190Y-77017619D02*
X124976190Y-78017619D01*
X124500000Y-78017619D02*
X123928571Y-78017619D01*
X124214285Y-77017619D02*
X124214285Y-78017619D01*
X152733333Y-78017619D02*
X152733333Y-77303333D01*
X152780952Y-77160476D01*
X152876190Y-77065238D01*
X153019047Y-77017619D01*
X153114285Y-77017619D01*
X152304761Y-77922380D02*
X152257142Y-77970000D01*
X152161904Y-78017619D01*
X151923809Y-78017619D01*
X151828571Y-77970000D01*
X151780952Y-77922380D01*
X151733333Y-77827142D01*
X151733333Y-77731904D01*
X151780952Y-77589047D01*
X152352380Y-77017619D01*
X151733333Y-77017619D01*
X114847619Y-96631428D02*
X114133333Y-96631428D01*
X113990476Y-96583809D01*
X113895238Y-96488571D01*
X113847619Y-96345714D01*
X113847619Y-96250476D01*
X114847619Y-97012380D02*
X114847619Y-97631428D01*
X114466666Y-97298095D01*
X114466666Y-97440952D01*
X114419047Y-97536190D01*
X114371428Y-97583809D01*
X114276190Y-97631428D01*
X114038095Y-97631428D01*
X113942857Y-97583809D01*
X113895238Y-97536190D01*
X113847619Y-97440952D01*
X113847619Y-97155238D01*
X113895238Y-97060000D01*
X113942857Y-97012380D01*
X114228571Y-98060000D02*
X114228571Y-98821904D01*
X113895238Y-99250476D02*
X113847619Y-99393333D01*
X113847619Y-99631428D01*
X113895238Y-99726666D01*
X113942857Y-99774285D01*
X114038095Y-99821904D01*
X114133333Y-99821904D01*
X114228571Y-99774285D01*
X114276190Y-99726666D01*
X114323809Y-99631428D01*
X114371428Y-99440952D01*
X114419047Y-99345714D01*
X114466666Y-99298095D01*
X114561904Y-99250476D01*
X114657142Y-99250476D01*
X114752380Y-99298095D01*
X114800000Y-99345714D01*
X114847619Y-99440952D01*
X114847619Y-99679047D01*
X114800000Y-99821904D01*
X113847619Y-100250476D02*
X114847619Y-100250476D01*
X114847619Y-100631428D01*
X114800000Y-100726666D01*
X114752380Y-100774285D01*
X114657142Y-100821904D01*
X114514285Y-100821904D01*
X114419047Y-100774285D01*
X114371428Y-100726666D01*
X114323809Y-100631428D01*
X114323809Y-100250476D01*
X113847619Y-101250476D02*
X114847619Y-101250476D01*
X113847619Y-101821904D02*
X114419047Y-101393333D01*
X114847619Y-101821904D02*
X114276190Y-101250476D01*
X125392380Y-122253333D02*
X126106666Y-122253333D01*
X126249523Y-122300952D01*
X126344761Y-122396190D01*
X126392380Y-122539047D01*
X126392380Y-122634285D01*
X125725714Y-121348571D02*
X126392380Y-121348571D01*
X125344761Y-121586666D02*
X126059047Y-121824761D01*
X126059047Y-121205714D01*
X115474761Y-85637619D02*
X115379523Y-85590000D01*
X115284285Y-85494761D01*
X115141428Y-85351904D01*
X115046190Y-85304285D01*
X114950952Y-85304285D01*
X114998571Y-85542380D02*
X114903333Y-85494761D01*
X114808095Y-85399523D01*
X114760476Y-85209047D01*
X114760476Y-84875714D01*
X114808095Y-84685238D01*
X114903333Y-84590000D01*
X114998571Y-84542380D01*
X115189047Y-84542380D01*
X115284285Y-84590000D01*
X115379523Y-84685238D01*
X115427142Y-84875714D01*
X115427142Y-85209047D01*
X115379523Y-85399523D01*
X115284285Y-85494761D01*
X115189047Y-85542380D01*
X114998571Y-85542380D01*
X116379523Y-85542380D02*
X115808095Y-85542380D01*
X116093809Y-85542380D02*
X116093809Y-84542380D01*
X115998571Y-84685238D01*
X115903333Y-84780476D01*
X115808095Y-84828095D01*
X133254761Y-93257619D02*
X133159523Y-93210000D01*
X133064285Y-93114761D01*
X132921428Y-92971904D01*
X132826190Y-92924285D01*
X132730952Y-92924285D01*
X132778571Y-93162380D02*
X132683333Y-93114761D01*
X132588095Y-93019523D01*
X132540476Y-92829047D01*
X132540476Y-92495714D01*
X132588095Y-92305238D01*
X132683333Y-92210000D01*
X132778571Y-92162380D01*
X132969047Y-92162380D01*
X133064285Y-92210000D01*
X133159523Y-92305238D01*
X133207142Y-92495714D01*
X133207142Y-92829047D01*
X133159523Y-93019523D01*
X133064285Y-93114761D01*
X132969047Y-93162380D01*
X132778571Y-93162380D01*
X133588095Y-92257619D02*
X133635714Y-92210000D01*
X133730952Y-92162380D01*
X133969047Y-92162380D01*
X134064285Y-92210000D01*
X134111904Y-92257619D01*
X134159523Y-92352857D01*
X134159523Y-92448095D01*
X134111904Y-92590952D01*
X133540476Y-93162380D01*
X134159523Y-93162380D01*
X140874761Y-119927619D02*
X140779523Y-119880000D01*
X140684285Y-119784761D01*
X140541428Y-119641904D01*
X140446190Y-119594285D01*
X140350952Y-119594285D01*
X140398571Y-119832380D02*
X140303333Y-119784761D01*
X140208095Y-119689523D01*
X140160476Y-119499047D01*
X140160476Y-119165714D01*
X140208095Y-118975238D01*
X140303333Y-118880000D01*
X140398571Y-118832380D01*
X140589047Y-118832380D01*
X140684285Y-118880000D01*
X140779523Y-118975238D01*
X140827142Y-119165714D01*
X140827142Y-119499047D01*
X140779523Y-119689523D01*
X140684285Y-119784761D01*
X140589047Y-119832380D01*
X140398571Y-119832380D01*
X141160476Y-118832380D02*
X141779523Y-118832380D01*
X141446190Y-119213333D01*
X141589047Y-119213333D01*
X141684285Y-119260952D01*
X141731904Y-119308571D01*
X141779523Y-119403809D01*
X141779523Y-119641904D01*
X141731904Y-119737142D01*
X141684285Y-119784761D01*
X141589047Y-119832380D01*
X141303333Y-119832380D01*
X141208095Y-119784761D01*
X141160476Y-119737142D01*
X123023333Y-83002380D02*
X122690000Y-82526190D01*
X122451904Y-83002380D02*
X122451904Y-82002380D01*
X122832857Y-82002380D01*
X122928095Y-82050000D01*
X122975714Y-82097619D01*
X123023333Y-82192857D01*
X123023333Y-82335714D01*
X122975714Y-82430952D01*
X122928095Y-82478571D01*
X122832857Y-82526190D01*
X122451904Y-82526190D01*
X123975714Y-83002380D02*
X123404285Y-83002380D01*
X123690000Y-83002380D02*
X123690000Y-82002380D01*
X123594761Y-82145238D01*
X123499523Y-82240476D01*
X123404285Y-82288095D01*
X121102380Y-101766666D02*
X120626190Y-102100000D01*
X121102380Y-102338095D02*
X120102380Y-102338095D01*
X120102380Y-101957142D01*
X120150000Y-101861904D01*
X120197619Y-101814285D01*
X120292857Y-101766666D01*
X120435714Y-101766666D01*
X120530952Y-101814285D01*
X120578571Y-101861904D01*
X120626190Y-101957142D01*
X120626190Y-102338095D01*
X120197619Y-101385714D02*
X120150000Y-101338095D01*
X120102380Y-101242857D01*
X120102380Y-101004761D01*
X120150000Y-100909523D01*
X120197619Y-100861904D01*
X120292857Y-100814285D01*
X120388095Y-100814285D01*
X120530952Y-100861904D01*
X121102380Y-101433333D01*
X121102380Y-100814285D01*
X133183333Y-117292380D02*
X132850000Y-116816190D01*
X132611904Y-117292380D02*
X132611904Y-116292380D01*
X132992857Y-116292380D01*
X133088095Y-116340000D01*
X133135714Y-116387619D01*
X133183333Y-116482857D01*
X133183333Y-116625714D01*
X133135714Y-116720952D01*
X133088095Y-116768571D01*
X132992857Y-116816190D01*
X132611904Y-116816190D01*
X133516666Y-116292380D02*
X134135714Y-116292380D01*
X133802380Y-116673333D01*
X133945238Y-116673333D01*
X134040476Y-116720952D01*
X134088095Y-116768571D01*
X134135714Y-116863809D01*
X134135714Y-117101904D01*
X134088095Y-117197142D01*
X134040476Y-117244761D01*
X133945238Y-117292380D01*
X133659523Y-117292380D01*
X133564285Y-117244761D01*
X133516666Y-117197142D01*
X131913333Y-114752380D02*
X131580000Y-114276190D01*
X131341904Y-114752380D02*
X131341904Y-113752380D01*
X131722857Y-113752380D01*
X131818095Y-113800000D01*
X131865714Y-113847619D01*
X131913333Y-113942857D01*
X131913333Y-114085714D01*
X131865714Y-114180952D01*
X131818095Y-114228571D01*
X131722857Y-114276190D01*
X131341904Y-114276190D01*
X132770476Y-114085714D02*
X132770476Y-114752380D01*
X132532380Y-113704761D02*
X132294285Y-114419047D01*
X132913333Y-114419047D01*
X145883333Y-80462380D02*
X145550000Y-79986190D01*
X145311904Y-80462380D02*
X145311904Y-79462380D01*
X145692857Y-79462380D01*
X145788095Y-79510000D01*
X145835714Y-79557619D01*
X145883333Y-79652857D01*
X145883333Y-79795714D01*
X145835714Y-79890952D01*
X145788095Y-79938571D01*
X145692857Y-79986190D01*
X145311904Y-79986190D01*
X146788095Y-79462380D02*
X146311904Y-79462380D01*
X146264285Y-79938571D01*
X146311904Y-79890952D01*
X146407142Y-79843333D01*
X146645238Y-79843333D01*
X146740476Y-79890952D01*
X146788095Y-79938571D01*
X146835714Y-80033809D01*
X146835714Y-80271904D01*
X146788095Y-80367142D01*
X146740476Y-80414761D01*
X146645238Y-80462380D01*
X146407142Y-80462380D01*
X146311904Y-80414761D01*
X146264285Y-80367142D01*
X129373333Y-96972380D02*
X129040000Y-96496190D01*
X128801904Y-96972380D02*
X128801904Y-95972380D01*
X129182857Y-95972380D01*
X129278095Y-96020000D01*
X129325714Y-96067619D01*
X129373333Y-96162857D01*
X129373333Y-96305714D01*
X129325714Y-96400952D01*
X129278095Y-96448571D01*
X129182857Y-96496190D01*
X128801904Y-96496190D01*
X130230476Y-95972380D02*
X130040000Y-95972380D01*
X129944761Y-96020000D01*
X129897142Y-96067619D01*
X129801904Y-96210476D01*
X129754285Y-96400952D01*
X129754285Y-96781904D01*
X129801904Y-96877142D01*
X129849523Y-96924761D01*
X129944761Y-96972380D01*
X130135238Y-96972380D01*
X130230476Y-96924761D01*
X130278095Y-96877142D01*
X130325714Y-96781904D01*
X130325714Y-96543809D01*
X130278095Y-96448571D01*
X130230476Y-96400952D01*
X130135238Y-96353333D01*
X129944761Y-96353333D01*
X129849523Y-96400952D01*
X129801904Y-96448571D01*
X129754285Y-96543809D01*
X164282380Y-103036666D02*
X163806190Y-103370000D01*
X164282380Y-103608095D02*
X163282380Y-103608095D01*
X163282380Y-103227142D01*
X163330000Y-103131904D01*
X163377619Y-103084285D01*
X163472857Y-103036666D01*
X163615714Y-103036666D01*
X163710952Y-103084285D01*
X163758571Y-103131904D01*
X163806190Y-103227142D01*
X163806190Y-103608095D01*
X163282380Y-102703333D02*
X163282380Y-102036666D01*
X164282380Y-102465238D01*
X168092380Y-89066666D02*
X167616190Y-89400000D01*
X168092380Y-89638095D02*
X167092380Y-89638095D01*
X167092380Y-89257142D01*
X167140000Y-89161904D01*
X167187619Y-89114285D01*
X167282857Y-89066666D01*
X167425714Y-89066666D01*
X167520952Y-89114285D01*
X167568571Y-89161904D01*
X167616190Y-89257142D01*
X167616190Y-89638095D01*
X167520952Y-88495238D02*
X167473333Y-88590476D01*
X167425714Y-88638095D01*
X167330476Y-88685714D01*
X167282857Y-88685714D01*
X167187619Y-88638095D01*
X167140000Y-88590476D01*
X167092380Y-88495238D01*
X167092380Y-88304761D01*
X167140000Y-88209523D01*
X167187619Y-88161904D01*
X167282857Y-88114285D01*
X167330476Y-88114285D01*
X167425714Y-88161904D01*
X167473333Y-88209523D01*
X167520952Y-88304761D01*
X167520952Y-88495238D01*
X167568571Y-88590476D01*
X167616190Y-88638095D01*
X167711428Y-88685714D01*
X167901904Y-88685714D01*
X167997142Y-88638095D01*
X168044761Y-88590476D01*
X168092380Y-88495238D01*
X168092380Y-88304761D01*
X168044761Y-88209523D01*
X167997142Y-88161904D01*
X167901904Y-88114285D01*
X167711428Y-88114285D01*
X167616190Y-88161904D01*
X167568571Y-88209523D01*
X167520952Y-88304761D01*
X165552380Y-89066666D02*
X165076190Y-89400000D01*
X165552380Y-89638095D02*
X164552380Y-89638095D01*
X164552380Y-89257142D01*
X164600000Y-89161904D01*
X164647619Y-89114285D01*
X164742857Y-89066666D01*
X164885714Y-89066666D01*
X164980952Y-89114285D01*
X165028571Y-89161904D01*
X165076190Y-89257142D01*
X165076190Y-89638095D01*
X165552380Y-88590476D02*
X165552380Y-88400000D01*
X165504761Y-88304761D01*
X165457142Y-88257142D01*
X165314285Y-88161904D01*
X165123809Y-88114285D01*
X164742857Y-88114285D01*
X164647619Y-88161904D01*
X164600000Y-88209523D01*
X164552380Y-88304761D01*
X164552380Y-88495238D01*
X164600000Y-88590476D01*
X164647619Y-88638095D01*
X164742857Y-88685714D01*
X164980952Y-88685714D01*
X165076190Y-88638095D01*
X165123809Y-88590476D01*
X165171428Y-88495238D01*
X165171428Y-88304761D01*
X165123809Y-88209523D01*
X165076190Y-88161904D01*
X164980952Y-88114285D01*
X163012380Y-89542857D02*
X162536190Y-89876190D01*
X163012380Y-90114285D02*
X162012380Y-90114285D01*
X162012380Y-89733333D01*
X162060000Y-89638095D01*
X162107619Y-89590476D01*
X162202857Y-89542857D01*
X162345714Y-89542857D01*
X162440952Y-89590476D01*
X162488571Y-89638095D01*
X162536190Y-89733333D01*
X162536190Y-90114285D01*
X163012380Y-88590476D02*
X163012380Y-89161904D01*
X163012380Y-88876190D02*
X162012380Y-88876190D01*
X162155238Y-88971428D01*
X162250476Y-89066666D01*
X162298095Y-89161904D01*
X162012380Y-87971428D02*
X162012380Y-87876190D01*
X162060000Y-87780952D01*
X162107619Y-87733333D01*
X162202857Y-87685714D01*
X162393333Y-87638095D01*
X162631428Y-87638095D01*
X162821904Y-87685714D01*
X162917142Y-87733333D01*
X162964761Y-87780952D01*
X163012380Y-87876190D01*
X163012380Y-87971428D01*
X162964761Y-88066666D01*
X162917142Y-88114285D01*
X162821904Y-88161904D01*
X162631428Y-88209523D01*
X162393333Y-88209523D01*
X162202857Y-88161904D01*
X162107619Y-88114285D01*
X162060000Y-88066666D01*
X162012380Y-87971428D01*
X160472380Y-89542857D02*
X159996190Y-89876190D01*
X160472380Y-90114285D02*
X159472380Y-90114285D01*
X159472380Y-89733333D01*
X159520000Y-89638095D01*
X159567619Y-89590476D01*
X159662857Y-89542857D01*
X159805714Y-89542857D01*
X159900952Y-89590476D01*
X159948571Y-89638095D01*
X159996190Y-89733333D01*
X159996190Y-90114285D01*
X160472380Y-88590476D02*
X160472380Y-89161904D01*
X160472380Y-88876190D02*
X159472380Y-88876190D01*
X159615238Y-88971428D01*
X159710476Y-89066666D01*
X159758095Y-89161904D01*
X160472380Y-87638095D02*
X160472380Y-88209523D01*
X160472380Y-87923809D02*
X159472380Y-87923809D01*
X159615238Y-88019047D01*
X159710476Y-88114285D01*
X159758095Y-88209523D01*
X157932380Y-89542857D02*
X157456190Y-89876190D01*
X157932380Y-90114285D02*
X156932380Y-90114285D01*
X156932380Y-89733333D01*
X156980000Y-89638095D01*
X157027619Y-89590476D01*
X157122857Y-89542857D01*
X157265714Y-89542857D01*
X157360952Y-89590476D01*
X157408571Y-89638095D01*
X157456190Y-89733333D01*
X157456190Y-90114285D01*
X157932380Y-88590476D02*
X157932380Y-89161904D01*
X157932380Y-88876190D02*
X156932380Y-88876190D01*
X157075238Y-88971428D01*
X157170476Y-89066666D01*
X157218095Y-89161904D01*
X157027619Y-88209523D02*
X156980000Y-88161904D01*
X156932380Y-88066666D01*
X156932380Y-87828571D01*
X156980000Y-87733333D01*
X157027619Y-87685714D01*
X157122857Y-87638095D01*
X157218095Y-87638095D01*
X157360952Y-87685714D01*
X157932380Y-88257142D01*
X157932380Y-87638095D01*
X155392380Y-89542857D02*
X154916190Y-89876190D01*
X155392380Y-90114285D02*
X154392380Y-90114285D01*
X154392380Y-89733333D01*
X154440000Y-89638095D01*
X154487619Y-89590476D01*
X154582857Y-89542857D01*
X154725714Y-89542857D01*
X154820952Y-89590476D01*
X154868571Y-89638095D01*
X154916190Y-89733333D01*
X154916190Y-90114285D01*
X155392380Y-88590476D02*
X155392380Y-89161904D01*
X155392380Y-88876190D02*
X154392380Y-88876190D01*
X154535238Y-88971428D01*
X154630476Y-89066666D01*
X154678095Y-89161904D01*
X154392380Y-88257142D02*
X154392380Y-87638095D01*
X154773333Y-87971428D01*
X154773333Y-87828571D01*
X154820952Y-87733333D01*
X154868571Y-87685714D01*
X154963809Y-87638095D01*
X155201904Y-87638095D01*
X155297142Y-87685714D01*
X155344761Y-87733333D01*
X155392380Y-87828571D01*
X155392380Y-88114285D01*
X155344761Y-88209523D01*
X155297142Y-88257142D01*
X112966666Y-110894761D02*
X113109523Y-110942380D01*
X113347619Y-110942380D01*
X113442857Y-110894761D01*
X113490476Y-110847142D01*
X113538095Y-110751904D01*
X113538095Y-110656666D01*
X113490476Y-110561428D01*
X113442857Y-110513809D01*
X113347619Y-110466190D01*
X113157142Y-110418571D01*
X113061904Y-110370952D01*
X113014285Y-110323333D01*
X112966666Y-110228095D01*
X112966666Y-110132857D01*
X113014285Y-110037619D01*
X113061904Y-109990000D01*
X113157142Y-109942380D01*
X113395238Y-109942380D01*
X113538095Y-109990000D01*
X113871428Y-109942380D02*
X114109523Y-110942380D01*
X114300000Y-110228095D01*
X114490476Y-110942380D01*
X114728571Y-109942380D01*
X115633333Y-110942380D02*
X115061904Y-110942380D01*
X115347619Y-110942380D02*
X115347619Y-109942380D01*
X115252380Y-110085238D01*
X115157142Y-110180476D01*
X115061904Y-110228095D01*
X158686666Y-122324761D02*
X158829523Y-122372380D01*
X159067619Y-122372380D01*
X159162857Y-122324761D01*
X159210476Y-122277142D01*
X159258095Y-122181904D01*
X159258095Y-122086666D01*
X159210476Y-121991428D01*
X159162857Y-121943809D01*
X159067619Y-121896190D01*
X158877142Y-121848571D01*
X158781904Y-121800952D01*
X158734285Y-121753333D01*
X158686666Y-121658095D01*
X158686666Y-121562857D01*
X158734285Y-121467619D01*
X158781904Y-121420000D01*
X158877142Y-121372380D01*
X159115238Y-121372380D01*
X159258095Y-121420000D01*
X159591428Y-121372380D02*
X159829523Y-122372380D01*
X160020000Y-121658095D01*
X160210476Y-122372380D01*
X160448571Y-121372380D01*
X160781904Y-121467619D02*
X160829523Y-121420000D01*
X160924761Y-121372380D01*
X161162857Y-121372380D01*
X161258095Y-121420000D01*
X161305714Y-121467619D01*
X161353333Y-121562857D01*
X161353333Y-121658095D01*
X161305714Y-121800952D01*
X160734285Y-122372380D01*
X161353333Y-122372380D01*
X147256666Y-95654761D02*
X147399523Y-95702380D01*
X147637619Y-95702380D01*
X147732857Y-95654761D01*
X147780476Y-95607142D01*
X147828095Y-95511904D01*
X147828095Y-95416666D01*
X147780476Y-95321428D01*
X147732857Y-95273809D01*
X147637619Y-95226190D01*
X147447142Y-95178571D01*
X147351904Y-95130952D01*
X147304285Y-95083333D01*
X147256666Y-94988095D01*
X147256666Y-94892857D01*
X147304285Y-94797619D01*
X147351904Y-94750000D01*
X147447142Y-94702380D01*
X147685238Y-94702380D01*
X147828095Y-94750000D01*
X148161428Y-94702380D02*
X148399523Y-95702380D01*
X148590000Y-94988095D01*
X148780476Y-95702380D01*
X149018571Y-94702380D01*
X149828095Y-95035714D02*
X149828095Y-95702380D01*
X149590000Y-94654761D02*
X149351904Y-95369047D01*
X149970952Y-95369047D01*
X144232380Y-104901904D02*
X145041904Y-104901904D01*
X145137142Y-104854285D01*
X145184761Y-104806666D01*
X145232380Y-104711428D01*
X145232380Y-104520952D01*
X145184761Y-104425714D01*
X145137142Y-104378095D01*
X145041904Y-104330476D01*
X144232380Y-104330476D01*
X145232380Y-103330476D02*
X145232380Y-103901904D01*
X145232380Y-103616190D02*
X144232380Y-103616190D01*
X144375238Y-103711428D01*
X144470476Y-103806666D01*
X144518095Y-103901904D01*
X130048095Y-83272380D02*
X130048095Y-84081904D01*
X130095714Y-84177142D01*
X130143333Y-84224761D01*
X130238571Y-84272380D01*
X130429047Y-84272380D01*
X130524285Y-84224761D01*
X130571904Y-84177142D01*
X130619523Y-84081904D01*
X130619523Y-83272380D01*
X131048095Y-83367619D02*
X131095714Y-83320000D01*
X131190952Y-83272380D01*
X131429047Y-83272380D01*
X131524285Y-83320000D01*
X131571904Y-83367619D01*
X131619523Y-83462857D01*
X131619523Y-83558095D01*
X131571904Y-83700952D01*
X131000476Y-84272380D01*
X131619523Y-84272380D01*
X145573809Y-110466190D02*
X145573809Y-110942380D01*
X145240476Y-109942380D02*
X145573809Y-110466190D01*
X145907142Y-109942380D01*
X146764285Y-110942380D02*
X146192857Y-110942380D01*
X146478571Y-110942380D02*
X146478571Y-109942380D01*
X146383333Y-110085238D01*
X146288095Y-110180476D01*
X146192857Y-110228095D01*
M02*
